G04 #@! TF.GenerationSoftware,KiCad,Pcbnew,5.0.2-bee76a0~70~ubuntu14.04.1*
G04 #@! TF.CreationDate,2020-01-26T01:40:04+01:00*
G04 #@! TF.ProjectId,wordclock_pcb,776f7264-636c-46f6-936b-5f7063622e6b,rev?*
G04 #@! TF.SameCoordinates,Original*
G04 #@! TF.FileFunction,Legend,Bot*
G04 #@! TF.FilePolarity,Positive*
%FSLAX46Y46*%
G04 Gerber Fmt 4.6, Leading zero omitted, Abs format (unit mm)*
G04 Created by KiCad (PCBNEW 5.0.2-bee76a0~70~ubuntu14.04.1) date Sun 26 Jan 2020 01:40:04 AM CET*
%MOMM*%
%LPD*%
G01*
G04 APERTURE LIST*
%ADD10C,0.150000*%
G04 APERTURE END LIST*
D10*
G04 #@! TO.C,D1*
X35000000Y-30000000D02*
G75*
G03X35000000Y-30000000I-5000000J0D01*
G01*
G04 #@! TO.C,D2*
X60000000Y-30000000D02*
G75*
G03X60000000Y-30000000I-5000000J0D01*
G01*
G04 #@! TO.C,D3*
X85000000Y-30000000D02*
G75*
G03X85000000Y-30000000I-5000000J0D01*
G01*
G04 #@! TO.C,D4*
X110000000Y-30000000D02*
G75*
G03X110000000Y-30000000I-5000000J0D01*
G01*
G04 #@! TO.C,D5*
X135000000Y-30000000D02*
G75*
G03X135000000Y-30000000I-5000000J0D01*
G01*
G04 #@! TO.C,D6*
X160000000Y-30000000D02*
G75*
G03X160000000Y-30000000I-5000000J0D01*
G01*
G04 #@! TO.C,D7*
X185000000Y-30000000D02*
G75*
G03X185000000Y-30000000I-5000000J0D01*
G01*
G04 #@! TO.C,D8*
X210000000Y-30000000D02*
G75*
G03X210000000Y-30000000I-5000000J0D01*
G01*
G04 #@! TO.C,D9*
X35000000Y-55000000D02*
G75*
G03X35000000Y-55000000I-5000000J0D01*
G01*
G04 #@! TO.C,D10*
X60000000Y-55000000D02*
G75*
G03X60000000Y-55000000I-5000000J0D01*
G01*
G04 #@! TO.C,D11*
X85000000Y-55000000D02*
G75*
G03X85000000Y-55000000I-5000000J0D01*
G01*
G04 #@! TO.C,D12*
X110000000Y-55000000D02*
G75*
G03X110000000Y-55000000I-5000000J0D01*
G01*
G04 #@! TO.C,D13*
X135000000Y-55000000D02*
G75*
G03X135000000Y-55000000I-5000000J0D01*
G01*
G04 #@! TO.C,D14*
X160000000Y-55000000D02*
G75*
G03X160000000Y-55000000I-5000000J0D01*
G01*
G04 #@! TO.C,D15*
X185000000Y-55000000D02*
G75*
G03X185000000Y-55000000I-5000000J0D01*
G01*
G04 #@! TO.C,D16*
X210000000Y-55000000D02*
G75*
G03X210000000Y-55000000I-5000000J0D01*
G01*
G04 #@! TO.C,D17*
X35000000Y-80000000D02*
G75*
G03X35000000Y-80000000I-5000000J0D01*
G01*
G04 #@! TO.C,D18*
X60000000Y-80000000D02*
G75*
G03X60000000Y-80000000I-5000000J0D01*
G01*
G04 #@! TO.C,D19*
X85000000Y-80000000D02*
G75*
G03X85000000Y-80000000I-5000000J0D01*
G01*
G04 #@! TO.C,D20*
X110000000Y-80000000D02*
G75*
G03X110000000Y-80000000I-5000000J0D01*
G01*
G04 #@! TO.C,D21*
X135000000Y-80000000D02*
G75*
G03X135000000Y-80000000I-5000000J0D01*
G01*
G04 #@! TO.C,D22*
X160000000Y-80000000D02*
G75*
G03X160000000Y-80000000I-5000000J0D01*
G01*
G04 #@! TO.C,D23*
X185000000Y-80000000D02*
G75*
G03X185000000Y-80000000I-5000000J0D01*
G01*
G04 #@! TO.C,D24*
X210000000Y-80000000D02*
G75*
G03X210000000Y-80000000I-5000000J0D01*
G01*
G04 #@! TO.C,D25*
X35000000Y-105000000D02*
G75*
G03X35000000Y-105000000I-5000000J0D01*
G01*
G04 #@! TO.C,D26*
X60000000Y-105000000D02*
G75*
G03X60000000Y-105000000I-5000000J0D01*
G01*
G04 #@! TO.C,D27*
X85000000Y-105000000D02*
G75*
G03X85000000Y-105000000I-5000000J0D01*
G01*
G04 #@! TO.C,D28*
X110000000Y-105000000D02*
G75*
G03X110000000Y-105000000I-5000000J0D01*
G01*
G04 #@! TO.C,D29*
X135000000Y-105000000D02*
G75*
G03X135000000Y-105000000I-5000000J0D01*
G01*
G04 #@! TO.C,D30*
X160000000Y-105000000D02*
G75*
G03X160000000Y-105000000I-5000000J0D01*
G01*
G04 #@! TO.C,D31*
X185000000Y-105000000D02*
G75*
G03X185000000Y-105000000I-5000000J0D01*
G01*
G04 #@! TO.C,D32*
X210000000Y-105000000D02*
G75*
G03X210000000Y-105000000I-5000000J0D01*
G01*
G04 #@! TO.C,D33*
X35000000Y-130000000D02*
G75*
G03X35000000Y-130000000I-5000000J0D01*
G01*
G04 #@! TO.C,D34*
X60000000Y-130000000D02*
G75*
G03X60000000Y-130000000I-5000000J0D01*
G01*
G04 #@! TO.C,D35*
X85000000Y-130000000D02*
G75*
G03X85000000Y-130000000I-5000000J0D01*
G01*
G04 #@! TO.C,D36*
X110000000Y-130000000D02*
G75*
G03X110000000Y-130000000I-5000000J0D01*
G01*
G04 #@! TO.C,D37*
X135000000Y-130000000D02*
G75*
G03X135000000Y-130000000I-5000000J0D01*
G01*
G04 #@! TO.C,D38*
X160000000Y-130000000D02*
G75*
G03X160000000Y-130000000I-5000000J0D01*
G01*
G04 #@! TO.C,D39*
X185000000Y-130000000D02*
G75*
G03X185000000Y-130000000I-5000000J0D01*
G01*
G04 #@! TO.C,D40*
X210000000Y-130000000D02*
G75*
G03X210000000Y-130000000I-5000000J0D01*
G01*
G04 #@! TO.C,D41*
X35000000Y-155000000D02*
G75*
G03X35000000Y-155000000I-5000000J0D01*
G01*
G04 #@! TO.C,D42*
X60000000Y-155000000D02*
G75*
G03X60000000Y-155000000I-5000000J0D01*
G01*
G04 #@! TO.C,D43*
X85000000Y-155000000D02*
G75*
G03X85000000Y-155000000I-5000000J0D01*
G01*
G04 #@! TO.C,D44*
X110000000Y-155000000D02*
G75*
G03X110000000Y-155000000I-5000000J0D01*
G01*
G04 #@! TO.C,D45*
X135000000Y-155000000D02*
G75*
G03X135000000Y-155000000I-5000000J0D01*
G01*
G04 #@! TO.C,D46*
X160000000Y-155000000D02*
G75*
G03X160000000Y-155000000I-5000000J0D01*
G01*
G04 #@! TO.C,D47*
X185000000Y-155000000D02*
G75*
G03X185000000Y-155000000I-5000000J0D01*
G01*
G04 #@! TO.C,D48*
X210000000Y-155000000D02*
G75*
G03X210000000Y-155000000I-5000000J0D01*
G01*
G04 #@! TO.C,D49*
X35000000Y-180000000D02*
G75*
G03X35000000Y-180000000I-5000000J0D01*
G01*
G04 #@! TO.C,D50*
X60000000Y-180000000D02*
G75*
G03X60000000Y-180000000I-5000000J0D01*
G01*
G04 #@! TO.C,D51*
X85000000Y-180000000D02*
G75*
G03X85000000Y-180000000I-5000000J0D01*
G01*
G04 #@! TO.C,D52*
X110000000Y-180000000D02*
G75*
G03X110000000Y-180000000I-5000000J0D01*
G01*
G04 #@! TO.C,D53*
X135000000Y-180000000D02*
G75*
G03X135000000Y-180000000I-5000000J0D01*
G01*
G04 #@! TO.C,D54*
X160000000Y-180000000D02*
G75*
G03X160000000Y-180000000I-5000000J0D01*
G01*
G04 #@! TO.C,D55*
X185000000Y-180000000D02*
G75*
G03X185000000Y-180000000I-5000000J0D01*
G01*
G04 #@! TO.C,D56*
X210000000Y-180000000D02*
G75*
G03X210000000Y-180000000I-5000000J0D01*
G01*
G04 #@! TO.C,D57*
X35000000Y-205000000D02*
G75*
G03X35000000Y-205000000I-5000000J0D01*
G01*
G04 #@! TO.C,D58*
X60000000Y-205000000D02*
G75*
G03X60000000Y-205000000I-5000000J0D01*
G01*
G04 #@! TO.C,D59*
X85000000Y-205000000D02*
G75*
G03X85000000Y-205000000I-5000000J0D01*
G01*
G04 #@! TO.C,D60*
X110000000Y-205000000D02*
G75*
G03X110000000Y-205000000I-5000000J0D01*
G01*
G04 #@! TO.C,D61*
X135000000Y-205000000D02*
G75*
G03X135000000Y-205000000I-5000000J0D01*
G01*
G04 #@! TO.C,D62*
X160000000Y-205000000D02*
G75*
G03X160000000Y-205000000I-5000000J0D01*
G01*
G04 #@! TO.C,D63*
X185000000Y-205000000D02*
G75*
G03X185000000Y-205000000I-5000000J0D01*
G01*
G04 #@! TO.C,D64*
X210000000Y-205000000D02*
G75*
G03X210000000Y-205000000I-5000000J0D01*
G01*
G04 #@! TD*
M02*
