G04 #@! TF.GenerationSoftware,KiCad,Pcbnew,5.0.2-bee76a0~70~ubuntu14.04.1*
G04 #@! TF.CreationDate,2020-01-26T01:40:04+01:00*
G04 #@! TF.ProjectId,wordclock_pcb,776f7264-636c-46f6-936b-5f7063622e6b,rev?*
G04 #@! TF.SameCoordinates,Original*
G04 #@! TF.FileFunction,Soldermask,Top*
G04 #@! TF.FilePolarity,Negative*
%FSLAX46Y46*%
G04 Gerber Fmt 4.6, Leading zero omitted, Abs format (unit mm)*
G04 Created by KiCad (PCBNEW 5.0.2-bee76a0~70~ubuntu14.04.1) date Sun 26 Jan 2020 01:40:04 AM CET*
%MOMM*%
%LPD*%
G01*
G04 APERTURE LIST*
%ADD10C,0.100000*%
G04 APERTURE END LIST*
D10*
G36*
X137550490Y-214550490D02*
X135449510Y-214550490D01*
X135449510Y-212449510D01*
X137550490Y-212449510D01*
X137550490Y-214550490D01*
X137550490Y-214550490D01*
G37*
G36*
X134165928Y-212464710D02*
X134165931Y-212464711D01*
X134165932Y-212464711D01*
X134363950Y-212524779D01*
X134363952Y-212524780D01*
X134363955Y-212524781D01*
X134546445Y-212622323D01*
X134706402Y-212753598D01*
X134837677Y-212913555D01*
X134935219Y-213096045D01*
X134995290Y-213294072D01*
X135015572Y-213500000D01*
X134995290Y-213705928D01*
X134935219Y-213903955D01*
X134837677Y-214086445D01*
X134706402Y-214246402D01*
X134546445Y-214377677D01*
X134363955Y-214475219D01*
X134363952Y-214475220D01*
X134363950Y-214475221D01*
X134165932Y-214535289D01*
X134165931Y-214535289D01*
X134165928Y-214535290D01*
X134011601Y-214550490D01*
X133908399Y-214550490D01*
X133754072Y-214535290D01*
X133754069Y-214535289D01*
X133754068Y-214535289D01*
X133556050Y-214475221D01*
X133556048Y-214475220D01*
X133556045Y-214475219D01*
X133373555Y-214377677D01*
X133213598Y-214246402D01*
X133082323Y-214086445D01*
X132984781Y-213903955D01*
X132924710Y-213705928D01*
X132904428Y-213500000D01*
X132924710Y-213294072D01*
X132984781Y-213096045D01*
X133082323Y-212913555D01*
X133213598Y-212753598D01*
X133373555Y-212622323D01*
X133556045Y-212524781D01*
X133556048Y-212524780D01*
X133556050Y-212524779D01*
X133754068Y-212464711D01*
X133754069Y-212464711D01*
X133754072Y-212464710D01*
X133908399Y-212449510D01*
X134011601Y-212449510D01*
X134165928Y-212464710D01*
X134165928Y-212464710D01*
G37*
G36*
X129085928Y-212464710D02*
X129085931Y-212464711D01*
X129085932Y-212464711D01*
X129283950Y-212524779D01*
X129283952Y-212524780D01*
X129283955Y-212524781D01*
X129466445Y-212622323D01*
X129626402Y-212753598D01*
X129757677Y-212913555D01*
X129855219Y-213096045D01*
X129915290Y-213294072D01*
X129935572Y-213500000D01*
X129915290Y-213705928D01*
X129855219Y-213903955D01*
X129757677Y-214086445D01*
X129626402Y-214246402D01*
X129466445Y-214377677D01*
X129283955Y-214475219D01*
X129283952Y-214475220D01*
X129283950Y-214475221D01*
X129085932Y-214535289D01*
X129085931Y-214535289D01*
X129085928Y-214535290D01*
X128931601Y-214550490D01*
X128828399Y-214550490D01*
X128674072Y-214535290D01*
X128674069Y-214535289D01*
X128674068Y-214535289D01*
X128476050Y-214475221D01*
X128476048Y-214475220D01*
X128476045Y-214475219D01*
X128293555Y-214377677D01*
X128133598Y-214246402D01*
X128002323Y-214086445D01*
X127904781Y-213903955D01*
X127844710Y-213705928D01*
X127824428Y-213500000D01*
X127844710Y-213294072D01*
X127904781Y-213096045D01*
X128002323Y-212913555D01*
X128133598Y-212753598D01*
X128293555Y-212622323D01*
X128476045Y-212524781D01*
X128476048Y-212524780D01*
X128476050Y-212524779D01*
X128674068Y-212464711D01*
X128674069Y-212464711D01*
X128674072Y-212464710D01*
X128828399Y-212449510D01*
X128931601Y-212449510D01*
X129085928Y-212464710D01*
X129085928Y-212464710D01*
G37*
G36*
X131625928Y-212464710D02*
X131625931Y-212464711D01*
X131625932Y-212464711D01*
X131823950Y-212524779D01*
X131823952Y-212524780D01*
X131823955Y-212524781D01*
X132006445Y-212622323D01*
X132166402Y-212753598D01*
X132297677Y-212913555D01*
X132395219Y-213096045D01*
X132455290Y-213294072D01*
X132475572Y-213500000D01*
X132455290Y-213705928D01*
X132395219Y-213903955D01*
X132297677Y-214086445D01*
X132166402Y-214246402D01*
X132006445Y-214377677D01*
X131823955Y-214475219D01*
X131823952Y-214475220D01*
X131823950Y-214475221D01*
X131625932Y-214535289D01*
X131625931Y-214535289D01*
X131625928Y-214535290D01*
X131471601Y-214550490D01*
X131368399Y-214550490D01*
X131214072Y-214535290D01*
X131214069Y-214535289D01*
X131214068Y-214535289D01*
X131016050Y-214475221D01*
X131016048Y-214475220D01*
X131016045Y-214475219D01*
X130833555Y-214377677D01*
X130673598Y-214246402D01*
X130542323Y-214086445D01*
X130444781Y-213903955D01*
X130384710Y-213705928D01*
X130364428Y-213500000D01*
X130384710Y-213294072D01*
X130444781Y-213096045D01*
X130542323Y-212913555D01*
X130673598Y-212753598D01*
X130833555Y-212622323D01*
X131016045Y-212524781D01*
X131016048Y-212524780D01*
X131016050Y-212524779D01*
X131214068Y-212464711D01*
X131214069Y-212464711D01*
X131214072Y-212464710D01*
X131368399Y-212449510D01*
X131471601Y-212449510D01*
X131625928Y-212464710D01*
X131625928Y-212464710D01*
G37*
G36*
X124005928Y-212464710D02*
X124005931Y-212464711D01*
X124005932Y-212464711D01*
X124203950Y-212524779D01*
X124203952Y-212524780D01*
X124203955Y-212524781D01*
X124386445Y-212622323D01*
X124546402Y-212753598D01*
X124677677Y-212913555D01*
X124775219Y-213096045D01*
X124835290Y-213294072D01*
X124855572Y-213500000D01*
X124835290Y-213705928D01*
X124775219Y-213903955D01*
X124677677Y-214086445D01*
X124546402Y-214246402D01*
X124386445Y-214377677D01*
X124203955Y-214475219D01*
X124203952Y-214475220D01*
X124203950Y-214475221D01*
X124005932Y-214535289D01*
X124005931Y-214535289D01*
X124005928Y-214535290D01*
X123851601Y-214550490D01*
X123748399Y-214550490D01*
X123594072Y-214535290D01*
X123594069Y-214535289D01*
X123594068Y-214535289D01*
X123396050Y-214475221D01*
X123396048Y-214475220D01*
X123396045Y-214475219D01*
X123213555Y-214377677D01*
X123053598Y-214246402D01*
X122922323Y-214086445D01*
X122824781Y-213903955D01*
X122764710Y-213705928D01*
X122744428Y-213500000D01*
X122764710Y-213294072D01*
X122824781Y-213096045D01*
X122922323Y-212913555D01*
X123053598Y-212753598D01*
X123213555Y-212622323D01*
X123396045Y-212524781D01*
X123396048Y-212524780D01*
X123396050Y-212524779D01*
X123594068Y-212464711D01*
X123594069Y-212464711D01*
X123594072Y-212464710D01*
X123748399Y-212449510D01*
X123851601Y-212449510D01*
X124005928Y-212464710D01*
X124005928Y-212464710D01*
G37*
G36*
X126545928Y-212464710D02*
X126545931Y-212464711D01*
X126545932Y-212464711D01*
X126743950Y-212524779D01*
X126743952Y-212524780D01*
X126743955Y-212524781D01*
X126926445Y-212622323D01*
X127086402Y-212753598D01*
X127217677Y-212913555D01*
X127315219Y-213096045D01*
X127375290Y-213294072D01*
X127395572Y-213500000D01*
X127375290Y-213705928D01*
X127315219Y-213903955D01*
X127217677Y-214086445D01*
X127086402Y-214246402D01*
X126926445Y-214377677D01*
X126743955Y-214475219D01*
X126743952Y-214475220D01*
X126743950Y-214475221D01*
X126545932Y-214535289D01*
X126545931Y-214535289D01*
X126545928Y-214535290D01*
X126391601Y-214550490D01*
X126288399Y-214550490D01*
X126134072Y-214535290D01*
X126134069Y-214535289D01*
X126134068Y-214535289D01*
X125936050Y-214475221D01*
X125936048Y-214475220D01*
X125936045Y-214475219D01*
X125753555Y-214377677D01*
X125593598Y-214246402D01*
X125462323Y-214086445D01*
X125364781Y-213903955D01*
X125304710Y-213705928D01*
X125284428Y-213500000D01*
X125304710Y-213294072D01*
X125364781Y-213096045D01*
X125462323Y-212913555D01*
X125593598Y-212753598D01*
X125753555Y-212622323D01*
X125936045Y-212524781D01*
X125936048Y-212524780D01*
X125936050Y-212524779D01*
X126134068Y-212464711D01*
X126134069Y-212464711D01*
X126134072Y-212464710D01*
X126288399Y-212449510D01*
X126391601Y-212449510D01*
X126545928Y-212464710D01*
X126545928Y-212464710D01*
G37*
G36*
X125157142Y-208028242D02*
X125305102Y-208089530D01*
X125438258Y-208178502D01*
X125551498Y-208291742D01*
X125640470Y-208424898D01*
X125701758Y-208572858D01*
X125733000Y-208729925D01*
X125733000Y-208890075D01*
X125701758Y-209047142D01*
X125640470Y-209195102D01*
X125551498Y-209328258D01*
X125438258Y-209441498D01*
X125305102Y-209530470D01*
X125157142Y-209591758D01*
X125000075Y-209623000D01*
X124839925Y-209623000D01*
X124682858Y-209591758D01*
X124534898Y-209530470D01*
X124401742Y-209441498D01*
X124288502Y-209328258D01*
X124199530Y-209195102D01*
X124138242Y-209047142D01*
X124107000Y-208890075D01*
X124107000Y-208729925D01*
X124138242Y-208572858D01*
X124199530Y-208424898D01*
X124288502Y-208291742D01*
X124401742Y-208178502D01*
X124534898Y-208089530D01*
X124682858Y-208028242D01*
X124839925Y-207997000D01*
X125000075Y-207997000D01*
X125157142Y-208028242D01*
X125157142Y-208028242D01*
G37*
G36*
X210317142Y-208028242D02*
X210465102Y-208089530D01*
X210598258Y-208178502D01*
X210711498Y-208291742D01*
X210800470Y-208424898D01*
X210861758Y-208572858D01*
X210893000Y-208729925D01*
X210893000Y-208890075D01*
X210861758Y-209047142D01*
X210800470Y-209195102D01*
X210711498Y-209328258D01*
X210598258Y-209441498D01*
X210465102Y-209530470D01*
X210317142Y-209591758D01*
X210160075Y-209623000D01*
X209999925Y-209623000D01*
X209842858Y-209591758D01*
X209694898Y-209530470D01*
X209561742Y-209441498D01*
X209448502Y-209328258D01*
X209359530Y-209195102D01*
X209298242Y-209047142D01*
X209267000Y-208890075D01*
X209267000Y-208729925D01*
X209298242Y-208572858D01*
X209359530Y-208424898D01*
X209448502Y-208291742D01*
X209561742Y-208178502D01*
X209694898Y-208089530D01*
X209842858Y-208028242D01*
X209999925Y-207997000D01*
X210160075Y-207997000D01*
X210317142Y-208028242D01*
X210317142Y-208028242D01*
G37*
G36*
X175157142Y-208028242D02*
X175305102Y-208089530D01*
X175438258Y-208178502D01*
X175551498Y-208291742D01*
X175640470Y-208424898D01*
X175701758Y-208572858D01*
X175733000Y-208729925D01*
X175733000Y-208890075D01*
X175701758Y-209047142D01*
X175640470Y-209195102D01*
X175551498Y-209328258D01*
X175438258Y-209441498D01*
X175305102Y-209530470D01*
X175157142Y-209591758D01*
X175000075Y-209623000D01*
X174839925Y-209623000D01*
X174682858Y-209591758D01*
X174534898Y-209530470D01*
X174401742Y-209441498D01*
X174288502Y-209328258D01*
X174199530Y-209195102D01*
X174138242Y-209047142D01*
X174107000Y-208890075D01*
X174107000Y-208729925D01*
X174138242Y-208572858D01*
X174199530Y-208424898D01*
X174288502Y-208291742D01*
X174401742Y-208178502D01*
X174534898Y-208089530D01*
X174682858Y-208028242D01*
X174839925Y-207997000D01*
X175000075Y-207997000D01*
X175157142Y-208028242D01*
X175157142Y-208028242D01*
G37*
G36*
X150157142Y-208028242D02*
X150305102Y-208089530D01*
X150438258Y-208178502D01*
X150551498Y-208291742D01*
X150640470Y-208424898D01*
X150701758Y-208572858D01*
X150733000Y-208729925D01*
X150733000Y-208890075D01*
X150701758Y-209047142D01*
X150640470Y-209195102D01*
X150551498Y-209328258D01*
X150438258Y-209441498D01*
X150305102Y-209530470D01*
X150157142Y-209591758D01*
X150000075Y-209623000D01*
X149839925Y-209623000D01*
X149682858Y-209591758D01*
X149534898Y-209530470D01*
X149401742Y-209441498D01*
X149288502Y-209328258D01*
X149199530Y-209195102D01*
X149138242Y-209047142D01*
X149107000Y-208890075D01*
X149107000Y-208729925D01*
X149138242Y-208572858D01*
X149199530Y-208424898D01*
X149288502Y-208291742D01*
X149401742Y-208178502D01*
X149534898Y-208089530D01*
X149682858Y-208028242D01*
X149839925Y-207997000D01*
X150000075Y-207997000D01*
X150157142Y-208028242D01*
X150157142Y-208028242D01*
G37*
G36*
X160317142Y-208028242D02*
X160465102Y-208089530D01*
X160598258Y-208178502D01*
X160711498Y-208291742D01*
X160800470Y-208424898D01*
X160861758Y-208572858D01*
X160893000Y-208729925D01*
X160893000Y-208890075D01*
X160861758Y-209047142D01*
X160800470Y-209195102D01*
X160711498Y-209328258D01*
X160598258Y-209441498D01*
X160465102Y-209530470D01*
X160317142Y-209591758D01*
X160160075Y-209623000D01*
X159999925Y-209623000D01*
X159842858Y-209591758D01*
X159694898Y-209530470D01*
X159561742Y-209441498D01*
X159448502Y-209328258D01*
X159359530Y-209195102D01*
X159298242Y-209047142D01*
X159267000Y-208890075D01*
X159267000Y-208729925D01*
X159298242Y-208572858D01*
X159359530Y-208424898D01*
X159448502Y-208291742D01*
X159561742Y-208178502D01*
X159694898Y-208089530D01*
X159842858Y-208028242D01*
X159999925Y-207997000D01*
X160160075Y-207997000D01*
X160317142Y-208028242D01*
X160317142Y-208028242D01*
G37*
G36*
X200157142Y-208028242D02*
X200305102Y-208089530D01*
X200438258Y-208178502D01*
X200551498Y-208291742D01*
X200640470Y-208424898D01*
X200701758Y-208572858D01*
X200733000Y-208729925D01*
X200733000Y-208890075D01*
X200701758Y-209047142D01*
X200640470Y-209195102D01*
X200551498Y-209328258D01*
X200438258Y-209441498D01*
X200305102Y-209530470D01*
X200157142Y-209591758D01*
X200000075Y-209623000D01*
X199839925Y-209623000D01*
X199682858Y-209591758D01*
X199534898Y-209530470D01*
X199401742Y-209441498D01*
X199288502Y-209328258D01*
X199199530Y-209195102D01*
X199138242Y-209047142D01*
X199107000Y-208890075D01*
X199107000Y-208729925D01*
X199138242Y-208572858D01*
X199199530Y-208424898D01*
X199288502Y-208291742D01*
X199401742Y-208178502D01*
X199534898Y-208089530D01*
X199682858Y-208028242D01*
X199839925Y-207997000D01*
X200000075Y-207997000D01*
X200157142Y-208028242D01*
X200157142Y-208028242D01*
G37*
G36*
X100157142Y-208028242D02*
X100305102Y-208089530D01*
X100438258Y-208178502D01*
X100551498Y-208291742D01*
X100640470Y-208424898D01*
X100701758Y-208572858D01*
X100733000Y-208729925D01*
X100733000Y-208890075D01*
X100701758Y-209047142D01*
X100640470Y-209195102D01*
X100551498Y-209328258D01*
X100438258Y-209441498D01*
X100305102Y-209530470D01*
X100157142Y-209591758D01*
X100000075Y-209623000D01*
X99839925Y-209623000D01*
X99682858Y-209591758D01*
X99534898Y-209530470D01*
X99401742Y-209441498D01*
X99288502Y-209328258D01*
X99199530Y-209195102D01*
X99138242Y-209047142D01*
X99107000Y-208890075D01*
X99107000Y-208729925D01*
X99138242Y-208572858D01*
X99199530Y-208424898D01*
X99288502Y-208291742D01*
X99401742Y-208178502D01*
X99534898Y-208089530D01*
X99682858Y-208028242D01*
X99839925Y-207997000D01*
X100000075Y-207997000D01*
X100157142Y-208028242D01*
X100157142Y-208028242D01*
G37*
G36*
X110317142Y-208028242D02*
X110465102Y-208089530D01*
X110598258Y-208178502D01*
X110711498Y-208291742D01*
X110800470Y-208424898D01*
X110861758Y-208572858D01*
X110893000Y-208729925D01*
X110893000Y-208890075D01*
X110861758Y-209047142D01*
X110800470Y-209195102D01*
X110711498Y-209328258D01*
X110598258Y-209441498D01*
X110465102Y-209530470D01*
X110317142Y-209591758D01*
X110160075Y-209623000D01*
X109999925Y-209623000D01*
X109842858Y-209591758D01*
X109694898Y-209530470D01*
X109561742Y-209441498D01*
X109448502Y-209328258D01*
X109359530Y-209195102D01*
X109298242Y-209047142D01*
X109267000Y-208890075D01*
X109267000Y-208729925D01*
X109298242Y-208572858D01*
X109359530Y-208424898D01*
X109448502Y-208291742D01*
X109561742Y-208178502D01*
X109694898Y-208089530D01*
X109842858Y-208028242D01*
X109999925Y-207997000D01*
X110160075Y-207997000D01*
X110317142Y-208028242D01*
X110317142Y-208028242D01*
G37*
G36*
X75157142Y-208028242D02*
X75305102Y-208089530D01*
X75438258Y-208178502D01*
X75551498Y-208291742D01*
X75640470Y-208424898D01*
X75701758Y-208572858D01*
X75733000Y-208729925D01*
X75733000Y-208890075D01*
X75701758Y-209047142D01*
X75640470Y-209195102D01*
X75551498Y-209328258D01*
X75438258Y-209441498D01*
X75305102Y-209530470D01*
X75157142Y-209591758D01*
X75000075Y-209623000D01*
X74839925Y-209623000D01*
X74682858Y-209591758D01*
X74534898Y-209530470D01*
X74401742Y-209441498D01*
X74288502Y-209328258D01*
X74199530Y-209195102D01*
X74138242Y-209047142D01*
X74107000Y-208890075D01*
X74107000Y-208729925D01*
X74138242Y-208572858D01*
X74199530Y-208424898D01*
X74288502Y-208291742D01*
X74401742Y-208178502D01*
X74534898Y-208089530D01*
X74682858Y-208028242D01*
X74839925Y-207997000D01*
X75000075Y-207997000D01*
X75157142Y-208028242D01*
X75157142Y-208028242D01*
G37*
G36*
X85317142Y-208028242D02*
X85465102Y-208089530D01*
X85598258Y-208178502D01*
X85711498Y-208291742D01*
X85800470Y-208424898D01*
X85861758Y-208572858D01*
X85893000Y-208729925D01*
X85893000Y-208890075D01*
X85861758Y-209047142D01*
X85800470Y-209195102D01*
X85711498Y-209328258D01*
X85598258Y-209441498D01*
X85465102Y-209530470D01*
X85317142Y-209591758D01*
X85160075Y-209623000D01*
X84999925Y-209623000D01*
X84842858Y-209591758D01*
X84694898Y-209530470D01*
X84561742Y-209441498D01*
X84448502Y-209328258D01*
X84359530Y-209195102D01*
X84298242Y-209047142D01*
X84267000Y-208890075D01*
X84267000Y-208729925D01*
X84298242Y-208572858D01*
X84359530Y-208424898D01*
X84448502Y-208291742D01*
X84561742Y-208178502D01*
X84694898Y-208089530D01*
X84842858Y-208028242D01*
X84999925Y-207997000D01*
X85160075Y-207997000D01*
X85317142Y-208028242D01*
X85317142Y-208028242D01*
G37*
G36*
X50157142Y-208028242D02*
X50305102Y-208089530D01*
X50438258Y-208178502D01*
X50551498Y-208291742D01*
X50640470Y-208424898D01*
X50701758Y-208572858D01*
X50733000Y-208729925D01*
X50733000Y-208890075D01*
X50701758Y-209047142D01*
X50640470Y-209195102D01*
X50551498Y-209328258D01*
X50438258Y-209441498D01*
X50305102Y-209530470D01*
X50157142Y-209591758D01*
X50000075Y-209623000D01*
X49839925Y-209623000D01*
X49682858Y-209591758D01*
X49534898Y-209530470D01*
X49401742Y-209441498D01*
X49288502Y-209328258D01*
X49199530Y-209195102D01*
X49138242Y-209047142D01*
X49107000Y-208890075D01*
X49107000Y-208729925D01*
X49138242Y-208572858D01*
X49199530Y-208424898D01*
X49288502Y-208291742D01*
X49401742Y-208178502D01*
X49534898Y-208089530D01*
X49682858Y-208028242D01*
X49839925Y-207997000D01*
X50000075Y-207997000D01*
X50157142Y-208028242D01*
X50157142Y-208028242D01*
G37*
G36*
X60317142Y-208028242D02*
X60465102Y-208089530D01*
X60598258Y-208178502D01*
X60711498Y-208291742D01*
X60800470Y-208424898D01*
X60861758Y-208572858D01*
X60893000Y-208729925D01*
X60893000Y-208890075D01*
X60861758Y-209047142D01*
X60800470Y-209195102D01*
X60711498Y-209328258D01*
X60598258Y-209441498D01*
X60465102Y-209530470D01*
X60317142Y-209591758D01*
X60160075Y-209623000D01*
X59999925Y-209623000D01*
X59842858Y-209591758D01*
X59694898Y-209530470D01*
X59561742Y-209441498D01*
X59448502Y-209328258D01*
X59359530Y-209195102D01*
X59298242Y-209047142D01*
X59267000Y-208890075D01*
X59267000Y-208729925D01*
X59298242Y-208572858D01*
X59359530Y-208424898D01*
X59448502Y-208291742D01*
X59561742Y-208178502D01*
X59694898Y-208089530D01*
X59842858Y-208028242D01*
X59999925Y-207997000D01*
X60160075Y-207997000D01*
X60317142Y-208028242D01*
X60317142Y-208028242D01*
G37*
G36*
X25157142Y-208028242D02*
X25305102Y-208089530D01*
X25438258Y-208178502D01*
X25551498Y-208291742D01*
X25640470Y-208424898D01*
X25701758Y-208572858D01*
X25733000Y-208729925D01*
X25733000Y-208890075D01*
X25701758Y-209047142D01*
X25640470Y-209195102D01*
X25551498Y-209328258D01*
X25438258Y-209441498D01*
X25305102Y-209530470D01*
X25157142Y-209591758D01*
X25000075Y-209623000D01*
X24839925Y-209623000D01*
X24682858Y-209591758D01*
X24534898Y-209530470D01*
X24401742Y-209441498D01*
X24288502Y-209328258D01*
X24199530Y-209195102D01*
X24138242Y-209047142D01*
X24107000Y-208890075D01*
X24107000Y-208729925D01*
X24138242Y-208572858D01*
X24199530Y-208424898D01*
X24288502Y-208291742D01*
X24401742Y-208178502D01*
X24534898Y-208089530D01*
X24682858Y-208028242D01*
X24839925Y-207997000D01*
X25000075Y-207997000D01*
X25157142Y-208028242D01*
X25157142Y-208028242D01*
G37*
G36*
X185317142Y-208028242D02*
X185465102Y-208089530D01*
X185598258Y-208178502D01*
X185711498Y-208291742D01*
X185800470Y-208424898D01*
X185861758Y-208572858D01*
X185893000Y-208729925D01*
X185893000Y-208890075D01*
X185861758Y-209047142D01*
X185800470Y-209195102D01*
X185711498Y-209328258D01*
X185598258Y-209441498D01*
X185465102Y-209530470D01*
X185317142Y-209591758D01*
X185160075Y-209623000D01*
X184999925Y-209623000D01*
X184842858Y-209591758D01*
X184694898Y-209530470D01*
X184561742Y-209441498D01*
X184448502Y-209328258D01*
X184359530Y-209195102D01*
X184298242Y-209047142D01*
X184267000Y-208890075D01*
X184267000Y-208729925D01*
X184298242Y-208572858D01*
X184359530Y-208424898D01*
X184448502Y-208291742D01*
X184561742Y-208178502D01*
X184694898Y-208089530D01*
X184842858Y-208028242D01*
X184999925Y-207997000D01*
X185160075Y-207997000D01*
X185317142Y-208028242D01*
X185317142Y-208028242D01*
G37*
G36*
X35317142Y-208028242D02*
X35465102Y-208089530D01*
X35598258Y-208178502D01*
X35711498Y-208291742D01*
X35800470Y-208424898D01*
X35861758Y-208572858D01*
X35893000Y-208729925D01*
X35893000Y-208890075D01*
X35861758Y-209047142D01*
X35800470Y-209195102D01*
X35711498Y-209328258D01*
X35598258Y-209441498D01*
X35465102Y-209530470D01*
X35317142Y-209591758D01*
X35160075Y-209623000D01*
X34999925Y-209623000D01*
X34842858Y-209591758D01*
X34694898Y-209530470D01*
X34561742Y-209441498D01*
X34448502Y-209328258D01*
X34359530Y-209195102D01*
X34298242Y-209047142D01*
X34267000Y-208890075D01*
X34267000Y-208729925D01*
X34298242Y-208572858D01*
X34359530Y-208424898D01*
X34448502Y-208291742D01*
X34561742Y-208178502D01*
X34694898Y-208089530D01*
X34842858Y-208028242D01*
X34999925Y-207997000D01*
X35160075Y-207997000D01*
X35317142Y-208028242D01*
X35317142Y-208028242D01*
G37*
G36*
X135317142Y-208028242D02*
X135465102Y-208089530D01*
X135598258Y-208178502D01*
X135711498Y-208291742D01*
X135800470Y-208424898D01*
X135861758Y-208572858D01*
X135893000Y-208729925D01*
X135893000Y-208890075D01*
X135861758Y-209047142D01*
X135800470Y-209195102D01*
X135711498Y-209328258D01*
X135598258Y-209441498D01*
X135465102Y-209530470D01*
X135317142Y-209591758D01*
X135160075Y-209623000D01*
X134999925Y-209623000D01*
X134842858Y-209591758D01*
X134694898Y-209530470D01*
X134561742Y-209441498D01*
X134448502Y-209328258D01*
X134359530Y-209195102D01*
X134298242Y-209047142D01*
X134267000Y-208890075D01*
X134267000Y-208729925D01*
X134298242Y-208572858D01*
X134359530Y-208424898D01*
X134448502Y-208291742D01*
X134561742Y-208178502D01*
X134694898Y-208089530D01*
X134842858Y-208028242D01*
X134999925Y-207997000D01*
X135160075Y-207997000D01*
X135317142Y-208028242D01*
X135317142Y-208028242D01*
G37*
G36*
X25157142Y-183028242D02*
X25305102Y-183089530D01*
X25438258Y-183178502D01*
X25551498Y-183291742D01*
X25640470Y-183424898D01*
X25701758Y-183572858D01*
X25733000Y-183729925D01*
X25733000Y-183890075D01*
X25701758Y-184047142D01*
X25640470Y-184195102D01*
X25551498Y-184328258D01*
X25438258Y-184441498D01*
X25305102Y-184530470D01*
X25157142Y-184591758D01*
X25000075Y-184623000D01*
X24839925Y-184623000D01*
X24682858Y-184591758D01*
X24534898Y-184530470D01*
X24401742Y-184441498D01*
X24288502Y-184328258D01*
X24199530Y-184195102D01*
X24138242Y-184047142D01*
X24107000Y-183890075D01*
X24107000Y-183729925D01*
X24138242Y-183572858D01*
X24199530Y-183424898D01*
X24288502Y-183291742D01*
X24401742Y-183178502D01*
X24534898Y-183089530D01*
X24682858Y-183028242D01*
X24839925Y-182997000D01*
X25000075Y-182997000D01*
X25157142Y-183028242D01*
X25157142Y-183028242D01*
G37*
G36*
X135317142Y-183028242D02*
X135465102Y-183089530D01*
X135598258Y-183178502D01*
X135711498Y-183291742D01*
X135800470Y-183424898D01*
X135861758Y-183572858D01*
X135893000Y-183729925D01*
X135893000Y-183890075D01*
X135861758Y-184047142D01*
X135800470Y-184195102D01*
X135711498Y-184328258D01*
X135598258Y-184441498D01*
X135465102Y-184530470D01*
X135317142Y-184591758D01*
X135160075Y-184623000D01*
X134999925Y-184623000D01*
X134842858Y-184591758D01*
X134694898Y-184530470D01*
X134561742Y-184441498D01*
X134448502Y-184328258D01*
X134359530Y-184195102D01*
X134298242Y-184047142D01*
X134267000Y-183890075D01*
X134267000Y-183729925D01*
X134298242Y-183572858D01*
X134359530Y-183424898D01*
X134448502Y-183291742D01*
X134561742Y-183178502D01*
X134694898Y-183089530D01*
X134842858Y-183028242D01*
X134999925Y-182997000D01*
X135160075Y-182997000D01*
X135317142Y-183028242D01*
X135317142Y-183028242D01*
G37*
G36*
X125157142Y-183028242D02*
X125305102Y-183089530D01*
X125438258Y-183178502D01*
X125551498Y-183291742D01*
X125640470Y-183424898D01*
X125701758Y-183572858D01*
X125733000Y-183729925D01*
X125733000Y-183890075D01*
X125701758Y-184047142D01*
X125640470Y-184195102D01*
X125551498Y-184328258D01*
X125438258Y-184441498D01*
X125305102Y-184530470D01*
X125157142Y-184591758D01*
X125000075Y-184623000D01*
X124839925Y-184623000D01*
X124682858Y-184591758D01*
X124534898Y-184530470D01*
X124401742Y-184441498D01*
X124288502Y-184328258D01*
X124199530Y-184195102D01*
X124138242Y-184047142D01*
X124107000Y-183890075D01*
X124107000Y-183729925D01*
X124138242Y-183572858D01*
X124199530Y-183424898D01*
X124288502Y-183291742D01*
X124401742Y-183178502D01*
X124534898Y-183089530D01*
X124682858Y-183028242D01*
X124839925Y-182997000D01*
X125000075Y-182997000D01*
X125157142Y-183028242D01*
X125157142Y-183028242D01*
G37*
G36*
X160317142Y-183028242D02*
X160465102Y-183089530D01*
X160598258Y-183178502D01*
X160711498Y-183291742D01*
X160800470Y-183424898D01*
X160861758Y-183572858D01*
X160893000Y-183729925D01*
X160893000Y-183890075D01*
X160861758Y-184047142D01*
X160800470Y-184195102D01*
X160711498Y-184328258D01*
X160598258Y-184441498D01*
X160465102Y-184530470D01*
X160317142Y-184591758D01*
X160160075Y-184623000D01*
X159999925Y-184623000D01*
X159842858Y-184591758D01*
X159694898Y-184530470D01*
X159561742Y-184441498D01*
X159448502Y-184328258D01*
X159359530Y-184195102D01*
X159298242Y-184047142D01*
X159267000Y-183890075D01*
X159267000Y-183729925D01*
X159298242Y-183572858D01*
X159359530Y-183424898D01*
X159448502Y-183291742D01*
X159561742Y-183178502D01*
X159694898Y-183089530D01*
X159842858Y-183028242D01*
X159999925Y-182997000D01*
X160160075Y-182997000D01*
X160317142Y-183028242D01*
X160317142Y-183028242D01*
G37*
G36*
X150157142Y-183028242D02*
X150305102Y-183089530D01*
X150438258Y-183178502D01*
X150551498Y-183291742D01*
X150640470Y-183424898D01*
X150701758Y-183572858D01*
X150733000Y-183729925D01*
X150733000Y-183890075D01*
X150701758Y-184047142D01*
X150640470Y-184195102D01*
X150551498Y-184328258D01*
X150438258Y-184441498D01*
X150305102Y-184530470D01*
X150157142Y-184591758D01*
X150000075Y-184623000D01*
X149839925Y-184623000D01*
X149682858Y-184591758D01*
X149534898Y-184530470D01*
X149401742Y-184441498D01*
X149288502Y-184328258D01*
X149199530Y-184195102D01*
X149138242Y-184047142D01*
X149107000Y-183890075D01*
X149107000Y-183729925D01*
X149138242Y-183572858D01*
X149199530Y-183424898D01*
X149288502Y-183291742D01*
X149401742Y-183178502D01*
X149534898Y-183089530D01*
X149682858Y-183028242D01*
X149839925Y-182997000D01*
X150000075Y-182997000D01*
X150157142Y-183028242D01*
X150157142Y-183028242D01*
G37*
G36*
X185317142Y-183028242D02*
X185465102Y-183089530D01*
X185598258Y-183178502D01*
X185711498Y-183291742D01*
X185800470Y-183424898D01*
X185861758Y-183572858D01*
X185893000Y-183729925D01*
X185893000Y-183890075D01*
X185861758Y-184047142D01*
X185800470Y-184195102D01*
X185711498Y-184328258D01*
X185598258Y-184441498D01*
X185465102Y-184530470D01*
X185317142Y-184591758D01*
X185160075Y-184623000D01*
X184999925Y-184623000D01*
X184842858Y-184591758D01*
X184694898Y-184530470D01*
X184561742Y-184441498D01*
X184448502Y-184328258D01*
X184359530Y-184195102D01*
X184298242Y-184047142D01*
X184267000Y-183890075D01*
X184267000Y-183729925D01*
X184298242Y-183572858D01*
X184359530Y-183424898D01*
X184448502Y-183291742D01*
X184561742Y-183178502D01*
X184694898Y-183089530D01*
X184842858Y-183028242D01*
X184999925Y-182997000D01*
X185160075Y-182997000D01*
X185317142Y-183028242D01*
X185317142Y-183028242D01*
G37*
G36*
X175157142Y-183028242D02*
X175305102Y-183089530D01*
X175438258Y-183178502D01*
X175551498Y-183291742D01*
X175640470Y-183424898D01*
X175701758Y-183572858D01*
X175733000Y-183729925D01*
X175733000Y-183890075D01*
X175701758Y-184047142D01*
X175640470Y-184195102D01*
X175551498Y-184328258D01*
X175438258Y-184441498D01*
X175305102Y-184530470D01*
X175157142Y-184591758D01*
X175000075Y-184623000D01*
X174839925Y-184623000D01*
X174682858Y-184591758D01*
X174534898Y-184530470D01*
X174401742Y-184441498D01*
X174288502Y-184328258D01*
X174199530Y-184195102D01*
X174138242Y-184047142D01*
X174107000Y-183890075D01*
X174107000Y-183729925D01*
X174138242Y-183572858D01*
X174199530Y-183424898D01*
X174288502Y-183291742D01*
X174401742Y-183178502D01*
X174534898Y-183089530D01*
X174682858Y-183028242D01*
X174839925Y-182997000D01*
X175000075Y-182997000D01*
X175157142Y-183028242D01*
X175157142Y-183028242D01*
G37*
G36*
X210317142Y-183028242D02*
X210465102Y-183089530D01*
X210598258Y-183178502D01*
X210711498Y-183291742D01*
X210800470Y-183424898D01*
X210861758Y-183572858D01*
X210893000Y-183729925D01*
X210893000Y-183890075D01*
X210861758Y-184047142D01*
X210800470Y-184195102D01*
X210711498Y-184328258D01*
X210598258Y-184441498D01*
X210465102Y-184530470D01*
X210317142Y-184591758D01*
X210160075Y-184623000D01*
X209999925Y-184623000D01*
X209842858Y-184591758D01*
X209694898Y-184530470D01*
X209561742Y-184441498D01*
X209448502Y-184328258D01*
X209359530Y-184195102D01*
X209298242Y-184047142D01*
X209267000Y-183890075D01*
X209267000Y-183729925D01*
X209298242Y-183572858D01*
X209359530Y-183424898D01*
X209448502Y-183291742D01*
X209561742Y-183178502D01*
X209694898Y-183089530D01*
X209842858Y-183028242D01*
X209999925Y-182997000D01*
X210160075Y-182997000D01*
X210317142Y-183028242D01*
X210317142Y-183028242D01*
G37*
G36*
X200157142Y-183028242D02*
X200305102Y-183089530D01*
X200438258Y-183178502D01*
X200551498Y-183291742D01*
X200640470Y-183424898D01*
X200701758Y-183572858D01*
X200733000Y-183729925D01*
X200733000Y-183890075D01*
X200701758Y-184047142D01*
X200640470Y-184195102D01*
X200551498Y-184328258D01*
X200438258Y-184441498D01*
X200305102Y-184530470D01*
X200157142Y-184591758D01*
X200000075Y-184623000D01*
X199839925Y-184623000D01*
X199682858Y-184591758D01*
X199534898Y-184530470D01*
X199401742Y-184441498D01*
X199288502Y-184328258D01*
X199199530Y-184195102D01*
X199138242Y-184047142D01*
X199107000Y-183890075D01*
X199107000Y-183729925D01*
X199138242Y-183572858D01*
X199199530Y-183424898D01*
X199288502Y-183291742D01*
X199401742Y-183178502D01*
X199534898Y-183089530D01*
X199682858Y-183028242D01*
X199839925Y-182997000D01*
X200000075Y-182997000D01*
X200157142Y-183028242D01*
X200157142Y-183028242D01*
G37*
G36*
X110317142Y-183028242D02*
X110465102Y-183089530D01*
X110598258Y-183178502D01*
X110711498Y-183291742D01*
X110800470Y-183424898D01*
X110861758Y-183572858D01*
X110893000Y-183729925D01*
X110893000Y-183890075D01*
X110861758Y-184047142D01*
X110800470Y-184195102D01*
X110711498Y-184328258D01*
X110598258Y-184441498D01*
X110465102Y-184530470D01*
X110317142Y-184591758D01*
X110160075Y-184623000D01*
X109999925Y-184623000D01*
X109842858Y-184591758D01*
X109694898Y-184530470D01*
X109561742Y-184441498D01*
X109448502Y-184328258D01*
X109359530Y-184195102D01*
X109298242Y-184047142D01*
X109267000Y-183890075D01*
X109267000Y-183729925D01*
X109298242Y-183572858D01*
X109359530Y-183424898D01*
X109448502Y-183291742D01*
X109561742Y-183178502D01*
X109694898Y-183089530D01*
X109842858Y-183028242D01*
X109999925Y-182997000D01*
X110160075Y-182997000D01*
X110317142Y-183028242D01*
X110317142Y-183028242D01*
G37*
G36*
X75157142Y-183028242D02*
X75305102Y-183089530D01*
X75438258Y-183178502D01*
X75551498Y-183291742D01*
X75640470Y-183424898D01*
X75701758Y-183572858D01*
X75733000Y-183729925D01*
X75733000Y-183890075D01*
X75701758Y-184047142D01*
X75640470Y-184195102D01*
X75551498Y-184328258D01*
X75438258Y-184441498D01*
X75305102Y-184530470D01*
X75157142Y-184591758D01*
X75000075Y-184623000D01*
X74839925Y-184623000D01*
X74682858Y-184591758D01*
X74534898Y-184530470D01*
X74401742Y-184441498D01*
X74288502Y-184328258D01*
X74199530Y-184195102D01*
X74138242Y-184047142D01*
X74107000Y-183890075D01*
X74107000Y-183729925D01*
X74138242Y-183572858D01*
X74199530Y-183424898D01*
X74288502Y-183291742D01*
X74401742Y-183178502D01*
X74534898Y-183089530D01*
X74682858Y-183028242D01*
X74839925Y-182997000D01*
X75000075Y-182997000D01*
X75157142Y-183028242D01*
X75157142Y-183028242D01*
G37*
G36*
X85317142Y-183028242D02*
X85465102Y-183089530D01*
X85598258Y-183178502D01*
X85711498Y-183291742D01*
X85800470Y-183424898D01*
X85861758Y-183572858D01*
X85893000Y-183729925D01*
X85893000Y-183890075D01*
X85861758Y-184047142D01*
X85800470Y-184195102D01*
X85711498Y-184328258D01*
X85598258Y-184441498D01*
X85465102Y-184530470D01*
X85317142Y-184591758D01*
X85160075Y-184623000D01*
X84999925Y-184623000D01*
X84842858Y-184591758D01*
X84694898Y-184530470D01*
X84561742Y-184441498D01*
X84448502Y-184328258D01*
X84359530Y-184195102D01*
X84298242Y-184047142D01*
X84267000Y-183890075D01*
X84267000Y-183729925D01*
X84298242Y-183572858D01*
X84359530Y-183424898D01*
X84448502Y-183291742D01*
X84561742Y-183178502D01*
X84694898Y-183089530D01*
X84842858Y-183028242D01*
X84999925Y-182997000D01*
X85160075Y-182997000D01*
X85317142Y-183028242D01*
X85317142Y-183028242D01*
G37*
G36*
X50157142Y-183028242D02*
X50305102Y-183089530D01*
X50438258Y-183178502D01*
X50551498Y-183291742D01*
X50640470Y-183424898D01*
X50701758Y-183572858D01*
X50733000Y-183729925D01*
X50733000Y-183890075D01*
X50701758Y-184047142D01*
X50640470Y-184195102D01*
X50551498Y-184328258D01*
X50438258Y-184441498D01*
X50305102Y-184530470D01*
X50157142Y-184591758D01*
X50000075Y-184623000D01*
X49839925Y-184623000D01*
X49682858Y-184591758D01*
X49534898Y-184530470D01*
X49401742Y-184441498D01*
X49288502Y-184328258D01*
X49199530Y-184195102D01*
X49138242Y-184047142D01*
X49107000Y-183890075D01*
X49107000Y-183729925D01*
X49138242Y-183572858D01*
X49199530Y-183424898D01*
X49288502Y-183291742D01*
X49401742Y-183178502D01*
X49534898Y-183089530D01*
X49682858Y-183028242D01*
X49839925Y-182997000D01*
X50000075Y-182997000D01*
X50157142Y-183028242D01*
X50157142Y-183028242D01*
G37*
G36*
X60317142Y-183028242D02*
X60465102Y-183089530D01*
X60598258Y-183178502D01*
X60711498Y-183291742D01*
X60800470Y-183424898D01*
X60861758Y-183572858D01*
X60893000Y-183729925D01*
X60893000Y-183890075D01*
X60861758Y-184047142D01*
X60800470Y-184195102D01*
X60711498Y-184328258D01*
X60598258Y-184441498D01*
X60465102Y-184530470D01*
X60317142Y-184591758D01*
X60160075Y-184623000D01*
X59999925Y-184623000D01*
X59842858Y-184591758D01*
X59694898Y-184530470D01*
X59561742Y-184441498D01*
X59448502Y-184328258D01*
X59359530Y-184195102D01*
X59298242Y-184047142D01*
X59267000Y-183890075D01*
X59267000Y-183729925D01*
X59298242Y-183572858D01*
X59359530Y-183424898D01*
X59448502Y-183291742D01*
X59561742Y-183178502D01*
X59694898Y-183089530D01*
X59842858Y-183028242D01*
X59999925Y-182997000D01*
X60160075Y-182997000D01*
X60317142Y-183028242D01*
X60317142Y-183028242D01*
G37*
G36*
X100157142Y-183028242D02*
X100305102Y-183089530D01*
X100438258Y-183178502D01*
X100551498Y-183291742D01*
X100640470Y-183424898D01*
X100701758Y-183572858D01*
X100733000Y-183729925D01*
X100733000Y-183890075D01*
X100701758Y-184047142D01*
X100640470Y-184195102D01*
X100551498Y-184328258D01*
X100438258Y-184441498D01*
X100305102Y-184530470D01*
X100157142Y-184591758D01*
X100000075Y-184623000D01*
X99839925Y-184623000D01*
X99682858Y-184591758D01*
X99534898Y-184530470D01*
X99401742Y-184441498D01*
X99288502Y-184328258D01*
X99199530Y-184195102D01*
X99138242Y-184047142D01*
X99107000Y-183890075D01*
X99107000Y-183729925D01*
X99138242Y-183572858D01*
X99199530Y-183424898D01*
X99288502Y-183291742D01*
X99401742Y-183178502D01*
X99534898Y-183089530D01*
X99682858Y-183028242D01*
X99839925Y-182997000D01*
X100000075Y-182997000D01*
X100157142Y-183028242D01*
X100157142Y-183028242D01*
G37*
G36*
X35317142Y-183028242D02*
X35465102Y-183089530D01*
X35598258Y-183178502D01*
X35711498Y-183291742D01*
X35800470Y-183424898D01*
X35861758Y-183572858D01*
X35893000Y-183729925D01*
X35893000Y-183890075D01*
X35861758Y-184047142D01*
X35800470Y-184195102D01*
X35711498Y-184328258D01*
X35598258Y-184441498D01*
X35465102Y-184530470D01*
X35317142Y-184591758D01*
X35160075Y-184623000D01*
X34999925Y-184623000D01*
X34842858Y-184591758D01*
X34694898Y-184530470D01*
X34561742Y-184441498D01*
X34448502Y-184328258D01*
X34359530Y-184195102D01*
X34298242Y-184047142D01*
X34267000Y-183890075D01*
X34267000Y-183729925D01*
X34298242Y-183572858D01*
X34359530Y-183424898D01*
X34448502Y-183291742D01*
X34561742Y-183178502D01*
X34694898Y-183089530D01*
X34842858Y-183028242D01*
X34999925Y-182997000D01*
X35160075Y-182997000D01*
X35317142Y-183028242D01*
X35317142Y-183028242D01*
G37*
G36*
X174869458Y-169448493D02*
X175003557Y-169489172D01*
X175127144Y-169555231D01*
X175235469Y-169644130D01*
X175324369Y-169752455D01*
X175390428Y-169876042D01*
X175431107Y-170010141D01*
X175441400Y-170114651D01*
X175441400Y-171505349D01*
X175431107Y-171609859D01*
X175390428Y-171743958D01*
X175324369Y-171867545D01*
X175235470Y-171975870D01*
X175127145Y-172064769D01*
X175003558Y-172130828D01*
X174869459Y-172171507D01*
X174730000Y-172185242D01*
X174590542Y-172171507D01*
X174456443Y-172130828D01*
X174332856Y-172064769D01*
X174224531Y-171975870D01*
X174135632Y-171867545D01*
X174069573Y-171743958D01*
X174028894Y-171609859D01*
X174018601Y-171505349D01*
X174018600Y-170114652D01*
X174028893Y-170010142D01*
X174069572Y-169876043D01*
X174135631Y-169752456D01*
X174224530Y-169644131D01*
X174332855Y-169555231D01*
X174456442Y-169489172D01*
X174590541Y-169448493D01*
X174730000Y-169434758D01*
X174869458Y-169448493D01*
X174869458Y-169448493D01*
G37*
G36*
X187569458Y-169448493D02*
X187703557Y-169489172D01*
X187827144Y-169555231D01*
X187935469Y-169644130D01*
X188024369Y-169752455D01*
X188090428Y-169876042D01*
X188131107Y-170010141D01*
X188141400Y-170114651D01*
X188141400Y-171505349D01*
X188131107Y-171609859D01*
X188090428Y-171743958D01*
X188024369Y-171867545D01*
X187935470Y-171975870D01*
X187827145Y-172064769D01*
X187703558Y-172130828D01*
X187569459Y-172171507D01*
X187430000Y-172185242D01*
X187290542Y-172171507D01*
X187156443Y-172130828D01*
X187032856Y-172064769D01*
X186924531Y-171975870D01*
X186835632Y-171867545D01*
X186769573Y-171743958D01*
X186728894Y-171609859D01*
X186718601Y-171505349D01*
X186718600Y-170114652D01*
X186728893Y-170010142D01*
X186769572Y-169876043D01*
X186835631Y-169752456D01*
X186924530Y-169644131D01*
X187032855Y-169555231D01*
X187156442Y-169489172D01*
X187290541Y-169448493D01*
X187430000Y-169434758D01*
X187569458Y-169448493D01*
X187569458Y-169448493D01*
G37*
G36*
X185029458Y-169448493D02*
X185163557Y-169489172D01*
X185287144Y-169555231D01*
X185395469Y-169644130D01*
X185484369Y-169752455D01*
X185550428Y-169876042D01*
X185591107Y-170010141D01*
X185601400Y-170114651D01*
X185601400Y-171505349D01*
X185591107Y-171609859D01*
X185550428Y-171743958D01*
X185484369Y-171867545D01*
X185395470Y-171975870D01*
X185287145Y-172064769D01*
X185163558Y-172130828D01*
X185029459Y-172171507D01*
X184890000Y-172185242D01*
X184750542Y-172171507D01*
X184616443Y-172130828D01*
X184492856Y-172064769D01*
X184384531Y-171975870D01*
X184295632Y-171867545D01*
X184229573Y-171743958D01*
X184188894Y-171609859D01*
X184178601Y-171505349D01*
X184178600Y-170114652D01*
X184188893Y-170010142D01*
X184229572Y-169876043D01*
X184295631Y-169752456D01*
X184384530Y-169644131D01*
X184492855Y-169555231D01*
X184616442Y-169489172D01*
X184750541Y-169448493D01*
X184890000Y-169434758D01*
X185029458Y-169448493D01*
X185029458Y-169448493D01*
G37*
G36*
X182489458Y-169448493D02*
X182623557Y-169489172D01*
X182747144Y-169555231D01*
X182855469Y-169644130D01*
X182944369Y-169752455D01*
X183010428Y-169876042D01*
X183051107Y-170010141D01*
X183061400Y-170114651D01*
X183061400Y-171505349D01*
X183051107Y-171609859D01*
X183010428Y-171743958D01*
X182944369Y-171867545D01*
X182855470Y-171975870D01*
X182747145Y-172064769D01*
X182623558Y-172130828D01*
X182489459Y-172171507D01*
X182350000Y-172185242D01*
X182210542Y-172171507D01*
X182076443Y-172130828D01*
X181952856Y-172064769D01*
X181844531Y-171975870D01*
X181755632Y-171867545D01*
X181689573Y-171743958D01*
X181648894Y-171609859D01*
X181638601Y-171505349D01*
X181638600Y-170114652D01*
X181648893Y-170010142D01*
X181689572Y-169876043D01*
X181755631Y-169752456D01*
X181844530Y-169644131D01*
X181952855Y-169555231D01*
X182076442Y-169489172D01*
X182210541Y-169448493D01*
X182350000Y-169434758D01*
X182489458Y-169448493D01*
X182489458Y-169448493D01*
G37*
G36*
X172329458Y-169448493D02*
X172463557Y-169489172D01*
X172587144Y-169555231D01*
X172695469Y-169644130D01*
X172784369Y-169752455D01*
X172850428Y-169876042D01*
X172891107Y-170010141D01*
X172901400Y-170114651D01*
X172901400Y-171505349D01*
X172891107Y-171609859D01*
X172850428Y-171743958D01*
X172784369Y-171867545D01*
X172695470Y-171975870D01*
X172587145Y-172064769D01*
X172463558Y-172130828D01*
X172329459Y-172171507D01*
X172190000Y-172185242D01*
X172050542Y-172171507D01*
X171916443Y-172130828D01*
X171792856Y-172064769D01*
X171684531Y-171975870D01*
X171595632Y-171867545D01*
X171529573Y-171743958D01*
X171488894Y-171609859D01*
X171478601Y-171505349D01*
X171478600Y-170114652D01*
X171488893Y-170010142D01*
X171529572Y-169876043D01*
X171595631Y-169752456D01*
X171684530Y-169644131D01*
X171792855Y-169555231D01*
X171916442Y-169489172D01*
X172050541Y-169448493D01*
X172190000Y-169434758D01*
X172329458Y-169448493D01*
X172329458Y-169448493D01*
G37*
G36*
X169789458Y-169448493D02*
X169923557Y-169489172D01*
X170047144Y-169555231D01*
X170155469Y-169644130D01*
X170244369Y-169752455D01*
X170310428Y-169876042D01*
X170351107Y-170010141D01*
X170361400Y-170114651D01*
X170361400Y-171505349D01*
X170351107Y-171609859D01*
X170310428Y-171743958D01*
X170244369Y-171867545D01*
X170155470Y-171975870D01*
X170047145Y-172064769D01*
X169923558Y-172130828D01*
X169789459Y-172171507D01*
X169650000Y-172185242D01*
X169510542Y-172171507D01*
X169376443Y-172130828D01*
X169252856Y-172064769D01*
X169144531Y-171975870D01*
X169055632Y-171867545D01*
X168989573Y-171743958D01*
X168948894Y-171609859D01*
X168938601Y-171505349D01*
X168938600Y-170114652D01*
X168948893Y-170010142D01*
X168989572Y-169876043D01*
X169055631Y-169752456D01*
X169144530Y-169644131D01*
X169252855Y-169555231D01*
X169376442Y-169489172D01*
X169510541Y-169448493D01*
X169650000Y-169434758D01*
X169789458Y-169448493D01*
X169789458Y-169448493D01*
G37*
G36*
X179949458Y-169448493D02*
X180083557Y-169489172D01*
X180207144Y-169555231D01*
X180315469Y-169644130D01*
X180404369Y-169752455D01*
X180470428Y-169876042D01*
X180511107Y-170010141D01*
X180521400Y-170114651D01*
X180521400Y-171505349D01*
X180511107Y-171609859D01*
X180470428Y-171743958D01*
X180404369Y-171867545D01*
X180315470Y-171975870D01*
X180207145Y-172064769D01*
X180083558Y-172130828D01*
X179949459Y-172171507D01*
X179810000Y-172185242D01*
X179670542Y-172171507D01*
X179536443Y-172130828D01*
X179412856Y-172064769D01*
X179304531Y-171975870D01*
X179215632Y-171867545D01*
X179149573Y-171743958D01*
X179108894Y-171609859D01*
X179098601Y-171505349D01*
X179098600Y-170114652D01*
X179108893Y-170010142D01*
X179149572Y-169876043D01*
X179215631Y-169752456D01*
X179304530Y-169644131D01*
X179412855Y-169555231D01*
X179536442Y-169489172D01*
X179670541Y-169448493D01*
X179810000Y-169434758D01*
X179949458Y-169448493D01*
X179949458Y-169448493D01*
G37*
G36*
X177409458Y-169448493D02*
X177543557Y-169489172D01*
X177667144Y-169555231D01*
X177775469Y-169644130D01*
X177864369Y-169752455D01*
X177930428Y-169876042D01*
X177971107Y-170010141D01*
X177981400Y-170114651D01*
X177981400Y-171505349D01*
X177971107Y-171609859D01*
X177930428Y-171743958D01*
X177864369Y-171867545D01*
X177775470Y-171975870D01*
X177667145Y-172064769D01*
X177543558Y-172130828D01*
X177409459Y-172171507D01*
X177270000Y-172185242D01*
X177130542Y-172171507D01*
X176996443Y-172130828D01*
X176872856Y-172064769D01*
X176764531Y-171975870D01*
X176675632Y-171867545D01*
X176609573Y-171743958D01*
X176568894Y-171609859D01*
X176558601Y-171505349D01*
X176558600Y-170114652D01*
X176568893Y-170010142D01*
X176609572Y-169876043D01*
X176675631Y-169752456D01*
X176764530Y-169644131D01*
X176872855Y-169555231D01*
X176996442Y-169489172D01*
X177130541Y-169448493D01*
X177270000Y-169434758D01*
X177409458Y-169448493D01*
X177409458Y-169448493D01*
G37*
G36*
X164709458Y-169448493D02*
X164843557Y-169489172D01*
X164967144Y-169555231D01*
X165075469Y-169644130D01*
X165164369Y-169752455D01*
X165230428Y-169876042D01*
X165271107Y-170010141D01*
X165281400Y-170114651D01*
X165281400Y-171505349D01*
X165271107Y-171609859D01*
X165230428Y-171743958D01*
X165164369Y-171867545D01*
X165075470Y-171975870D01*
X164967145Y-172064769D01*
X164843558Y-172130828D01*
X164709459Y-172171507D01*
X164570000Y-172185242D01*
X164430542Y-172171507D01*
X164296443Y-172130828D01*
X164172856Y-172064769D01*
X164064531Y-171975870D01*
X163975632Y-171867545D01*
X163909573Y-171743958D01*
X163868894Y-171609859D01*
X163858601Y-171505349D01*
X163858600Y-170114652D01*
X163868893Y-170010142D01*
X163909572Y-169876043D01*
X163975631Y-169752456D01*
X164064530Y-169644131D01*
X164172855Y-169555231D01*
X164296442Y-169489172D01*
X164430541Y-169448493D01*
X164570000Y-169434758D01*
X164709458Y-169448493D01*
X164709458Y-169448493D01*
G37*
G36*
X190109458Y-169448493D02*
X190243557Y-169489172D01*
X190367144Y-169555231D01*
X190475469Y-169644130D01*
X190564369Y-169752455D01*
X190630428Y-169876042D01*
X190671107Y-170010141D01*
X190681400Y-170114651D01*
X190681400Y-171505349D01*
X190671107Y-171609859D01*
X190630428Y-171743958D01*
X190564369Y-171867545D01*
X190475470Y-171975870D01*
X190367145Y-172064769D01*
X190243558Y-172130828D01*
X190109459Y-172171507D01*
X189970000Y-172185242D01*
X189830542Y-172171507D01*
X189696443Y-172130828D01*
X189572856Y-172064769D01*
X189464531Y-171975870D01*
X189375632Y-171867545D01*
X189309573Y-171743958D01*
X189268894Y-171609859D01*
X189258601Y-171505349D01*
X189258600Y-170114652D01*
X189268893Y-170010142D01*
X189309572Y-169876043D01*
X189375631Y-169752456D01*
X189464530Y-169644131D01*
X189572855Y-169555231D01*
X189696442Y-169489172D01*
X189830541Y-169448493D01*
X189970000Y-169434758D01*
X190109458Y-169448493D01*
X190109458Y-169448493D01*
G37*
G36*
X162169458Y-169448493D02*
X162303557Y-169489172D01*
X162427144Y-169555231D01*
X162535469Y-169644130D01*
X162624369Y-169752455D01*
X162690428Y-169876042D01*
X162731107Y-170010141D01*
X162741400Y-170114651D01*
X162741400Y-171505349D01*
X162731107Y-171609859D01*
X162690428Y-171743958D01*
X162624369Y-171867545D01*
X162535470Y-171975870D01*
X162427145Y-172064769D01*
X162303558Y-172130828D01*
X162169459Y-172171507D01*
X162030000Y-172185242D01*
X161890542Y-172171507D01*
X161756443Y-172130828D01*
X161632856Y-172064769D01*
X161524531Y-171975870D01*
X161435632Y-171867545D01*
X161369573Y-171743958D01*
X161328894Y-171609859D01*
X161318601Y-171505349D01*
X161318600Y-170114652D01*
X161328893Y-170010142D01*
X161369572Y-169876043D01*
X161435631Y-169752456D01*
X161524530Y-169644131D01*
X161632855Y-169555231D01*
X161756442Y-169489172D01*
X161890541Y-169448493D01*
X162030000Y-169434758D01*
X162169458Y-169448493D01*
X162169458Y-169448493D01*
G37*
G36*
X167249458Y-169448493D02*
X167383557Y-169489172D01*
X167507144Y-169555231D01*
X167615469Y-169644130D01*
X167704369Y-169752455D01*
X167770428Y-169876042D01*
X167811107Y-170010141D01*
X167821400Y-170114651D01*
X167821400Y-171505349D01*
X167811107Y-171609859D01*
X167770428Y-171743958D01*
X167704369Y-171867545D01*
X167615470Y-171975870D01*
X167507145Y-172064769D01*
X167383558Y-172130828D01*
X167249459Y-172171507D01*
X167110000Y-172185242D01*
X166970542Y-172171507D01*
X166836443Y-172130828D01*
X166712856Y-172064769D01*
X166604531Y-171975870D01*
X166515632Y-171867545D01*
X166449573Y-171743958D01*
X166408894Y-171609859D01*
X166398601Y-171505349D01*
X166398600Y-170114652D01*
X166408893Y-170010142D01*
X166449572Y-169876043D01*
X166515631Y-169752456D01*
X166604530Y-169644131D01*
X166712855Y-169555231D01*
X166836442Y-169489172D01*
X166970541Y-169448493D01*
X167110000Y-169434758D01*
X167249458Y-169448493D01*
X167249458Y-169448493D01*
G37*
G36*
X169789458Y-161828493D02*
X169923557Y-161869172D01*
X170047144Y-161935231D01*
X170155469Y-162024130D01*
X170244369Y-162132455D01*
X170310428Y-162256042D01*
X170351107Y-162390141D01*
X170361400Y-162494651D01*
X170361400Y-163885349D01*
X170351107Y-163989859D01*
X170310428Y-164123958D01*
X170244369Y-164247545D01*
X170155470Y-164355870D01*
X170047145Y-164444769D01*
X169923558Y-164510828D01*
X169789459Y-164551507D01*
X169650000Y-164565242D01*
X169510542Y-164551507D01*
X169376443Y-164510828D01*
X169252856Y-164444769D01*
X169144531Y-164355870D01*
X169055632Y-164247545D01*
X168989573Y-164123958D01*
X168948894Y-163989859D01*
X168938601Y-163885349D01*
X168938600Y-162494652D01*
X168948893Y-162390142D01*
X168989572Y-162256043D01*
X169055631Y-162132456D01*
X169144530Y-162024131D01*
X169252855Y-161935231D01*
X169376442Y-161869172D01*
X169510541Y-161828493D01*
X169650000Y-161814758D01*
X169789458Y-161828493D01*
X169789458Y-161828493D01*
G37*
G36*
X182489458Y-161828493D02*
X182623557Y-161869172D01*
X182747144Y-161935231D01*
X182855469Y-162024130D01*
X182944369Y-162132455D01*
X183010428Y-162256042D01*
X183051107Y-162390141D01*
X183061400Y-162494651D01*
X183061400Y-163885349D01*
X183051107Y-163989859D01*
X183010428Y-164123958D01*
X182944369Y-164247545D01*
X182855470Y-164355870D01*
X182747145Y-164444769D01*
X182623558Y-164510828D01*
X182489459Y-164551507D01*
X182350000Y-164565242D01*
X182210542Y-164551507D01*
X182076443Y-164510828D01*
X181952856Y-164444769D01*
X181844531Y-164355870D01*
X181755632Y-164247545D01*
X181689573Y-164123958D01*
X181648894Y-163989859D01*
X181638601Y-163885349D01*
X181638600Y-162494652D01*
X181648893Y-162390142D01*
X181689572Y-162256043D01*
X181755631Y-162132456D01*
X181844530Y-162024131D01*
X181952855Y-161935231D01*
X182076442Y-161869172D01*
X182210541Y-161828493D01*
X182350000Y-161814758D01*
X182489458Y-161828493D01*
X182489458Y-161828493D01*
G37*
G36*
X179949458Y-161828493D02*
X180083557Y-161869172D01*
X180207144Y-161935231D01*
X180315469Y-162024130D01*
X180404369Y-162132455D01*
X180470428Y-162256042D01*
X180511107Y-162390141D01*
X180521400Y-162494651D01*
X180521400Y-163885349D01*
X180511107Y-163989859D01*
X180470428Y-164123958D01*
X180404369Y-164247545D01*
X180315470Y-164355870D01*
X180207145Y-164444769D01*
X180083558Y-164510828D01*
X179949459Y-164551507D01*
X179810000Y-164565242D01*
X179670542Y-164551507D01*
X179536443Y-164510828D01*
X179412856Y-164444769D01*
X179304531Y-164355870D01*
X179215632Y-164247545D01*
X179149573Y-164123958D01*
X179108894Y-163989859D01*
X179098601Y-163885349D01*
X179098600Y-162494652D01*
X179108893Y-162390142D01*
X179149572Y-162256043D01*
X179215631Y-162132456D01*
X179304530Y-162024131D01*
X179412855Y-161935231D01*
X179536442Y-161869172D01*
X179670541Y-161828493D01*
X179810000Y-161814758D01*
X179949458Y-161828493D01*
X179949458Y-161828493D01*
G37*
G36*
X174869458Y-161828493D02*
X175003557Y-161869172D01*
X175127144Y-161935231D01*
X175235469Y-162024130D01*
X175324369Y-162132455D01*
X175390428Y-162256042D01*
X175431107Y-162390141D01*
X175441400Y-162494651D01*
X175441400Y-163885349D01*
X175431107Y-163989859D01*
X175390428Y-164123958D01*
X175324369Y-164247545D01*
X175235470Y-164355870D01*
X175127145Y-164444769D01*
X175003558Y-164510828D01*
X174869459Y-164551507D01*
X174730000Y-164565242D01*
X174590542Y-164551507D01*
X174456443Y-164510828D01*
X174332856Y-164444769D01*
X174224531Y-164355870D01*
X174135632Y-164247545D01*
X174069573Y-164123958D01*
X174028894Y-163989859D01*
X174018601Y-163885349D01*
X174018600Y-162494652D01*
X174028893Y-162390142D01*
X174069572Y-162256043D01*
X174135631Y-162132456D01*
X174224530Y-162024131D01*
X174332855Y-161935231D01*
X174456442Y-161869172D01*
X174590541Y-161828493D01*
X174730000Y-161814758D01*
X174869458Y-161828493D01*
X174869458Y-161828493D01*
G37*
G36*
X172329458Y-161828493D02*
X172463557Y-161869172D01*
X172587144Y-161935231D01*
X172695469Y-162024130D01*
X172784369Y-162132455D01*
X172850428Y-162256042D01*
X172891107Y-162390141D01*
X172901400Y-162494651D01*
X172901400Y-163885349D01*
X172891107Y-163989859D01*
X172850428Y-164123958D01*
X172784369Y-164247545D01*
X172695470Y-164355870D01*
X172587145Y-164444769D01*
X172463558Y-164510828D01*
X172329459Y-164551507D01*
X172190000Y-164565242D01*
X172050542Y-164551507D01*
X171916443Y-164510828D01*
X171792856Y-164444769D01*
X171684531Y-164355870D01*
X171595632Y-164247545D01*
X171529573Y-164123958D01*
X171488894Y-163989859D01*
X171478601Y-163885349D01*
X171478600Y-162494652D01*
X171488893Y-162390142D01*
X171529572Y-162256043D01*
X171595631Y-162132456D01*
X171684530Y-162024131D01*
X171792855Y-161935231D01*
X171916442Y-161869172D01*
X172050541Y-161828493D01*
X172190000Y-161814758D01*
X172329458Y-161828493D01*
X172329458Y-161828493D01*
G37*
G36*
X167249458Y-161828493D02*
X167383557Y-161869172D01*
X167507144Y-161935231D01*
X167615469Y-162024130D01*
X167704369Y-162132455D01*
X167770428Y-162256042D01*
X167811107Y-162390141D01*
X167821400Y-162494651D01*
X167821400Y-163885349D01*
X167811107Y-163989859D01*
X167770428Y-164123958D01*
X167704369Y-164247545D01*
X167615470Y-164355870D01*
X167507145Y-164444769D01*
X167383558Y-164510828D01*
X167249459Y-164551507D01*
X167110000Y-164565242D01*
X166970542Y-164551507D01*
X166836443Y-164510828D01*
X166712856Y-164444769D01*
X166604531Y-164355870D01*
X166515632Y-164247545D01*
X166449573Y-164123958D01*
X166408894Y-163989859D01*
X166398601Y-163885349D01*
X166398600Y-162494652D01*
X166408893Y-162390142D01*
X166449572Y-162256043D01*
X166515631Y-162132456D01*
X166604530Y-162024131D01*
X166712855Y-161935231D01*
X166836442Y-161869172D01*
X166970541Y-161828493D01*
X167110000Y-161814758D01*
X167249458Y-161828493D01*
X167249458Y-161828493D01*
G37*
G36*
X185029458Y-161828493D02*
X185163557Y-161869172D01*
X185287144Y-161935231D01*
X185395469Y-162024130D01*
X185484369Y-162132455D01*
X185550428Y-162256042D01*
X185591107Y-162390141D01*
X185601400Y-162494651D01*
X185601400Y-163885349D01*
X185591107Y-163989859D01*
X185550428Y-164123958D01*
X185484369Y-164247545D01*
X185395470Y-164355870D01*
X185287145Y-164444769D01*
X185163558Y-164510828D01*
X185029459Y-164551507D01*
X184890000Y-164565242D01*
X184750542Y-164551507D01*
X184616443Y-164510828D01*
X184492856Y-164444769D01*
X184384531Y-164355870D01*
X184295632Y-164247545D01*
X184229573Y-164123958D01*
X184188894Y-163989859D01*
X184178601Y-163885349D01*
X184178600Y-162494652D01*
X184188893Y-162390142D01*
X184229572Y-162256043D01*
X184295631Y-162132456D01*
X184384530Y-162024131D01*
X184492855Y-161935231D01*
X184616442Y-161869172D01*
X184750541Y-161828493D01*
X184890000Y-161814758D01*
X185029458Y-161828493D01*
X185029458Y-161828493D01*
G37*
G36*
X187569458Y-161828493D02*
X187703557Y-161869172D01*
X187827144Y-161935231D01*
X187935469Y-162024130D01*
X188024369Y-162132455D01*
X188090428Y-162256042D01*
X188131107Y-162390141D01*
X188141400Y-162494651D01*
X188141400Y-163885349D01*
X188131107Y-163989859D01*
X188090428Y-164123958D01*
X188024369Y-164247545D01*
X187935470Y-164355870D01*
X187827145Y-164444769D01*
X187703558Y-164510828D01*
X187569459Y-164551507D01*
X187430000Y-164565242D01*
X187290542Y-164551507D01*
X187156443Y-164510828D01*
X187032856Y-164444769D01*
X186924531Y-164355870D01*
X186835632Y-164247545D01*
X186769573Y-164123958D01*
X186728894Y-163989859D01*
X186718601Y-163885349D01*
X186718600Y-162494652D01*
X186728893Y-162390142D01*
X186769572Y-162256043D01*
X186835631Y-162132456D01*
X186924530Y-162024131D01*
X187032855Y-161935231D01*
X187156442Y-161869172D01*
X187290541Y-161828493D01*
X187430000Y-161814758D01*
X187569458Y-161828493D01*
X187569458Y-161828493D01*
G37*
G36*
X190109458Y-161828493D02*
X190243557Y-161869172D01*
X190367144Y-161935231D01*
X190475469Y-162024130D01*
X190564369Y-162132455D01*
X190630428Y-162256042D01*
X190671107Y-162390141D01*
X190681400Y-162494651D01*
X190681400Y-163885349D01*
X190671107Y-163989859D01*
X190630428Y-164123958D01*
X190564369Y-164247545D01*
X190475470Y-164355870D01*
X190367145Y-164444769D01*
X190243558Y-164510828D01*
X190109459Y-164551507D01*
X189970000Y-164565242D01*
X189830542Y-164551507D01*
X189696443Y-164510828D01*
X189572856Y-164444769D01*
X189464531Y-164355870D01*
X189375632Y-164247545D01*
X189309573Y-164123958D01*
X189268894Y-163989859D01*
X189258601Y-163885349D01*
X189258600Y-162494652D01*
X189268893Y-162390142D01*
X189309572Y-162256043D01*
X189375631Y-162132456D01*
X189464530Y-162024131D01*
X189572855Y-161935231D01*
X189696442Y-161869172D01*
X189830541Y-161828493D01*
X189970000Y-161814758D01*
X190109458Y-161828493D01*
X190109458Y-161828493D01*
G37*
G36*
X162169458Y-161828493D02*
X162303557Y-161869172D01*
X162427144Y-161935231D01*
X162535469Y-162024130D01*
X162624369Y-162132455D01*
X162690428Y-162256042D01*
X162731107Y-162390141D01*
X162741400Y-162494651D01*
X162741400Y-163885349D01*
X162731107Y-163989859D01*
X162690428Y-164123958D01*
X162624369Y-164247545D01*
X162535470Y-164355870D01*
X162427145Y-164444769D01*
X162303558Y-164510828D01*
X162169459Y-164551507D01*
X162030000Y-164565242D01*
X161890542Y-164551507D01*
X161756443Y-164510828D01*
X161632856Y-164444769D01*
X161524531Y-164355870D01*
X161435632Y-164247545D01*
X161369573Y-164123958D01*
X161328894Y-163989859D01*
X161318601Y-163885349D01*
X161318600Y-162494652D01*
X161328893Y-162390142D01*
X161369572Y-162256043D01*
X161435631Y-162132456D01*
X161524530Y-162024131D01*
X161632855Y-161935231D01*
X161756442Y-161869172D01*
X161890541Y-161828493D01*
X162030000Y-161814758D01*
X162169458Y-161828493D01*
X162169458Y-161828493D01*
G37*
G36*
X177409458Y-161828493D02*
X177543557Y-161869172D01*
X177667144Y-161935231D01*
X177775469Y-162024130D01*
X177864369Y-162132455D01*
X177930428Y-162256042D01*
X177971107Y-162390141D01*
X177981400Y-162494651D01*
X177981400Y-163885349D01*
X177971107Y-163989859D01*
X177930428Y-164123958D01*
X177864369Y-164247545D01*
X177775470Y-164355870D01*
X177667145Y-164444769D01*
X177543558Y-164510828D01*
X177409459Y-164551507D01*
X177270000Y-164565242D01*
X177130542Y-164551507D01*
X176996443Y-164510828D01*
X176872856Y-164444769D01*
X176764531Y-164355870D01*
X176675632Y-164247545D01*
X176609573Y-164123958D01*
X176568894Y-163989859D01*
X176558601Y-163885349D01*
X176558600Y-162494652D01*
X176568893Y-162390142D01*
X176609572Y-162256043D01*
X176675631Y-162132456D01*
X176764530Y-162024131D01*
X176872855Y-161935231D01*
X176996442Y-161869172D01*
X177130541Y-161828493D01*
X177270000Y-161814758D01*
X177409458Y-161828493D01*
X177409458Y-161828493D01*
G37*
G36*
X164709458Y-161828493D02*
X164843557Y-161869172D01*
X164967144Y-161935231D01*
X165075469Y-162024130D01*
X165164369Y-162132455D01*
X165230428Y-162256042D01*
X165271107Y-162390141D01*
X165281400Y-162494651D01*
X165281400Y-163885349D01*
X165271107Y-163989859D01*
X165230428Y-164123958D01*
X165164369Y-164247545D01*
X165075470Y-164355870D01*
X164967145Y-164444769D01*
X164843558Y-164510828D01*
X164709459Y-164551507D01*
X164570000Y-164565242D01*
X164430542Y-164551507D01*
X164296443Y-164510828D01*
X164172856Y-164444769D01*
X164064531Y-164355870D01*
X163975632Y-164247545D01*
X163909573Y-164123958D01*
X163868894Y-163989859D01*
X163858601Y-163885349D01*
X163858600Y-162494652D01*
X163868893Y-162390142D01*
X163909572Y-162256043D01*
X163975631Y-162132456D01*
X164064530Y-162024131D01*
X164172855Y-161935231D01*
X164296442Y-161869172D01*
X164430541Y-161828493D01*
X164570000Y-161814758D01*
X164709458Y-161828493D01*
X164709458Y-161828493D01*
G37*
G36*
X210317142Y-158028242D02*
X210465102Y-158089530D01*
X210598258Y-158178502D01*
X210711498Y-158291742D01*
X210800470Y-158424898D01*
X210861758Y-158572858D01*
X210893000Y-158729925D01*
X210893000Y-158890075D01*
X210861758Y-159047142D01*
X210800470Y-159195102D01*
X210711498Y-159328258D01*
X210598258Y-159441498D01*
X210465102Y-159530470D01*
X210317142Y-159591758D01*
X210160075Y-159623000D01*
X209999925Y-159623000D01*
X209842858Y-159591758D01*
X209694898Y-159530470D01*
X209561742Y-159441498D01*
X209448502Y-159328258D01*
X209359530Y-159195102D01*
X209298242Y-159047142D01*
X209267000Y-158890075D01*
X209267000Y-158729925D01*
X209298242Y-158572858D01*
X209359530Y-158424898D01*
X209448502Y-158291742D01*
X209561742Y-158178502D01*
X209694898Y-158089530D01*
X209842858Y-158028242D01*
X209999925Y-157997000D01*
X210160075Y-157997000D01*
X210317142Y-158028242D01*
X210317142Y-158028242D01*
G37*
G36*
X110317142Y-158028242D02*
X110465102Y-158089530D01*
X110598258Y-158178502D01*
X110711498Y-158291742D01*
X110800470Y-158424898D01*
X110861758Y-158572858D01*
X110893000Y-158729925D01*
X110893000Y-158890075D01*
X110861758Y-159047142D01*
X110800470Y-159195102D01*
X110711498Y-159328258D01*
X110598258Y-159441498D01*
X110465102Y-159530470D01*
X110317142Y-159591758D01*
X110160075Y-159623000D01*
X109999925Y-159623000D01*
X109842858Y-159591758D01*
X109694898Y-159530470D01*
X109561742Y-159441498D01*
X109448502Y-159328258D01*
X109359530Y-159195102D01*
X109298242Y-159047142D01*
X109267000Y-158890075D01*
X109267000Y-158729925D01*
X109298242Y-158572858D01*
X109359530Y-158424898D01*
X109448502Y-158291742D01*
X109561742Y-158178502D01*
X109694898Y-158089530D01*
X109842858Y-158028242D01*
X109999925Y-157997000D01*
X110160075Y-157997000D01*
X110317142Y-158028242D01*
X110317142Y-158028242D01*
G37*
G36*
X135317142Y-158028242D02*
X135465102Y-158089530D01*
X135598258Y-158178502D01*
X135711498Y-158291742D01*
X135800470Y-158424898D01*
X135861758Y-158572858D01*
X135893000Y-158729925D01*
X135893000Y-158890075D01*
X135861758Y-159047142D01*
X135800470Y-159195102D01*
X135711498Y-159328258D01*
X135598258Y-159441498D01*
X135465102Y-159530470D01*
X135317142Y-159591758D01*
X135160075Y-159623000D01*
X134999925Y-159623000D01*
X134842858Y-159591758D01*
X134694898Y-159530470D01*
X134561742Y-159441498D01*
X134448502Y-159328258D01*
X134359530Y-159195102D01*
X134298242Y-159047142D01*
X134267000Y-158890075D01*
X134267000Y-158729925D01*
X134298242Y-158572858D01*
X134359530Y-158424898D01*
X134448502Y-158291742D01*
X134561742Y-158178502D01*
X134694898Y-158089530D01*
X134842858Y-158028242D01*
X134999925Y-157997000D01*
X135160075Y-157997000D01*
X135317142Y-158028242D01*
X135317142Y-158028242D01*
G37*
G36*
X125157142Y-158028242D02*
X125305102Y-158089530D01*
X125438258Y-158178502D01*
X125551498Y-158291742D01*
X125640470Y-158424898D01*
X125701758Y-158572858D01*
X125733000Y-158729925D01*
X125733000Y-158890075D01*
X125701758Y-159047142D01*
X125640470Y-159195102D01*
X125551498Y-159328258D01*
X125438258Y-159441498D01*
X125305102Y-159530470D01*
X125157142Y-159591758D01*
X125000075Y-159623000D01*
X124839925Y-159623000D01*
X124682858Y-159591758D01*
X124534898Y-159530470D01*
X124401742Y-159441498D01*
X124288502Y-159328258D01*
X124199530Y-159195102D01*
X124138242Y-159047142D01*
X124107000Y-158890075D01*
X124107000Y-158729925D01*
X124138242Y-158572858D01*
X124199530Y-158424898D01*
X124288502Y-158291742D01*
X124401742Y-158178502D01*
X124534898Y-158089530D01*
X124682858Y-158028242D01*
X124839925Y-157997000D01*
X125000075Y-157997000D01*
X125157142Y-158028242D01*
X125157142Y-158028242D01*
G37*
G36*
X160317142Y-158028242D02*
X160465102Y-158089530D01*
X160598258Y-158178502D01*
X160711498Y-158291742D01*
X160800470Y-158424898D01*
X160861758Y-158572858D01*
X160893000Y-158729925D01*
X160893000Y-158890075D01*
X160861758Y-159047142D01*
X160800470Y-159195102D01*
X160711498Y-159328258D01*
X160598258Y-159441498D01*
X160465102Y-159530470D01*
X160317142Y-159591758D01*
X160160075Y-159623000D01*
X159999925Y-159623000D01*
X159842858Y-159591758D01*
X159694898Y-159530470D01*
X159561742Y-159441498D01*
X159448502Y-159328258D01*
X159359530Y-159195102D01*
X159298242Y-159047142D01*
X159267000Y-158890075D01*
X159267000Y-158729925D01*
X159298242Y-158572858D01*
X159359530Y-158424898D01*
X159448502Y-158291742D01*
X159561742Y-158178502D01*
X159694898Y-158089530D01*
X159842858Y-158028242D01*
X159999925Y-157997000D01*
X160160075Y-157997000D01*
X160317142Y-158028242D01*
X160317142Y-158028242D01*
G37*
G36*
X150157142Y-158028242D02*
X150305102Y-158089530D01*
X150438258Y-158178502D01*
X150551498Y-158291742D01*
X150640470Y-158424898D01*
X150701758Y-158572858D01*
X150733000Y-158729925D01*
X150733000Y-158890075D01*
X150701758Y-159047142D01*
X150640470Y-159195102D01*
X150551498Y-159328258D01*
X150438258Y-159441498D01*
X150305102Y-159530470D01*
X150157142Y-159591758D01*
X150000075Y-159623000D01*
X149839925Y-159623000D01*
X149682858Y-159591758D01*
X149534898Y-159530470D01*
X149401742Y-159441498D01*
X149288502Y-159328258D01*
X149199530Y-159195102D01*
X149138242Y-159047142D01*
X149107000Y-158890075D01*
X149107000Y-158729925D01*
X149138242Y-158572858D01*
X149199530Y-158424898D01*
X149288502Y-158291742D01*
X149401742Y-158178502D01*
X149534898Y-158089530D01*
X149682858Y-158028242D01*
X149839925Y-157997000D01*
X150000075Y-157997000D01*
X150157142Y-158028242D01*
X150157142Y-158028242D01*
G37*
G36*
X185317142Y-158028242D02*
X185465102Y-158089530D01*
X185598258Y-158178502D01*
X185711498Y-158291742D01*
X185800470Y-158424898D01*
X185861758Y-158572858D01*
X185893000Y-158729925D01*
X185893000Y-158890075D01*
X185861758Y-159047142D01*
X185800470Y-159195102D01*
X185711498Y-159328258D01*
X185598258Y-159441498D01*
X185465102Y-159530470D01*
X185317142Y-159591758D01*
X185160075Y-159623000D01*
X184999925Y-159623000D01*
X184842858Y-159591758D01*
X184694898Y-159530470D01*
X184561742Y-159441498D01*
X184448502Y-159328258D01*
X184359530Y-159195102D01*
X184298242Y-159047142D01*
X184267000Y-158890075D01*
X184267000Y-158729925D01*
X184298242Y-158572858D01*
X184359530Y-158424898D01*
X184448502Y-158291742D01*
X184561742Y-158178502D01*
X184694898Y-158089530D01*
X184842858Y-158028242D01*
X184999925Y-157997000D01*
X185160075Y-157997000D01*
X185317142Y-158028242D01*
X185317142Y-158028242D01*
G37*
G36*
X175157142Y-158028242D02*
X175305102Y-158089530D01*
X175438258Y-158178502D01*
X175551498Y-158291742D01*
X175640470Y-158424898D01*
X175701758Y-158572858D01*
X175733000Y-158729925D01*
X175733000Y-158890075D01*
X175701758Y-159047142D01*
X175640470Y-159195102D01*
X175551498Y-159328258D01*
X175438258Y-159441498D01*
X175305102Y-159530470D01*
X175157142Y-159591758D01*
X175000075Y-159623000D01*
X174839925Y-159623000D01*
X174682858Y-159591758D01*
X174534898Y-159530470D01*
X174401742Y-159441498D01*
X174288502Y-159328258D01*
X174199530Y-159195102D01*
X174138242Y-159047142D01*
X174107000Y-158890075D01*
X174107000Y-158729925D01*
X174138242Y-158572858D01*
X174199530Y-158424898D01*
X174288502Y-158291742D01*
X174401742Y-158178502D01*
X174534898Y-158089530D01*
X174682858Y-158028242D01*
X174839925Y-157997000D01*
X175000075Y-157997000D01*
X175157142Y-158028242D01*
X175157142Y-158028242D01*
G37*
G36*
X100157142Y-158028242D02*
X100305102Y-158089530D01*
X100438258Y-158178502D01*
X100551498Y-158291742D01*
X100640470Y-158424898D01*
X100701758Y-158572858D01*
X100733000Y-158729925D01*
X100733000Y-158890075D01*
X100701758Y-159047142D01*
X100640470Y-159195102D01*
X100551498Y-159328258D01*
X100438258Y-159441498D01*
X100305102Y-159530470D01*
X100157142Y-159591758D01*
X100000075Y-159623000D01*
X99839925Y-159623000D01*
X99682858Y-159591758D01*
X99534898Y-159530470D01*
X99401742Y-159441498D01*
X99288502Y-159328258D01*
X99199530Y-159195102D01*
X99138242Y-159047142D01*
X99107000Y-158890075D01*
X99107000Y-158729925D01*
X99138242Y-158572858D01*
X99199530Y-158424898D01*
X99288502Y-158291742D01*
X99401742Y-158178502D01*
X99534898Y-158089530D01*
X99682858Y-158028242D01*
X99839925Y-157997000D01*
X100000075Y-157997000D01*
X100157142Y-158028242D01*
X100157142Y-158028242D01*
G37*
G36*
X85317142Y-158028242D02*
X85465102Y-158089530D01*
X85598258Y-158178502D01*
X85711498Y-158291742D01*
X85800470Y-158424898D01*
X85861758Y-158572858D01*
X85893000Y-158729925D01*
X85893000Y-158890075D01*
X85861758Y-159047142D01*
X85800470Y-159195102D01*
X85711498Y-159328258D01*
X85598258Y-159441498D01*
X85465102Y-159530470D01*
X85317142Y-159591758D01*
X85160075Y-159623000D01*
X84999925Y-159623000D01*
X84842858Y-159591758D01*
X84694898Y-159530470D01*
X84561742Y-159441498D01*
X84448502Y-159328258D01*
X84359530Y-159195102D01*
X84298242Y-159047142D01*
X84267000Y-158890075D01*
X84267000Y-158729925D01*
X84298242Y-158572858D01*
X84359530Y-158424898D01*
X84448502Y-158291742D01*
X84561742Y-158178502D01*
X84694898Y-158089530D01*
X84842858Y-158028242D01*
X84999925Y-157997000D01*
X85160075Y-157997000D01*
X85317142Y-158028242D01*
X85317142Y-158028242D01*
G37*
G36*
X75157142Y-158028242D02*
X75305102Y-158089530D01*
X75438258Y-158178502D01*
X75551498Y-158291742D01*
X75640470Y-158424898D01*
X75701758Y-158572858D01*
X75733000Y-158729925D01*
X75733000Y-158890075D01*
X75701758Y-159047142D01*
X75640470Y-159195102D01*
X75551498Y-159328258D01*
X75438258Y-159441498D01*
X75305102Y-159530470D01*
X75157142Y-159591758D01*
X75000075Y-159623000D01*
X74839925Y-159623000D01*
X74682858Y-159591758D01*
X74534898Y-159530470D01*
X74401742Y-159441498D01*
X74288502Y-159328258D01*
X74199530Y-159195102D01*
X74138242Y-159047142D01*
X74107000Y-158890075D01*
X74107000Y-158729925D01*
X74138242Y-158572858D01*
X74199530Y-158424898D01*
X74288502Y-158291742D01*
X74401742Y-158178502D01*
X74534898Y-158089530D01*
X74682858Y-158028242D01*
X74839925Y-157997000D01*
X75000075Y-157997000D01*
X75157142Y-158028242D01*
X75157142Y-158028242D01*
G37*
G36*
X60317142Y-158028242D02*
X60465102Y-158089530D01*
X60598258Y-158178502D01*
X60711498Y-158291742D01*
X60800470Y-158424898D01*
X60861758Y-158572858D01*
X60893000Y-158729925D01*
X60893000Y-158890075D01*
X60861758Y-159047142D01*
X60800470Y-159195102D01*
X60711498Y-159328258D01*
X60598258Y-159441498D01*
X60465102Y-159530470D01*
X60317142Y-159591758D01*
X60160075Y-159623000D01*
X59999925Y-159623000D01*
X59842858Y-159591758D01*
X59694898Y-159530470D01*
X59561742Y-159441498D01*
X59448502Y-159328258D01*
X59359530Y-159195102D01*
X59298242Y-159047142D01*
X59267000Y-158890075D01*
X59267000Y-158729925D01*
X59298242Y-158572858D01*
X59359530Y-158424898D01*
X59448502Y-158291742D01*
X59561742Y-158178502D01*
X59694898Y-158089530D01*
X59842858Y-158028242D01*
X59999925Y-157997000D01*
X60160075Y-157997000D01*
X60317142Y-158028242D01*
X60317142Y-158028242D01*
G37*
G36*
X50157142Y-158028242D02*
X50305102Y-158089530D01*
X50438258Y-158178502D01*
X50551498Y-158291742D01*
X50640470Y-158424898D01*
X50701758Y-158572858D01*
X50733000Y-158729925D01*
X50733000Y-158890075D01*
X50701758Y-159047142D01*
X50640470Y-159195102D01*
X50551498Y-159328258D01*
X50438258Y-159441498D01*
X50305102Y-159530470D01*
X50157142Y-159591758D01*
X50000075Y-159623000D01*
X49839925Y-159623000D01*
X49682858Y-159591758D01*
X49534898Y-159530470D01*
X49401742Y-159441498D01*
X49288502Y-159328258D01*
X49199530Y-159195102D01*
X49138242Y-159047142D01*
X49107000Y-158890075D01*
X49107000Y-158729925D01*
X49138242Y-158572858D01*
X49199530Y-158424898D01*
X49288502Y-158291742D01*
X49401742Y-158178502D01*
X49534898Y-158089530D01*
X49682858Y-158028242D01*
X49839925Y-157997000D01*
X50000075Y-157997000D01*
X50157142Y-158028242D01*
X50157142Y-158028242D01*
G37*
G36*
X200157142Y-158028242D02*
X200305102Y-158089530D01*
X200438258Y-158178502D01*
X200551498Y-158291742D01*
X200640470Y-158424898D01*
X200701758Y-158572858D01*
X200733000Y-158729925D01*
X200733000Y-158890075D01*
X200701758Y-159047142D01*
X200640470Y-159195102D01*
X200551498Y-159328258D01*
X200438258Y-159441498D01*
X200305102Y-159530470D01*
X200157142Y-159591758D01*
X200000075Y-159623000D01*
X199839925Y-159623000D01*
X199682858Y-159591758D01*
X199534898Y-159530470D01*
X199401742Y-159441498D01*
X199288502Y-159328258D01*
X199199530Y-159195102D01*
X199138242Y-159047142D01*
X199107000Y-158890075D01*
X199107000Y-158729925D01*
X199138242Y-158572858D01*
X199199530Y-158424898D01*
X199288502Y-158291742D01*
X199401742Y-158178502D01*
X199534898Y-158089530D01*
X199682858Y-158028242D01*
X199839925Y-157997000D01*
X200000075Y-157997000D01*
X200157142Y-158028242D01*
X200157142Y-158028242D01*
G37*
G36*
X35317142Y-158028242D02*
X35465102Y-158089530D01*
X35598258Y-158178502D01*
X35711498Y-158291742D01*
X35800470Y-158424898D01*
X35861758Y-158572858D01*
X35893000Y-158729925D01*
X35893000Y-158890075D01*
X35861758Y-159047142D01*
X35800470Y-159195102D01*
X35711498Y-159328258D01*
X35598258Y-159441498D01*
X35465102Y-159530470D01*
X35317142Y-159591758D01*
X35160075Y-159623000D01*
X34999925Y-159623000D01*
X34842858Y-159591758D01*
X34694898Y-159530470D01*
X34561742Y-159441498D01*
X34448502Y-159328258D01*
X34359530Y-159195102D01*
X34298242Y-159047142D01*
X34267000Y-158890075D01*
X34267000Y-158729925D01*
X34298242Y-158572858D01*
X34359530Y-158424898D01*
X34448502Y-158291742D01*
X34561742Y-158178502D01*
X34694898Y-158089530D01*
X34842858Y-158028242D01*
X34999925Y-157997000D01*
X35160075Y-157997000D01*
X35317142Y-158028242D01*
X35317142Y-158028242D01*
G37*
G36*
X25157142Y-158028242D02*
X25305102Y-158089530D01*
X25438258Y-158178502D01*
X25551498Y-158291742D01*
X25640470Y-158424898D01*
X25701758Y-158572858D01*
X25733000Y-158729925D01*
X25733000Y-158890075D01*
X25701758Y-159047142D01*
X25640470Y-159195102D01*
X25551498Y-159328258D01*
X25438258Y-159441498D01*
X25305102Y-159530470D01*
X25157142Y-159591758D01*
X25000075Y-159623000D01*
X24839925Y-159623000D01*
X24682858Y-159591758D01*
X24534898Y-159530470D01*
X24401742Y-159441498D01*
X24288502Y-159328258D01*
X24199530Y-159195102D01*
X24138242Y-159047142D01*
X24107000Y-158890075D01*
X24107000Y-158729925D01*
X24138242Y-158572858D01*
X24199530Y-158424898D01*
X24288502Y-158291742D01*
X24401742Y-158178502D01*
X24534898Y-158089530D01*
X24682858Y-158028242D01*
X24839925Y-157997000D01*
X25000075Y-157997000D01*
X25157142Y-158028242D01*
X25157142Y-158028242D01*
G37*
G36*
X215050490Y-151050490D02*
X212949510Y-151050490D01*
X212949510Y-148949510D01*
X215050490Y-148949510D01*
X215050490Y-151050490D01*
X215050490Y-151050490D01*
G37*
G36*
X197248228Y-148181703D02*
X197403100Y-148245853D01*
X197542481Y-148338985D01*
X197661015Y-148457519D01*
X197754147Y-148596900D01*
X197818297Y-148751772D01*
X197851000Y-148916184D01*
X197851000Y-149083816D01*
X197818297Y-149248228D01*
X197754147Y-149403100D01*
X197661015Y-149542481D01*
X197542481Y-149661015D01*
X197403100Y-149754147D01*
X197248228Y-149818297D01*
X197083816Y-149851000D01*
X196916184Y-149851000D01*
X196751772Y-149818297D01*
X196596900Y-149754147D01*
X196457519Y-149661015D01*
X196338985Y-149542481D01*
X196245853Y-149403100D01*
X196181703Y-149248228D01*
X196149000Y-149083816D01*
X196149000Y-148916184D01*
X196181703Y-148751772D01*
X196245853Y-148596900D01*
X196338985Y-148457519D01*
X196457519Y-148338985D01*
X196596900Y-148245853D01*
X196751772Y-148181703D01*
X196916184Y-148149000D01*
X197083816Y-148149000D01*
X197248228Y-148181703D01*
X197248228Y-148181703D01*
G37*
G36*
X193248228Y-147181703D02*
X193403100Y-147245853D01*
X193542481Y-147338985D01*
X193661015Y-147457519D01*
X193754147Y-147596900D01*
X193818297Y-147751772D01*
X193851000Y-147916184D01*
X193851000Y-148083816D01*
X193818297Y-148248228D01*
X193754147Y-148403100D01*
X193661015Y-148542481D01*
X193542481Y-148661015D01*
X193403100Y-148754147D01*
X193248228Y-148818297D01*
X193083816Y-148851000D01*
X192916184Y-148851000D01*
X192751772Y-148818297D01*
X192596900Y-148754147D01*
X192457519Y-148661015D01*
X192338985Y-148542481D01*
X192245853Y-148403100D01*
X192181703Y-148248228D01*
X192149000Y-148083816D01*
X192149000Y-147916184D01*
X192181703Y-147751772D01*
X192245853Y-147596900D01*
X192338985Y-147457519D01*
X192457519Y-147338985D01*
X192596900Y-147245853D01*
X192751772Y-147181703D01*
X192916184Y-147149000D01*
X193083816Y-147149000D01*
X193248228Y-147181703D01*
X193248228Y-147181703D01*
G37*
G36*
X214205928Y-146424710D02*
X214205931Y-146424711D01*
X214205932Y-146424711D01*
X214403950Y-146484779D01*
X214403952Y-146484780D01*
X214403955Y-146484781D01*
X214586445Y-146582323D01*
X214746402Y-146713598D01*
X214877677Y-146873555D01*
X214975219Y-147056045D01*
X214975220Y-147056048D01*
X214975221Y-147056050D01*
X215032797Y-147245853D01*
X215035290Y-147254072D01*
X215055572Y-147460000D01*
X215035290Y-147665928D01*
X215035289Y-147665931D01*
X215035289Y-147665932D01*
X215009250Y-147751772D01*
X214975219Y-147863955D01*
X214877677Y-148046445D01*
X214746402Y-148206402D01*
X214586445Y-148337677D01*
X214403955Y-148435219D01*
X214403952Y-148435220D01*
X214403950Y-148435221D01*
X214205932Y-148495289D01*
X214205931Y-148495289D01*
X214205928Y-148495290D01*
X214051601Y-148510490D01*
X213948399Y-148510490D01*
X213794072Y-148495290D01*
X213794069Y-148495289D01*
X213794068Y-148495289D01*
X213596050Y-148435221D01*
X213596048Y-148435220D01*
X213596045Y-148435219D01*
X213413555Y-148337677D01*
X213253598Y-148206402D01*
X213122323Y-148046445D01*
X213024781Y-147863955D01*
X212990751Y-147751772D01*
X212964711Y-147665932D01*
X212964711Y-147665931D01*
X212964710Y-147665928D01*
X212944428Y-147460000D01*
X212964710Y-147254072D01*
X212967203Y-147245853D01*
X213024779Y-147056050D01*
X213024780Y-147056048D01*
X213024781Y-147056045D01*
X213122323Y-146873555D01*
X213253598Y-146713598D01*
X213413555Y-146582323D01*
X213596045Y-146484781D01*
X213596048Y-146484780D01*
X213596050Y-146484779D01*
X213794068Y-146424711D01*
X213794069Y-146424711D01*
X213794072Y-146424710D01*
X213948399Y-146409510D01*
X214051601Y-146409510D01*
X214205928Y-146424710D01*
X214205928Y-146424710D01*
G37*
G36*
X214205928Y-143884710D02*
X214205931Y-143884711D01*
X214205932Y-143884711D01*
X214403950Y-143944779D01*
X214403952Y-143944780D01*
X214403955Y-143944781D01*
X214586445Y-144042323D01*
X214746402Y-144173598D01*
X214877677Y-144333555D01*
X214975219Y-144516045D01*
X215035290Y-144714072D01*
X215055572Y-144920000D01*
X215035290Y-145125928D01*
X214975219Y-145323955D01*
X214877677Y-145506445D01*
X214746402Y-145666402D01*
X214586445Y-145797677D01*
X214403955Y-145895219D01*
X214403952Y-145895220D01*
X214403950Y-145895221D01*
X214205932Y-145955289D01*
X214205931Y-145955289D01*
X214205928Y-145955290D01*
X214051601Y-145970490D01*
X213948399Y-145970490D01*
X213794072Y-145955290D01*
X213794069Y-145955289D01*
X213794068Y-145955289D01*
X213596050Y-145895221D01*
X213596048Y-145895220D01*
X213596045Y-145895219D01*
X213413555Y-145797677D01*
X213253598Y-145666402D01*
X213122323Y-145506445D01*
X213024781Y-145323955D01*
X212964710Y-145125928D01*
X212944428Y-144920000D01*
X212964710Y-144714072D01*
X213024781Y-144516045D01*
X213122323Y-144333555D01*
X213253598Y-144173598D01*
X213413555Y-144042323D01*
X213596045Y-143944781D01*
X213596048Y-143944780D01*
X213596050Y-143944779D01*
X213794068Y-143884711D01*
X213794069Y-143884711D01*
X213794072Y-143884710D01*
X213948399Y-143869510D01*
X214051601Y-143869510D01*
X214205928Y-143884710D01*
X214205928Y-143884710D01*
G37*
G36*
X214205928Y-141344710D02*
X214205931Y-141344711D01*
X214205932Y-141344711D01*
X214403950Y-141404779D01*
X214403952Y-141404780D01*
X214403955Y-141404781D01*
X214586445Y-141502323D01*
X214746402Y-141633598D01*
X214877677Y-141793555D01*
X214975219Y-141976045D01*
X215035290Y-142174072D01*
X215055572Y-142380000D01*
X215035290Y-142585928D01*
X214975219Y-142783955D01*
X214877677Y-142966445D01*
X214746402Y-143126402D01*
X214586445Y-143257677D01*
X214403955Y-143355219D01*
X214403952Y-143355220D01*
X214403950Y-143355221D01*
X214205932Y-143415289D01*
X214205931Y-143415289D01*
X214205928Y-143415290D01*
X214051601Y-143430490D01*
X213948399Y-143430490D01*
X213794072Y-143415290D01*
X213794069Y-143415289D01*
X213794068Y-143415289D01*
X213596050Y-143355221D01*
X213596048Y-143355220D01*
X213596045Y-143355219D01*
X213413555Y-143257677D01*
X213253598Y-143126402D01*
X213122323Y-142966445D01*
X213024781Y-142783955D01*
X212964710Y-142585928D01*
X212944428Y-142380000D01*
X212964710Y-142174072D01*
X213024781Y-141976045D01*
X213122323Y-141793555D01*
X213253598Y-141633598D01*
X213413555Y-141502323D01*
X213596045Y-141404781D01*
X213596048Y-141404780D01*
X213596050Y-141404779D01*
X213794068Y-141344711D01*
X213794069Y-141344711D01*
X213794072Y-141344710D01*
X213948399Y-141329510D01*
X214051601Y-141329510D01*
X214205928Y-141344710D01*
X214205928Y-141344710D01*
G37*
G36*
X214205928Y-138804710D02*
X214205931Y-138804711D01*
X214205932Y-138804711D01*
X214403950Y-138864779D01*
X214403952Y-138864780D01*
X214403955Y-138864781D01*
X214586445Y-138962323D01*
X214746402Y-139093598D01*
X214877677Y-139253555D01*
X214975219Y-139436045D01*
X215035290Y-139634072D01*
X215055572Y-139840000D01*
X215035290Y-140045928D01*
X214975219Y-140243955D01*
X214877677Y-140426445D01*
X214746402Y-140586402D01*
X214586445Y-140717677D01*
X214403955Y-140815219D01*
X214403952Y-140815220D01*
X214403950Y-140815221D01*
X214205932Y-140875289D01*
X214205931Y-140875289D01*
X214205928Y-140875290D01*
X214051601Y-140890490D01*
X213948399Y-140890490D01*
X213794072Y-140875290D01*
X213794069Y-140875289D01*
X213794068Y-140875289D01*
X213596050Y-140815221D01*
X213596048Y-140815220D01*
X213596045Y-140815219D01*
X213413555Y-140717677D01*
X213253598Y-140586402D01*
X213122323Y-140426445D01*
X213024781Y-140243955D01*
X212964710Y-140045928D01*
X212944428Y-139840000D01*
X212964710Y-139634072D01*
X213024781Y-139436045D01*
X213122323Y-139253555D01*
X213253598Y-139093598D01*
X213413555Y-138962323D01*
X213596045Y-138864781D01*
X213596048Y-138864780D01*
X213596050Y-138864779D01*
X213794068Y-138804711D01*
X213794069Y-138804711D01*
X213794072Y-138804710D01*
X213948399Y-138789510D01*
X214051601Y-138789510D01*
X214205928Y-138804710D01*
X214205928Y-138804710D01*
G37*
G36*
X204851000Y-140851000D02*
X203149000Y-140851000D01*
X203149000Y-139149000D01*
X204851000Y-139149000D01*
X204851000Y-140851000D01*
X204851000Y-140851000D01*
G37*
G36*
X197166821Y-138161313D02*
X197166824Y-138161314D01*
X197166825Y-138161314D01*
X197327239Y-138209975D01*
X197327241Y-138209976D01*
X197327244Y-138209977D01*
X197475078Y-138288995D01*
X197604659Y-138395341D01*
X197711005Y-138524922D01*
X197790023Y-138672756D01*
X197790024Y-138672759D01*
X197790025Y-138672761D01*
X197838686Y-138833175D01*
X197838687Y-138833179D01*
X197855117Y-139000000D01*
X197838687Y-139166821D01*
X197838686Y-139166824D01*
X197838686Y-139166825D01*
X197812377Y-139253555D01*
X197790023Y-139327244D01*
X197711005Y-139475078D01*
X197604659Y-139604659D01*
X197475078Y-139711005D01*
X197327244Y-139790023D01*
X197327241Y-139790024D01*
X197327239Y-139790025D01*
X197166825Y-139838686D01*
X197166824Y-139838686D01*
X197166821Y-139838687D01*
X197041804Y-139851000D01*
X196958196Y-139851000D01*
X196833179Y-139838687D01*
X196833176Y-139838686D01*
X196833175Y-139838686D01*
X196672761Y-139790025D01*
X196672759Y-139790024D01*
X196672756Y-139790023D01*
X196524922Y-139711005D01*
X196395341Y-139604659D01*
X196288995Y-139475078D01*
X196209977Y-139327244D01*
X196187624Y-139253555D01*
X196161314Y-139166825D01*
X196161314Y-139166824D01*
X196161313Y-139166821D01*
X196144883Y-139000000D01*
X196161313Y-138833179D01*
X196161314Y-138833175D01*
X196209975Y-138672761D01*
X196209976Y-138672759D01*
X196209977Y-138672756D01*
X196288995Y-138524922D01*
X196395341Y-138395341D01*
X196524922Y-138288995D01*
X196672756Y-138209977D01*
X196672759Y-138209976D01*
X196672761Y-138209975D01*
X196833175Y-138161314D01*
X196833176Y-138161314D01*
X196833179Y-138161313D01*
X196958196Y-138149000D01*
X197041804Y-138149000D01*
X197166821Y-138161313D01*
X197166821Y-138161313D01*
G37*
G36*
X193166821Y-137001313D02*
X193166824Y-137001314D01*
X193166825Y-137001314D01*
X193327239Y-137049975D01*
X193327241Y-137049976D01*
X193327244Y-137049977D01*
X193475078Y-137128995D01*
X193604659Y-137235341D01*
X193711005Y-137364922D01*
X193790023Y-137512756D01*
X193838687Y-137673179D01*
X193855117Y-137840000D01*
X193838687Y-138006821D01*
X193838686Y-138006824D01*
X193838686Y-138006825D01*
X193791823Y-138161313D01*
X193790023Y-138167244D01*
X193711005Y-138315078D01*
X193604659Y-138444659D01*
X193475078Y-138551005D01*
X193327244Y-138630023D01*
X193327241Y-138630024D01*
X193327239Y-138630025D01*
X193166825Y-138678686D01*
X193166824Y-138678686D01*
X193166821Y-138678687D01*
X193041804Y-138691000D01*
X192958196Y-138691000D01*
X192833179Y-138678687D01*
X192833176Y-138678686D01*
X192833175Y-138678686D01*
X192672761Y-138630025D01*
X192672759Y-138630024D01*
X192672756Y-138630023D01*
X192524922Y-138551005D01*
X192395341Y-138444659D01*
X192288995Y-138315078D01*
X192209977Y-138167244D01*
X192208178Y-138161313D01*
X192161314Y-138006825D01*
X192161314Y-138006824D01*
X192161313Y-138006821D01*
X192144883Y-137840000D01*
X192161313Y-137673179D01*
X192209977Y-137512756D01*
X192288995Y-137364922D01*
X192395341Y-137235341D01*
X192524922Y-137128995D01*
X192672756Y-137049977D01*
X192672759Y-137049976D01*
X192672761Y-137049975D01*
X192833175Y-137001314D01*
X192833176Y-137001314D01*
X192833179Y-137001313D01*
X192958196Y-136989000D01*
X193041804Y-136989000D01*
X193166821Y-137001313D01*
X193166821Y-137001313D01*
G37*
G36*
X204248228Y-136681703D02*
X204403100Y-136745853D01*
X204542481Y-136838985D01*
X204661015Y-136957519D01*
X204754147Y-137096900D01*
X204818297Y-137251772D01*
X204851000Y-137416184D01*
X204851000Y-137583816D01*
X204818297Y-137748228D01*
X204754147Y-137903100D01*
X204661015Y-138042481D01*
X204542481Y-138161015D01*
X204403100Y-138254147D01*
X204248228Y-138318297D01*
X204083816Y-138351000D01*
X203916184Y-138351000D01*
X203751772Y-138318297D01*
X203596900Y-138254147D01*
X203457519Y-138161015D01*
X203338985Y-138042481D01*
X203245853Y-137903100D01*
X203181703Y-137748228D01*
X203149000Y-137583816D01*
X203149000Y-137416184D01*
X203181703Y-137251772D01*
X203245853Y-137096900D01*
X203338985Y-136957519D01*
X203457519Y-136838985D01*
X203596900Y-136745853D01*
X203751772Y-136681703D01*
X203916184Y-136649000D01*
X204083816Y-136649000D01*
X204248228Y-136681703D01*
X204248228Y-136681703D01*
G37*
G36*
X214205928Y-136264710D02*
X214205931Y-136264711D01*
X214205932Y-136264711D01*
X214403950Y-136324779D01*
X214403952Y-136324780D01*
X214403955Y-136324781D01*
X214586445Y-136422323D01*
X214746402Y-136553598D01*
X214877677Y-136713555D01*
X214975219Y-136896045D01*
X214975220Y-136896048D01*
X214975221Y-136896050D01*
X215021914Y-137049977D01*
X215035290Y-137094072D01*
X215055572Y-137300000D01*
X215035290Y-137505928D01*
X214975219Y-137703955D01*
X214877677Y-137886445D01*
X214746402Y-138046402D01*
X214586445Y-138177677D01*
X214403955Y-138275219D01*
X214403952Y-138275220D01*
X214403950Y-138275221D01*
X214205932Y-138335289D01*
X214205931Y-138335289D01*
X214205928Y-138335290D01*
X214051601Y-138350490D01*
X213948399Y-138350490D01*
X213794072Y-138335290D01*
X213794069Y-138335289D01*
X213794068Y-138335289D01*
X213596050Y-138275221D01*
X213596048Y-138275220D01*
X213596045Y-138275219D01*
X213413555Y-138177677D01*
X213253598Y-138046402D01*
X213122323Y-137886445D01*
X213024781Y-137703955D01*
X212964710Y-137505928D01*
X212944428Y-137300000D01*
X212964710Y-137094072D01*
X212978086Y-137049977D01*
X213024779Y-136896050D01*
X213024780Y-136896048D01*
X213024781Y-136896045D01*
X213122323Y-136713555D01*
X213253598Y-136553598D01*
X213413555Y-136422323D01*
X213596045Y-136324781D01*
X213596048Y-136324780D01*
X213596050Y-136324779D01*
X213794068Y-136264711D01*
X213794069Y-136264711D01*
X213794072Y-136264710D01*
X213948399Y-136249510D01*
X214051601Y-136249510D01*
X214205928Y-136264710D01*
X214205928Y-136264710D01*
G37*
G36*
X125157142Y-133028242D02*
X125305102Y-133089530D01*
X125438258Y-133178502D01*
X125551498Y-133291742D01*
X125640470Y-133424898D01*
X125701758Y-133572858D01*
X125733000Y-133729925D01*
X125733000Y-133890075D01*
X125701758Y-134047142D01*
X125640470Y-134195102D01*
X125551498Y-134328258D01*
X125438258Y-134441498D01*
X125305102Y-134530470D01*
X125157142Y-134591758D01*
X125000075Y-134623000D01*
X124839925Y-134623000D01*
X124682858Y-134591758D01*
X124534898Y-134530470D01*
X124401742Y-134441498D01*
X124288502Y-134328258D01*
X124199530Y-134195102D01*
X124138242Y-134047142D01*
X124107000Y-133890075D01*
X124107000Y-133729925D01*
X124138242Y-133572858D01*
X124199530Y-133424898D01*
X124288502Y-133291742D01*
X124401742Y-133178502D01*
X124534898Y-133089530D01*
X124682858Y-133028242D01*
X124839925Y-132997000D01*
X125000075Y-132997000D01*
X125157142Y-133028242D01*
X125157142Y-133028242D01*
G37*
G36*
X200157142Y-133028242D02*
X200305102Y-133089530D01*
X200438258Y-133178502D01*
X200551498Y-133291742D01*
X200640470Y-133424898D01*
X200701758Y-133572858D01*
X200733000Y-133729925D01*
X200733000Y-133890075D01*
X200701758Y-134047142D01*
X200640470Y-134195102D01*
X200551498Y-134328258D01*
X200438258Y-134441498D01*
X200305102Y-134530470D01*
X200157142Y-134591758D01*
X200000075Y-134623000D01*
X199839925Y-134623000D01*
X199682858Y-134591758D01*
X199534898Y-134530470D01*
X199401742Y-134441498D01*
X199288502Y-134328258D01*
X199199530Y-134195102D01*
X199138242Y-134047142D01*
X199107000Y-133890075D01*
X199107000Y-133729925D01*
X199138242Y-133572858D01*
X199199530Y-133424898D01*
X199288502Y-133291742D01*
X199401742Y-133178502D01*
X199534898Y-133089530D01*
X199682858Y-133028242D01*
X199839925Y-132997000D01*
X200000075Y-132997000D01*
X200157142Y-133028242D01*
X200157142Y-133028242D01*
G37*
G36*
X210317142Y-133028242D02*
X210465102Y-133089530D01*
X210598258Y-133178502D01*
X210711498Y-133291742D01*
X210800470Y-133424898D01*
X210861758Y-133572858D01*
X210893000Y-133729925D01*
X210893000Y-133890075D01*
X210861758Y-134047142D01*
X210800470Y-134195102D01*
X210711498Y-134328258D01*
X210598258Y-134441498D01*
X210465102Y-134530470D01*
X210317142Y-134591758D01*
X210160075Y-134623000D01*
X209999925Y-134623000D01*
X209842858Y-134591758D01*
X209694898Y-134530470D01*
X209561742Y-134441498D01*
X209448502Y-134328258D01*
X209359530Y-134195102D01*
X209298242Y-134047142D01*
X209267000Y-133890075D01*
X209267000Y-133729925D01*
X209298242Y-133572858D01*
X209359530Y-133424898D01*
X209448502Y-133291742D01*
X209561742Y-133178502D01*
X209694898Y-133089530D01*
X209842858Y-133028242D01*
X209999925Y-132997000D01*
X210160075Y-132997000D01*
X210317142Y-133028242D01*
X210317142Y-133028242D01*
G37*
G36*
X185317142Y-133028242D02*
X185465102Y-133089530D01*
X185598258Y-133178502D01*
X185711498Y-133291742D01*
X185800470Y-133424898D01*
X185861758Y-133572858D01*
X185893000Y-133729925D01*
X185893000Y-133890075D01*
X185861758Y-134047142D01*
X185800470Y-134195102D01*
X185711498Y-134328258D01*
X185598258Y-134441498D01*
X185465102Y-134530470D01*
X185317142Y-134591758D01*
X185160075Y-134623000D01*
X184999925Y-134623000D01*
X184842858Y-134591758D01*
X184694898Y-134530470D01*
X184561742Y-134441498D01*
X184448502Y-134328258D01*
X184359530Y-134195102D01*
X184298242Y-134047142D01*
X184267000Y-133890075D01*
X184267000Y-133729925D01*
X184298242Y-133572858D01*
X184359530Y-133424898D01*
X184448502Y-133291742D01*
X184561742Y-133178502D01*
X184694898Y-133089530D01*
X184842858Y-133028242D01*
X184999925Y-132997000D01*
X185160075Y-132997000D01*
X185317142Y-133028242D01*
X185317142Y-133028242D01*
G37*
G36*
X150157142Y-133028242D02*
X150305102Y-133089530D01*
X150438258Y-133178502D01*
X150551498Y-133291742D01*
X150640470Y-133424898D01*
X150701758Y-133572858D01*
X150733000Y-133729925D01*
X150733000Y-133890075D01*
X150701758Y-134047142D01*
X150640470Y-134195102D01*
X150551498Y-134328258D01*
X150438258Y-134441498D01*
X150305102Y-134530470D01*
X150157142Y-134591758D01*
X150000075Y-134623000D01*
X149839925Y-134623000D01*
X149682858Y-134591758D01*
X149534898Y-134530470D01*
X149401742Y-134441498D01*
X149288502Y-134328258D01*
X149199530Y-134195102D01*
X149138242Y-134047142D01*
X149107000Y-133890075D01*
X149107000Y-133729925D01*
X149138242Y-133572858D01*
X149199530Y-133424898D01*
X149288502Y-133291742D01*
X149401742Y-133178502D01*
X149534898Y-133089530D01*
X149682858Y-133028242D01*
X149839925Y-132997000D01*
X150000075Y-132997000D01*
X150157142Y-133028242D01*
X150157142Y-133028242D01*
G37*
G36*
X160317142Y-133028242D02*
X160465102Y-133089530D01*
X160598258Y-133178502D01*
X160711498Y-133291742D01*
X160800470Y-133424898D01*
X160861758Y-133572858D01*
X160893000Y-133729925D01*
X160893000Y-133890075D01*
X160861758Y-134047142D01*
X160800470Y-134195102D01*
X160711498Y-134328258D01*
X160598258Y-134441498D01*
X160465102Y-134530470D01*
X160317142Y-134591758D01*
X160160075Y-134623000D01*
X159999925Y-134623000D01*
X159842858Y-134591758D01*
X159694898Y-134530470D01*
X159561742Y-134441498D01*
X159448502Y-134328258D01*
X159359530Y-134195102D01*
X159298242Y-134047142D01*
X159267000Y-133890075D01*
X159267000Y-133729925D01*
X159298242Y-133572858D01*
X159359530Y-133424898D01*
X159448502Y-133291742D01*
X159561742Y-133178502D01*
X159694898Y-133089530D01*
X159842858Y-133028242D01*
X159999925Y-132997000D01*
X160160075Y-132997000D01*
X160317142Y-133028242D01*
X160317142Y-133028242D01*
G37*
G36*
X135317142Y-133028242D02*
X135465102Y-133089530D01*
X135598258Y-133178502D01*
X135711498Y-133291742D01*
X135800470Y-133424898D01*
X135861758Y-133572858D01*
X135893000Y-133729925D01*
X135893000Y-133890075D01*
X135861758Y-134047142D01*
X135800470Y-134195102D01*
X135711498Y-134328258D01*
X135598258Y-134441498D01*
X135465102Y-134530470D01*
X135317142Y-134591758D01*
X135160075Y-134623000D01*
X134999925Y-134623000D01*
X134842858Y-134591758D01*
X134694898Y-134530470D01*
X134561742Y-134441498D01*
X134448502Y-134328258D01*
X134359530Y-134195102D01*
X134298242Y-134047142D01*
X134267000Y-133890075D01*
X134267000Y-133729925D01*
X134298242Y-133572858D01*
X134359530Y-133424898D01*
X134448502Y-133291742D01*
X134561742Y-133178502D01*
X134694898Y-133089530D01*
X134842858Y-133028242D01*
X134999925Y-132997000D01*
X135160075Y-132997000D01*
X135317142Y-133028242D01*
X135317142Y-133028242D01*
G37*
G36*
X100157142Y-133028242D02*
X100305102Y-133089530D01*
X100438258Y-133178502D01*
X100551498Y-133291742D01*
X100640470Y-133424898D01*
X100701758Y-133572858D01*
X100733000Y-133729925D01*
X100733000Y-133890075D01*
X100701758Y-134047142D01*
X100640470Y-134195102D01*
X100551498Y-134328258D01*
X100438258Y-134441498D01*
X100305102Y-134530470D01*
X100157142Y-134591758D01*
X100000075Y-134623000D01*
X99839925Y-134623000D01*
X99682858Y-134591758D01*
X99534898Y-134530470D01*
X99401742Y-134441498D01*
X99288502Y-134328258D01*
X99199530Y-134195102D01*
X99138242Y-134047142D01*
X99107000Y-133890075D01*
X99107000Y-133729925D01*
X99138242Y-133572858D01*
X99199530Y-133424898D01*
X99288502Y-133291742D01*
X99401742Y-133178502D01*
X99534898Y-133089530D01*
X99682858Y-133028242D01*
X99839925Y-132997000D01*
X100000075Y-132997000D01*
X100157142Y-133028242D01*
X100157142Y-133028242D01*
G37*
G36*
X110317142Y-133028242D02*
X110465102Y-133089530D01*
X110598258Y-133178502D01*
X110711498Y-133291742D01*
X110800470Y-133424898D01*
X110861758Y-133572858D01*
X110893000Y-133729925D01*
X110893000Y-133890075D01*
X110861758Y-134047142D01*
X110800470Y-134195102D01*
X110711498Y-134328258D01*
X110598258Y-134441498D01*
X110465102Y-134530470D01*
X110317142Y-134591758D01*
X110160075Y-134623000D01*
X109999925Y-134623000D01*
X109842858Y-134591758D01*
X109694898Y-134530470D01*
X109561742Y-134441498D01*
X109448502Y-134328258D01*
X109359530Y-134195102D01*
X109298242Y-134047142D01*
X109267000Y-133890075D01*
X109267000Y-133729925D01*
X109298242Y-133572858D01*
X109359530Y-133424898D01*
X109448502Y-133291742D01*
X109561742Y-133178502D01*
X109694898Y-133089530D01*
X109842858Y-133028242D01*
X109999925Y-132997000D01*
X110160075Y-132997000D01*
X110317142Y-133028242D01*
X110317142Y-133028242D01*
G37*
G36*
X75157142Y-133028242D02*
X75305102Y-133089530D01*
X75438258Y-133178502D01*
X75551498Y-133291742D01*
X75640470Y-133424898D01*
X75701758Y-133572858D01*
X75733000Y-133729925D01*
X75733000Y-133890075D01*
X75701758Y-134047142D01*
X75640470Y-134195102D01*
X75551498Y-134328258D01*
X75438258Y-134441498D01*
X75305102Y-134530470D01*
X75157142Y-134591758D01*
X75000075Y-134623000D01*
X74839925Y-134623000D01*
X74682858Y-134591758D01*
X74534898Y-134530470D01*
X74401742Y-134441498D01*
X74288502Y-134328258D01*
X74199530Y-134195102D01*
X74138242Y-134047142D01*
X74107000Y-133890075D01*
X74107000Y-133729925D01*
X74138242Y-133572858D01*
X74199530Y-133424898D01*
X74288502Y-133291742D01*
X74401742Y-133178502D01*
X74534898Y-133089530D01*
X74682858Y-133028242D01*
X74839925Y-132997000D01*
X75000075Y-132997000D01*
X75157142Y-133028242D01*
X75157142Y-133028242D01*
G37*
G36*
X85317142Y-133028242D02*
X85465102Y-133089530D01*
X85598258Y-133178502D01*
X85711498Y-133291742D01*
X85800470Y-133424898D01*
X85861758Y-133572858D01*
X85893000Y-133729925D01*
X85893000Y-133890075D01*
X85861758Y-134047142D01*
X85800470Y-134195102D01*
X85711498Y-134328258D01*
X85598258Y-134441498D01*
X85465102Y-134530470D01*
X85317142Y-134591758D01*
X85160075Y-134623000D01*
X84999925Y-134623000D01*
X84842858Y-134591758D01*
X84694898Y-134530470D01*
X84561742Y-134441498D01*
X84448502Y-134328258D01*
X84359530Y-134195102D01*
X84298242Y-134047142D01*
X84267000Y-133890075D01*
X84267000Y-133729925D01*
X84298242Y-133572858D01*
X84359530Y-133424898D01*
X84448502Y-133291742D01*
X84561742Y-133178502D01*
X84694898Y-133089530D01*
X84842858Y-133028242D01*
X84999925Y-132997000D01*
X85160075Y-132997000D01*
X85317142Y-133028242D01*
X85317142Y-133028242D01*
G37*
G36*
X50157142Y-133028242D02*
X50305102Y-133089530D01*
X50438258Y-133178502D01*
X50551498Y-133291742D01*
X50640470Y-133424898D01*
X50701758Y-133572858D01*
X50733000Y-133729925D01*
X50733000Y-133890075D01*
X50701758Y-134047142D01*
X50640470Y-134195102D01*
X50551498Y-134328258D01*
X50438258Y-134441498D01*
X50305102Y-134530470D01*
X50157142Y-134591758D01*
X50000075Y-134623000D01*
X49839925Y-134623000D01*
X49682858Y-134591758D01*
X49534898Y-134530470D01*
X49401742Y-134441498D01*
X49288502Y-134328258D01*
X49199530Y-134195102D01*
X49138242Y-134047142D01*
X49107000Y-133890075D01*
X49107000Y-133729925D01*
X49138242Y-133572858D01*
X49199530Y-133424898D01*
X49288502Y-133291742D01*
X49401742Y-133178502D01*
X49534898Y-133089530D01*
X49682858Y-133028242D01*
X49839925Y-132997000D01*
X50000075Y-132997000D01*
X50157142Y-133028242D01*
X50157142Y-133028242D01*
G37*
G36*
X60317142Y-133028242D02*
X60465102Y-133089530D01*
X60598258Y-133178502D01*
X60711498Y-133291742D01*
X60800470Y-133424898D01*
X60861758Y-133572858D01*
X60893000Y-133729925D01*
X60893000Y-133890075D01*
X60861758Y-134047142D01*
X60800470Y-134195102D01*
X60711498Y-134328258D01*
X60598258Y-134441498D01*
X60465102Y-134530470D01*
X60317142Y-134591758D01*
X60160075Y-134623000D01*
X59999925Y-134623000D01*
X59842858Y-134591758D01*
X59694898Y-134530470D01*
X59561742Y-134441498D01*
X59448502Y-134328258D01*
X59359530Y-134195102D01*
X59298242Y-134047142D01*
X59267000Y-133890075D01*
X59267000Y-133729925D01*
X59298242Y-133572858D01*
X59359530Y-133424898D01*
X59448502Y-133291742D01*
X59561742Y-133178502D01*
X59694898Y-133089530D01*
X59842858Y-133028242D01*
X59999925Y-132997000D01*
X60160075Y-132997000D01*
X60317142Y-133028242D01*
X60317142Y-133028242D01*
G37*
G36*
X25157142Y-133028242D02*
X25305102Y-133089530D01*
X25438258Y-133178502D01*
X25551498Y-133291742D01*
X25640470Y-133424898D01*
X25701758Y-133572858D01*
X25733000Y-133729925D01*
X25733000Y-133890075D01*
X25701758Y-134047142D01*
X25640470Y-134195102D01*
X25551498Y-134328258D01*
X25438258Y-134441498D01*
X25305102Y-134530470D01*
X25157142Y-134591758D01*
X25000075Y-134623000D01*
X24839925Y-134623000D01*
X24682858Y-134591758D01*
X24534898Y-134530470D01*
X24401742Y-134441498D01*
X24288502Y-134328258D01*
X24199530Y-134195102D01*
X24138242Y-134047142D01*
X24107000Y-133890075D01*
X24107000Y-133729925D01*
X24138242Y-133572858D01*
X24199530Y-133424898D01*
X24288502Y-133291742D01*
X24401742Y-133178502D01*
X24534898Y-133089530D01*
X24682858Y-133028242D01*
X24839925Y-132997000D01*
X25000075Y-132997000D01*
X25157142Y-133028242D01*
X25157142Y-133028242D01*
G37*
G36*
X35317142Y-133028242D02*
X35465102Y-133089530D01*
X35598258Y-133178502D01*
X35711498Y-133291742D01*
X35800470Y-133424898D01*
X35861758Y-133572858D01*
X35893000Y-133729925D01*
X35893000Y-133890075D01*
X35861758Y-134047142D01*
X35800470Y-134195102D01*
X35711498Y-134328258D01*
X35598258Y-134441498D01*
X35465102Y-134530470D01*
X35317142Y-134591758D01*
X35160075Y-134623000D01*
X34999925Y-134623000D01*
X34842858Y-134591758D01*
X34694898Y-134530470D01*
X34561742Y-134441498D01*
X34448502Y-134328258D01*
X34359530Y-134195102D01*
X34298242Y-134047142D01*
X34267000Y-133890075D01*
X34267000Y-133729925D01*
X34298242Y-133572858D01*
X34359530Y-133424898D01*
X34448502Y-133291742D01*
X34561742Y-133178502D01*
X34694898Y-133089530D01*
X34842858Y-133028242D01*
X34999925Y-132997000D01*
X35160075Y-132997000D01*
X35317142Y-133028242D01*
X35317142Y-133028242D01*
G37*
G36*
X175157142Y-133028242D02*
X175305102Y-133089530D01*
X175438258Y-133178502D01*
X175551498Y-133291742D01*
X175640470Y-133424898D01*
X175701758Y-133572858D01*
X175733000Y-133729925D01*
X175733000Y-133890075D01*
X175701758Y-134047142D01*
X175640470Y-134195102D01*
X175551498Y-134328258D01*
X175438258Y-134441498D01*
X175305102Y-134530470D01*
X175157142Y-134591758D01*
X175000075Y-134623000D01*
X174839925Y-134623000D01*
X174682858Y-134591758D01*
X174534898Y-134530470D01*
X174401742Y-134441498D01*
X174288502Y-134328258D01*
X174199530Y-134195102D01*
X174138242Y-134047142D01*
X174107000Y-133890075D01*
X174107000Y-133729925D01*
X174138242Y-133572858D01*
X174199530Y-133424898D01*
X174288502Y-133291742D01*
X174401742Y-133178502D01*
X174534898Y-133089530D01*
X174682858Y-133028242D01*
X174839925Y-132997000D01*
X175000075Y-132997000D01*
X175157142Y-133028242D01*
X175157142Y-133028242D01*
G37*
G36*
X210317142Y-108028242D02*
X210465102Y-108089530D01*
X210598258Y-108178502D01*
X210711498Y-108291742D01*
X210800470Y-108424898D01*
X210861758Y-108572858D01*
X210893000Y-108729925D01*
X210893000Y-108890075D01*
X210861758Y-109047142D01*
X210800470Y-109195102D01*
X210711498Y-109328258D01*
X210598258Y-109441498D01*
X210465102Y-109530470D01*
X210317142Y-109591758D01*
X210160075Y-109623000D01*
X209999925Y-109623000D01*
X209842858Y-109591758D01*
X209694898Y-109530470D01*
X209561742Y-109441498D01*
X209448502Y-109328258D01*
X209359530Y-109195102D01*
X209298242Y-109047142D01*
X209267000Y-108890075D01*
X209267000Y-108729925D01*
X209298242Y-108572858D01*
X209359530Y-108424898D01*
X209448502Y-108291742D01*
X209561742Y-108178502D01*
X209694898Y-108089530D01*
X209842858Y-108028242D01*
X209999925Y-107997000D01*
X210160075Y-107997000D01*
X210317142Y-108028242D01*
X210317142Y-108028242D01*
G37*
G36*
X35317142Y-108028242D02*
X35465102Y-108089530D01*
X35598258Y-108178502D01*
X35711498Y-108291742D01*
X35800470Y-108424898D01*
X35861758Y-108572858D01*
X35893000Y-108729925D01*
X35893000Y-108890075D01*
X35861758Y-109047142D01*
X35800470Y-109195102D01*
X35711498Y-109328258D01*
X35598258Y-109441498D01*
X35465102Y-109530470D01*
X35317142Y-109591758D01*
X35160075Y-109623000D01*
X34999925Y-109623000D01*
X34842858Y-109591758D01*
X34694898Y-109530470D01*
X34561742Y-109441498D01*
X34448502Y-109328258D01*
X34359530Y-109195102D01*
X34298242Y-109047142D01*
X34267000Y-108890075D01*
X34267000Y-108729925D01*
X34298242Y-108572858D01*
X34359530Y-108424898D01*
X34448502Y-108291742D01*
X34561742Y-108178502D01*
X34694898Y-108089530D01*
X34842858Y-108028242D01*
X34999925Y-107997000D01*
X35160075Y-107997000D01*
X35317142Y-108028242D01*
X35317142Y-108028242D01*
G37*
G36*
X50157142Y-108028242D02*
X50305102Y-108089530D01*
X50438258Y-108178502D01*
X50551498Y-108291742D01*
X50640470Y-108424898D01*
X50701758Y-108572858D01*
X50733000Y-108729925D01*
X50733000Y-108890075D01*
X50701758Y-109047142D01*
X50640470Y-109195102D01*
X50551498Y-109328258D01*
X50438258Y-109441498D01*
X50305102Y-109530470D01*
X50157142Y-109591758D01*
X50000075Y-109623000D01*
X49839925Y-109623000D01*
X49682858Y-109591758D01*
X49534898Y-109530470D01*
X49401742Y-109441498D01*
X49288502Y-109328258D01*
X49199530Y-109195102D01*
X49138242Y-109047142D01*
X49107000Y-108890075D01*
X49107000Y-108729925D01*
X49138242Y-108572858D01*
X49199530Y-108424898D01*
X49288502Y-108291742D01*
X49401742Y-108178502D01*
X49534898Y-108089530D01*
X49682858Y-108028242D01*
X49839925Y-107997000D01*
X50000075Y-107997000D01*
X50157142Y-108028242D01*
X50157142Y-108028242D01*
G37*
G36*
X60317142Y-108028242D02*
X60465102Y-108089530D01*
X60598258Y-108178502D01*
X60711498Y-108291742D01*
X60800470Y-108424898D01*
X60861758Y-108572858D01*
X60893000Y-108729925D01*
X60893000Y-108890075D01*
X60861758Y-109047142D01*
X60800470Y-109195102D01*
X60711498Y-109328258D01*
X60598258Y-109441498D01*
X60465102Y-109530470D01*
X60317142Y-109591758D01*
X60160075Y-109623000D01*
X59999925Y-109623000D01*
X59842858Y-109591758D01*
X59694898Y-109530470D01*
X59561742Y-109441498D01*
X59448502Y-109328258D01*
X59359530Y-109195102D01*
X59298242Y-109047142D01*
X59267000Y-108890075D01*
X59267000Y-108729925D01*
X59298242Y-108572858D01*
X59359530Y-108424898D01*
X59448502Y-108291742D01*
X59561742Y-108178502D01*
X59694898Y-108089530D01*
X59842858Y-108028242D01*
X59999925Y-107997000D01*
X60160075Y-107997000D01*
X60317142Y-108028242D01*
X60317142Y-108028242D01*
G37*
G36*
X75157142Y-108028242D02*
X75305102Y-108089530D01*
X75438258Y-108178502D01*
X75551498Y-108291742D01*
X75640470Y-108424898D01*
X75701758Y-108572858D01*
X75733000Y-108729925D01*
X75733000Y-108890075D01*
X75701758Y-109047142D01*
X75640470Y-109195102D01*
X75551498Y-109328258D01*
X75438258Y-109441498D01*
X75305102Y-109530470D01*
X75157142Y-109591758D01*
X75000075Y-109623000D01*
X74839925Y-109623000D01*
X74682858Y-109591758D01*
X74534898Y-109530470D01*
X74401742Y-109441498D01*
X74288502Y-109328258D01*
X74199530Y-109195102D01*
X74138242Y-109047142D01*
X74107000Y-108890075D01*
X74107000Y-108729925D01*
X74138242Y-108572858D01*
X74199530Y-108424898D01*
X74288502Y-108291742D01*
X74401742Y-108178502D01*
X74534898Y-108089530D01*
X74682858Y-108028242D01*
X74839925Y-107997000D01*
X75000075Y-107997000D01*
X75157142Y-108028242D01*
X75157142Y-108028242D01*
G37*
G36*
X85317142Y-108028242D02*
X85465102Y-108089530D01*
X85598258Y-108178502D01*
X85711498Y-108291742D01*
X85800470Y-108424898D01*
X85861758Y-108572858D01*
X85893000Y-108729925D01*
X85893000Y-108890075D01*
X85861758Y-109047142D01*
X85800470Y-109195102D01*
X85711498Y-109328258D01*
X85598258Y-109441498D01*
X85465102Y-109530470D01*
X85317142Y-109591758D01*
X85160075Y-109623000D01*
X84999925Y-109623000D01*
X84842858Y-109591758D01*
X84694898Y-109530470D01*
X84561742Y-109441498D01*
X84448502Y-109328258D01*
X84359530Y-109195102D01*
X84298242Y-109047142D01*
X84267000Y-108890075D01*
X84267000Y-108729925D01*
X84298242Y-108572858D01*
X84359530Y-108424898D01*
X84448502Y-108291742D01*
X84561742Y-108178502D01*
X84694898Y-108089530D01*
X84842858Y-108028242D01*
X84999925Y-107997000D01*
X85160075Y-107997000D01*
X85317142Y-108028242D01*
X85317142Y-108028242D01*
G37*
G36*
X100157142Y-108028242D02*
X100305102Y-108089530D01*
X100438258Y-108178502D01*
X100551498Y-108291742D01*
X100640470Y-108424898D01*
X100701758Y-108572858D01*
X100733000Y-108729925D01*
X100733000Y-108890075D01*
X100701758Y-109047142D01*
X100640470Y-109195102D01*
X100551498Y-109328258D01*
X100438258Y-109441498D01*
X100305102Y-109530470D01*
X100157142Y-109591758D01*
X100000075Y-109623000D01*
X99839925Y-109623000D01*
X99682858Y-109591758D01*
X99534898Y-109530470D01*
X99401742Y-109441498D01*
X99288502Y-109328258D01*
X99199530Y-109195102D01*
X99138242Y-109047142D01*
X99107000Y-108890075D01*
X99107000Y-108729925D01*
X99138242Y-108572858D01*
X99199530Y-108424898D01*
X99288502Y-108291742D01*
X99401742Y-108178502D01*
X99534898Y-108089530D01*
X99682858Y-108028242D01*
X99839925Y-107997000D01*
X100000075Y-107997000D01*
X100157142Y-108028242D01*
X100157142Y-108028242D01*
G37*
G36*
X110317142Y-108028242D02*
X110465102Y-108089530D01*
X110598258Y-108178502D01*
X110711498Y-108291742D01*
X110800470Y-108424898D01*
X110861758Y-108572858D01*
X110893000Y-108729925D01*
X110893000Y-108890075D01*
X110861758Y-109047142D01*
X110800470Y-109195102D01*
X110711498Y-109328258D01*
X110598258Y-109441498D01*
X110465102Y-109530470D01*
X110317142Y-109591758D01*
X110160075Y-109623000D01*
X109999925Y-109623000D01*
X109842858Y-109591758D01*
X109694898Y-109530470D01*
X109561742Y-109441498D01*
X109448502Y-109328258D01*
X109359530Y-109195102D01*
X109298242Y-109047142D01*
X109267000Y-108890075D01*
X109267000Y-108729925D01*
X109298242Y-108572858D01*
X109359530Y-108424898D01*
X109448502Y-108291742D01*
X109561742Y-108178502D01*
X109694898Y-108089530D01*
X109842858Y-108028242D01*
X109999925Y-107997000D01*
X110160075Y-107997000D01*
X110317142Y-108028242D01*
X110317142Y-108028242D01*
G37*
G36*
X125157142Y-108028242D02*
X125305102Y-108089530D01*
X125438258Y-108178502D01*
X125551498Y-108291742D01*
X125640470Y-108424898D01*
X125701758Y-108572858D01*
X125733000Y-108729925D01*
X125733000Y-108890075D01*
X125701758Y-109047142D01*
X125640470Y-109195102D01*
X125551498Y-109328258D01*
X125438258Y-109441498D01*
X125305102Y-109530470D01*
X125157142Y-109591758D01*
X125000075Y-109623000D01*
X124839925Y-109623000D01*
X124682858Y-109591758D01*
X124534898Y-109530470D01*
X124401742Y-109441498D01*
X124288502Y-109328258D01*
X124199530Y-109195102D01*
X124138242Y-109047142D01*
X124107000Y-108890075D01*
X124107000Y-108729925D01*
X124138242Y-108572858D01*
X124199530Y-108424898D01*
X124288502Y-108291742D01*
X124401742Y-108178502D01*
X124534898Y-108089530D01*
X124682858Y-108028242D01*
X124839925Y-107997000D01*
X125000075Y-107997000D01*
X125157142Y-108028242D01*
X125157142Y-108028242D01*
G37*
G36*
X135317142Y-108028242D02*
X135465102Y-108089530D01*
X135598258Y-108178502D01*
X135711498Y-108291742D01*
X135800470Y-108424898D01*
X135861758Y-108572858D01*
X135893000Y-108729925D01*
X135893000Y-108890075D01*
X135861758Y-109047142D01*
X135800470Y-109195102D01*
X135711498Y-109328258D01*
X135598258Y-109441498D01*
X135465102Y-109530470D01*
X135317142Y-109591758D01*
X135160075Y-109623000D01*
X134999925Y-109623000D01*
X134842858Y-109591758D01*
X134694898Y-109530470D01*
X134561742Y-109441498D01*
X134448502Y-109328258D01*
X134359530Y-109195102D01*
X134298242Y-109047142D01*
X134267000Y-108890075D01*
X134267000Y-108729925D01*
X134298242Y-108572858D01*
X134359530Y-108424898D01*
X134448502Y-108291742D01*
X134561742Y-108178502D01*
X134694898Y-108089530D01*
X134842858Y-108028242D01*
X134999925Y-107997000D01*
X135160075Y-107997000D01*
X135317142Y-108028242D01*
X135317142Y-108028242D01*
G37*
G36*
X150157142Y-108028242D02*
X150305102Y-108089530D01*
X150438258Y-108178502D01*
X150551498Y-108291742D01*
X150640470Y-108424898D01*
X150701758Y-108572858D01*
X150733000Y-108729925D01*
X150733000Y-108890075D01*
X150701758Y-109047142D01*
X150640470Y-109195102D01*
X150551498Y-109328258D01*
X150438258Y-109441498D01*
X150305102Y-109530470D01*
X150157142Y-109591758D01*
X150000075Y-109623000D01*
X149839925Y-109623000D01*
X149682858Y-109591758D01*
X149534898Y-109530470D01*
X149401742Y-109441498D01*
X149288502Y-109328258D01*
X149199530Y-109195102D01*
X149138242Y-109047142D01*
X149107000Y-108890075D01*
X149107000Y-108729925D01*
X149138242Y-108572858D01*
X149199530Y-108424898D01*
X149288502Y-108291742D01*
X149401742Y-108178502D01*
X149534898Y-108089530D01*
X149682858Y-108028242D01*
X149839925Y-107997000D01*
X150000075Y-107997000D01*
X150157142Y-108028242D01*
X150157142Y-108028242D01*
G37*
G36*
X25157142Y-108028242D02*
X25305102Y-108089530D01*
X25438258Y-108178502D01*
X25551498Y-108291742D01*
X25640470Y-108424898D01*
X25701758Y-108572858D01*
X25733000Y-108729925D01*
X25733000Y-108890075D01*
X25701758Y-109047142D01*
X25640470Y-109195102D01*
X25551498Y-109328258D01*
X25438258Y-109441498D01*
X25305102Y-109530470D01*
X25157142Y-109591758D01*
X25000075Y-109623000D01*
X24839925Y-109623000D01*
X24682858Y-109591758D01*
X24534898Y-109530470D01*
X24401742Y-109441498D01*
X24288502Y-109328258D01*
X24199530Y-109195102D01*
X24138242Y-109047142D01*
X24107000Y-108890075D01*
X24107000Y-108729925D01*
X24138242Y-108572858D01*
X24199530Y-108424898D01*
X24288502Y-108291742D01*
X24401742Y-108178502D01*
X24534898Y-108089530D01*
X24682858Y-108028242D01*
X24839925Y-107997000D01*
X25000075Y-107997000D01*
X25157142Y-108028242D01*
X25157142Y-108028242D01*
G37*
G36*
X185317142Y-108028242D02*
X185465102Y-108089530D01*
X185598258Y-108178502D01*
X185711498Y-108291742D01*
X185800470Y-108424898D01*
X185861758Y-108572858D01*
X185893000Y-108729925D01*
X185893000Y-108890075D01*
X185861758Y-109047142D01*
X185800470Y-109195102D01*
X185711498Y-109328258D01*
X185598258Y-109441498D01*
X185465102Y-109530470D01*
X185317142Y-109591758D01*
X185160075Y-109623000D01*
X184999925Y-109623000D01*
X184842858Y-109591758D01*
X184694898Y-109530470D01*
X184561742Y-109441498D01*
X184448502Y-109328258D01*
X184359530Y-109195102D01*
X184298242Y-109047142D01*
X184267000Y-108890075D01*
X184267000Y-108729925D01*
X184298242Y-108572858D01*
X184359530Y-108424898D01*
X184448502Y-108291742D01*
X184561742Y-108178502D01*
X184694898Y-108089530D01*
X184842858Y-108028242D01*
X184999925Y-107997000D01*
X185160075Y-107997000D01*
X185317142Y-108028242D01*
X185317142Y-108028242D01*
G37*
G36*
X200157142Y-108028242D02*
X200305102Y-108089530D01*
X200438258Y-108178502D01*
X200551498Y-108291742D01*
X200640470Y-108424898D01*
X200701758Y-108572858D01*
X200733000Y-108729925D01*
X200733000Y-108890075D01*
X200701758Y-109047142D01*
X200640470Y-109195102D01*
X200551498Y-109328258D01*
X200438258Y-109441498D01*
X200305102Y-109530470D01*
X200157142Y-109591758D01*
X200000075Y-109623000D01*
X199839925Y-109623000D01*
X199682858Y-109591758D01*
X199534898Y-109530470D01*
X199401742Y-109441498D01*
X199288502Y-109328258D01*
X199199530Y-109195102D01*
X199138242Y-109047142D01*
X199107000Y-108890075D01*
X199107000Y-108729925D01*
X199138242Y-108572858D01*
X199199530Y-108424898D01*
X199288502Y-108291742D01*
X199401742Y-108178502D01*
X199534898Y-108089530D01*
X199682858Y-108028242D01*
X199839925Y-107997000D01*
X200000075Y-107997000D01*
X200157142Y-108028242D01*
X200157142Y-108028242D01*
G37*
G36*
X175157142Y-108028242D02*
X175305102Y-108089530D01*
X175438258Y-108178502D01*
X175551498Y-108291742D01*
X175640470Y-108424898D01*
X175701758Y-108572858D01*
X175733000Y-108729925D01*
X175733000Y-108890075D01*
X175701758Y-109047142D01*
X175640470Y-109195102D01*
X175551498Y-109328258D01*
X175438258Y-109441498D01*
X175305102Y-109530470D01*
X175157142Y-109591758D01*
X175000075Y-109623000D01*
X174839925Y-109623000D01*
X174682858Y-109591758D01*
X174534898Y-109530470D01*
X174401742Y-109441498D01*
X174288502Y-109328258D01*
X174199530Y-109195102D01*
X174138242Y-109047142D01*
X174107000Y-108890075D01*
X174107000Y-108729925D01*
X174138242Y-108572858D01*
X174199530Y-108424898D01*
X174288502Y-108291742D01*
X174401742Y-108178502D01*
X174534898Y-108089530D01*
X174682858Y-108028242D01*
X174839925Y-107997000D01*
X175000075Y-107997000D01*
X175157142Y-108028242D01*
X175157142Y-108028242D01*
G37*
G36*
X160317142Y-108028242D02*
X160465102Y-108089530D01*
X160598258Y-108178502D01*
X160711498Y-108291742D01*
X160800470Y-108424898D01*
X160861758Y-108572858D01*
X160893000Y-108729925D01*
X160893000Y-108890075D01*
X160861758Y-109047142D01*
X160800470Y-109195102D01*
X160711498Y-109328258D01*
X160598258Y-109441498D01*
X160465102Y-109530470D01*
X160317142Y-109591758D01*
X160160075Y-109623000D01*
X159999925Y-109623000D01*
X159842858Y-109591758D01*
X159694898Y-109530470D01*
X159561742Y-109441498D01*
X159448502Y-109328258D01*
X159359530Y-109195102D01*
X159298242Y-109047142D01*
X159267000Y-108890075D01*
X159267000Y-108729925D01*
X159298242Y-108572858D01*
X159359530Y-108424898D01*
X159448502Y-108291742D01*
X159561742Y-108178502D01*
X159694898Y-108089530D01*
X159842858Y-108028242D01*
X159999925Y-107997000D01*
X160160075Y-107997000D01*
X160317142Y-108028242D01*
X160317142Y-108028242D01*
G37*
G36*
X135317142Y-83028242D02*
X135465102Y-83089530D01*
X135598258Y-83178502D01*
X135711498Y-83291742D01*
X135800470Y-83424898D01*
X135861758Y-83572858D01*
X135893000Y-83729925D01*
X135893000Y-83890075D01*
X135861758Y-84047142D01*
X135800470Y-84195102D01*
X135711498Y-84328258D01*
X135598258Y-84441498D01*
X135465102Y-84530470D01*
X135317142Y-84591758D01*
X135160075Y-84623000D01*
X134999925Y-84623000D01*
X134842858Y-84591758D01*
X134694898Y-84530470D01*
X134561742Y-84441498D01*
X134448502Y-84328258D01*
X134359530Y-84195102D01*
X134298242Y-84047142D01*
X134267000Y-83890075D01*
X134267000Y-83729925D01*
X134298242Y-83572858D01*
X134359530Y-83424898D01*
X134448502Y-83291742D01*
X134561742Y-83178502D01*
X134694898Y-83089530D01*
X134842858Y-83028242D01*
X134999925Y-82997000D01*
X135160075Y-82997000D01*
X135317142Y-83028242D01*
X135317142Y-83028242D01*
G37*
G36*
X25157142Y-83028242D02*
X25305102Y-83089530D01*
X25438258Y-83178502D01*
X25551498Y-83291742D01*
X25640470Y-83424898D01*
X25701758Y-83572858D01*
X25733000Y-83729925D01*
X25733000Y-83890075D01*
X25701758Y-84047142D01*
X25640470Y-84195102D01*
X25551498Y-84328258D01*
X25438258Y-84441498D01*
X25305102Y-84530470D01*
X25157142Y-84591758D01*
X25000075Y-84623000D01*
X24839925Y-84623000D01*
X24682858Y-84591758D01*
X24534898Y-84530470D01*
X24401742Y-84441498D01*
X24288502Y-84328258D01*
X24199530Y-84195102D01*
X24138242Y-84047142D01*
X24107000Y-83890075D01*
X24107000Y-83729925D01*
X24138242Y-83572858D01*
X24199530Y-83424898D01*
X24288502Y-83291742D01*
X24401742Y-83178502D01*
X24534898Y-83089530D01*
X24682858Y-83028242D01*
X24839925Y-82997000D01*
X25000075Y-82997000D01*
X25157142Y-83028242D01*
X25157142Y-83028242D01*
G37*
G36*
X35317142Y-83028242D02*
X35465102Y-83089530D01*
X35598258Y-83178502D01*
X35711498Y-83291742D01*
X35800470Y-83424898D01*
X35861758Y-83572858D01*
X35893000Y-83729925D01*
X35893000Y-83890075D01*
X35861758Y-84047142D01*
X35800470Y-84195102D01*
X35711498Y-84328258D01*
X35598258Y-84441498D01*
X35465102Y-84530470D01*
X35317142Y-84591758D01*
X35160075Y-84623000D01*
X34999925Y-84623000D01*
X34842858Y-84591758D01*
X34694898Y-84530470D01*
X34561742Y-84441498D01*
X34448502Y-84328258D01*
X34359530Y-84195102D01*
X34298242Y-84047142D01*
X34267000Y-83890075D01*
X34267000Y-83729925D01*
X34298242Y-83572858D01*
X34359530Y-83424898D01*
X34448502Y-83291742D01*
X34561742Y-83178502D01*
X34694898Y-83089530D01*
X34842858Y-83028242D01*
X34999925Y-82997000D01*
X35160075Y-82997000D01*
X35317142Y-83028242D01*
X35317142Y-83028242D01*
G37*
G36*
X50157142Y-83028242D02*
X50305102Y-83089530D01*
X50438258Y-83178502D01*
X50551498Y-83291742D01*
X50640470Y-83424898D01*
X50701758Y-83572858D01*
X50733000Y-83729925D01*
X50733000Y-83890075D01*
X50701758Y-84047142D01*
X50640470Y-84195102D01*
X50551498Y-84328258D01*
X50438258Y-84441498D01*
X50305102Y-84530470D01*
X50157142Y-84591758D01*
X50000075Y-84623000D01*
X49839925Y-84623000D01*
X49682858Y-84591758D01*
X49534898Y-84530470D01*
X49401742Y-84441498D01*
X49288502Y-84328258D01*
X49199530Y-84195102D01*
X49138242Y-84047142D01*
X49107000Y-83890075D01*
X49107000Y-83729925D01*
X49138242Y-83572858D01*
X49199530Y-83424898D01*
X49288502Y-83291742D01*
X49401742Y-83178502D01*
X49534898Y-83089530D01*
X49682858Y-83028242D01*
X49839925Y-82997000D01*
X50000075Y-82997000D01*
X50157142Y-83028242D01*
X50157142Y-83028242D01*
G37*
G36*
X60317142Y-83028242D02*
X60465102Y-83089530D01*
X60598258Y-83178502D01*
X60711498Y-83291742D01*
X60800470Y-83424898D01*
X60861758Y-83572858D01*
X60893000Y-83729925D01*
X60893000Y-83890075D01*
X60861758Y-84047142D01*
X60800470Y-84195102D01*
X60711498Y-84328258D01*
X60598258Y-84441498D01*
X60465102Y-84530470D01*
X60317142Y-84591758D01*
X60160075Y-84623000D01*
X59999925Y-84623000D01*
X59842858Y-84591758D01*
X59694898Y-84530470D01*
X59561742Y-84441498D01*
X59448502Y-84328258D01*
X59359530Y-84195102D01*
X59298242Y-84047142D01*
X59267000Y-83890075D01*
X59267000Y-83729925D01*
X59298242Y-83572858D01*
X59359530Y-83424898D01*
X59448502Y-83291742D01*
X59561742Y-83178502D01*
X59694898Y-83089530D01*
X59842858Y-83028242D01*
X59999925Y-82997000D01*
X60160075Y-82997000D01*
X60317142Y-83028242D01*
X60317142Y-83028242D01*
G37*
G36*
X75157142Y-83028242D02*
X75305102Y-83089530D01*
X75438258Y-83178502D01*
X75551498Y-83291742D01*
X75640470Y-83424898D01*
X75701758Y-83572858D01*
X75733000Y-83729925D01*
X75733000Y-83890075D01*
X75701758Y-84047142D01*
X75640470Y-84195102D01*
X75551498Y-84328258D01*
X75438258Y-84441498D01*
X75305102Y-84530470D01*
X75157142Y-84591758D01*
X75000075Y-84623000D01*
X74839925Y-84623000D01*
X74682858Y-84591758D01*
X74534898Y-84530470D01*
X74401742Y-84441498D01*
X74288502Y-84328258D01*
X74199530Y-84195102D01*
X74138242Y-84047142D01*
X74107000Y-83890075D01*
X74107000Y-83729925D01*
X74138242Y-83572858D01*
X74199530Y-83424898D01*
X74288502Y-83291742D01*
X74401742Y-83178502D01*
X74534898Y-83089530D01*
X74682858Y-83028242D01*
X74839925Y-82997000D01*
X75000075Y-82997000D01*
X75157142Y-83028242D01*
X75157142Y-83028242D01*
G37*
G36*
X85317142Y-83028242D02*
X85465102Y-83089530D01*
X85598258Y-83178502D01*
X85711498Y-83291742D01*
X85800470Y-83424898D01*
X85861758Y-83572858D01*
X85893000Y-83729925D01*
X85893000Y-83890075D01*
X85861758Y-84047142D01*
X85800470Y-84195102D01*
X85711498Y-84328258D01*
X85598258Y-84441498D01*
X85465102Y-84530470D01*
X85317142Y-84591758D01*
X85160075Y-84623000D01*
X84999925Y-84623000D01*
X84842858Y-84591758D01*
X84694898Y-84530470D01*
X84561742Y-84441498D01*
X84448502Y-84328258D01*
X84359530Y-84195102D01*
X84298242Y-84047142D01*
X84267000Y-83890075D01*
X84267000Y-83729925D01*
X84298242Y-83572858D01*
X84359530Y-83424898D01*
X84448502Y-83291742D01*
X84561742Y-83178502D01*
X84694898Y-83089530D01*
X84842858Y-83028242D01*
X84999925Y-82997000D01*
X85160075Y-82997000D01*
X85317142Y-83028242D01*
X85317142Y-83028242D01*
G37*
G36*
X100157142Y-83028242D02*
X100305102Y-83089530D01*
X100438258Y-83178502D01*
X100551498Y-83291742D01*
X100640470Y-83424898D01*
X100701758Y-83572858D01*
X100733000Y-83729925D01*
X100733000Y-83890075D01*
X100701758Y-84047142D01*
X100640470Y-84195102D01*
X100551498Y-84328258D01*
X100438258Y-84441498D01*
X100305102Y-84530470D01*
X100157142Y-84591758D01*
X100000075Y-84623000D01*
X99839925Y-84623000D01*
X99682858Y-84591758D01*
X99534898Y-84530470D01*
X99401742Y-84441498D01*
X99288502Y-84328258D01*
X99199530Y-84195102D01*
X99138242Y-84047142D01*
X99107000Y-83890075D01*
X99107000Y-83729925D01*
X99138242Y-83572858D01*
X99199530Y-83424898D01*
X99288502Y-83291742D01*
X99401742Y-83178502D01*
X99534898Y-83089530D01*
X99682858Y-83028242D01*
X99839925Y-82997000D01*
X100000075Y-82997000D01*
X100157142Y-83028242D01*
X100157142Y-83028242D01*
G37*
G36*
X210317142Y-83028242D02*
X210465102Y-83089530D01*
X210598258Y-83178502D01*
X210711498Y-83291742D01*
X210800470Y-83424898D01*
X210861758Y-83572858D01*
X210893000Y-83729925D01*
X210893000Y-83890075D01*
X210861758Y-84047142D01*
X210800470Y-84195102D01*
X210711498Y-84328258D01*
X210598258Y-84441498D01*
X210465102Y-84530470D01*
X210317142Y-84591758D01*
X210160075Y-84623000D01*
X209999925Y-84623000D01*
X209842858Y-84591758D01*
X209694898Y-84530470D01*
X209561742Y-84441498D01*
X209448502Y-84328258D01*
X209359530Y-84195102D01*
X209298242Y-84047142D01*
X209267000Y-83890075D01*
X209267000Y-83729925D01*
X209298242Y-83572858D01*
X209359530Y-83424898D01*
X209448502Y-83291742D01*
X209561742Y-83178502D01*
X209694898Y-83089530D01*
X209842858Y-83028242D01*
X209999925Y-82997000D01*
X210160075Y-82997000D01*
X210317142Y-83028242D01*
X210317142Y-83028242D01*
G37*
G36*
X125157142Y-83028242D02*
X125305102Y-83089530D01*
X125438258Y-83178502D01*
X125551498Y-83291742D01*
X125640470Y-83424898D01*
X125701758Y-83572858D01*
X125733000Y-83729925D01*
X125733000Y-83890075D01*
X125701758Y-84047142D01*
X125640470Y-84195102D01*
X125551498Y-84328258D01*
X125438258Y-84441498D01*
X125305102Y-84530470D01*
X125157142Y-84591758D01*
X125000075Y-84623000D01*
X124839925Y-84623000D01*
X124682858Y-84591758D01*
X124534898Y-84530470D01*
X124401742Y-84441498D01*
X124288502Y-84328258D01*
X124199530Y-84195102D01*
X124138242Y-84047142D01*
X124107000Y-83890075D01*
X124107000Y-83729925D01*
X124138242Y-83572858D01*
X124199530Y-83424898D01*
X124288502Y-83291742D01*
X124401742Y-83178502D01*
X124534898Y-83089530D01*
X124682858Y-83028242D01*
X124839925Y-82997000D01*
X125000075Y-82997000D01*
X125157142Y-83028242D01*
X125157142Y-83028242D01*
G37*
G36*
X160317142Y-83028242D02*
X160465102Y-83089530D01*
X160598258Y-83178502D01*
X160711498Y-83291742D01*
X160800470Y-83424898D01*
X160861758Y-83572858D01*
X160893000Y-83729925D01*
X160893000Y-83890075D01*
X160861758Y-84047142D01*
X160800470Y-84195102D01*
X160711498Y-84328258D01*
X160598258Y-84441498D01*
X160465102Y-84530470D01*
X160317142Y-84591758D01*
X160160075Y-84623000D01*
X159999925Y-84623000D01*
X159842858Y-84591758D01*
X159694898Y-84530470D01*
X159561742Y-84441498D01*
X159448502Y-84328258D01*
X159359530Y-84195102D01*
X159298242Y-84047142D01*
X159267000Y-83890075D01*
X159267000Y-83729925D01*
X159298242Y-83572858D01*
X159359530Y-83424898D01*
X159448502Y-83291742D01*
X159561742Y-83178502D01*
X159694898Y-83089530D01*
X159842858Y-83028242D01*
X159999925Y-82997000D01*
X160160075Y-82997000D01*
X160317142Y-83028242D01*
X160317142Y-83028242D01*
G37*
G36*
X150157142Y-83028242D02*
X150305102Y-83089530D01*
X150438258Y-83178502D01*
X150551498Y-83291742D01*
X150640470Y-83424898D01*
X150701758Y-83572858D01*
X150733000Y-83729925D01*
X150733000Y-83890075D01*
X150701758Y-84047142D01*
X150640470Y-84195102D01*
X150551498Y-84328258D01*
X150438258Y-84441498D01*
X150305102Y-84530470D01*
X150157142Y-84591758D01*
X150000075Y-84623000D01*
X149839925Y-84623000D01*
X149682858Y-84591758D01*
X149534898Y-84530470D01*
X149401742Y-84441498D01*
X149288502Y-84328258D01*
X149199530Y-84195102D01*
X149138242Y-84047142D01*
X149107000Y-83890075D01*
X149107000Y-83729925D01*
X149138242Y-83572858D01*
X149199530Y-83424898D01*
X149288502Y-83291742D01*
X149401742Y-83178502D01*
X149534898Y-83089530D01*
X149682858Y-83028242D01*
X149839925Y-82997000D01*
X150000075Y-82997000D01*
X150157142Y-83028242D01*
X150157142Y-83028242D01*
G37*
G36*
X175157142Y-83028242D02*
X175305102Y-83089530D01*
X175438258Y-83178502D01*
X175551498Y-83291742D01*
X175640470Y-83424898D01*
X175701758Y-83572858D01*
X175733000Y-83729925D01*
X175733000Y-83890075D01*
X175701758Y-84047142D01*
X175640470Y-84195102D01*
X175551498Y-84328258D01*
X175438258Y-84441498D01*
X175305102Y-84530470D01*
X175157142Y-84591758D01*
X175000075Y-84623000D01*
X174839925Y-84623000D01*
X174682858Y-84591758D01*
X174534898Y-84530470D01*
X174401742Y-84441498D01*
X174288502Y-84328258D01*
X174199530Y-84195102D01*
X174138242Y-84047142D01*
X174107000Y-83890075D01*
X174107000Y-83729925D01*
X174138242Y-83572858D01*
X174199530Y-83424898D01*
X174288502Y-83291742D01*
X174401742Y-83178502D01*
X174534898Y-83089530D01*
X174682858Y-83028242D01*
X174839925Y-82997000D01*
X175000075Y-82997000D01*
X175157142Y-83028242D01*
X175157142Y-83028242D01*
G37*
G36*
X110317142Y-83028242D02*
X110465102Y-83089530D01*
X110598258Y-83178502D01*
X110711498Y-83291742D01*
X110800470Y-83424898D01*
X110861758Y-83572858D01*
X110893000Y-83729925D01*
X110893000Y-83890075D01*
X110861758Y-84047142D01*
X110800470Y-84195102D01*
X110711498Y-84328258D01*
X110598258Y-84441498D01*
X110465102Y-84530470D01*
X110317142Y-84591758D01*
X110160075Y-84623000D01*
X109999925Y-84623000D01*
X109842858Y-84591758D01*
X109694898Y-84530470D01*
X109561742Y-84441498D01*
X109448502Y-84328258D01*
X109359530Y-84195102D01*
X109298242Y-84047142D01*
X109267000Y-83890075D01*
X109267000Y-83729925D01*
X109298242Y-83572858D01*
X109359530Y-83424898D01*
X109448502Y-83291742D01*
X109561742Y-83178502D01*
X109694898Y-83089530D01*
X109842858Y-83028242D01*
X109999925Y-82997000D01*
X110160075Y-82997000D01*
X110317142Y-83028242D01*
X110317142Y-83028242D01*
G37*
G36*
X185317142Y-83028242D02*
X185465102Y-83089530D01*
X185598258Y-83178502D01*
X185711498Y-83291742D01*
X185800470Y-83424898D01*
X185861758Y-83572858D01*
X185893000Y-83729925D01*
X185893000Y-83890075D01*
X185861758Y-84047142D01*
X185800470Y-84195102D01*
X185711498Y-84328258D01*
X185598258Y-84441498D01*
X185465102Y-84530470D01*
X185317142Y-84591758D01*
X185160075Y-84623000D01*
X184999925Y-84623000D01*
X184842858Y-84591758D01*
X184694898Y-84530470D01*
X184561742Y-84441498D01*
X184448502Y-84328258D01*
X184359530Y-84195102D01*
X184298242Y-84047142D01*
X184267000Y-83890075D01*
X184267000Y-83729925D01*
X184298242Y-83572858D01*
X184359530Y-83424898D01*
X184448502Y-83291742D01*
X184561742Y-83178502D01*
X184694898Y-83089530D01*
X184842858Y-83028242D01*
X184999925Y-82997000D01*
X185160075Y-82997000D01*
X185317142Y-83028242D01*
X185317142Y-83028242D01*
G37*
G36*
X200157142Y-83028242D02*
X200305102Y-83089530D01*
X200438258Y-83178502D01*
X200551498Y-83291742D01*
X200640470Y-83424898D01*
X200701758Y-83572858D01*
X200733000Y-83729925D01*
X200733000Y-83890075D01*
X200701758Y-84047142D01*
X200640470Y-84195102D01*
X200551498Y-84328258D01*
X200438258Y-84441498D01*
X200305102Y-84530470D01*
X200157142Y-84591758D01*
X200000075Y-84623000D01*
X199839925Y-84623000D01*
X199682858Y-84591758D01*
X199534898Y-84530470D01*
X199401742Y-84441498D01*
X199288502Y-84328258D01*
X199199530Y-84195102D01*
X199138242Y-84047142D01*
X199107000Y-83890075D01*
X199107000Y-83729925D01*
X199138242Y-83572858D01*
X199199530Y-83424898D01*
X199288502Y-83291742D01*
X199401742Y-83178502D01*
X199534898Y-83089530D01*
X199682858Y-83028242D01*
X199839925Y-82997000D01*
X200000075Y-82997000D01*
X200157142Y-83028242D01*
X200157142Y-83028242D01*
G37*
G36*
X50157142Y-58028242D02*
X50305102Y-58089530D01*
X50438258Y-58178502D01*
X50551498Y-58291742D01*
X50640470Y-58424898D01*
X50701758Y-58572858D01*
X50733000Y-58729925D01*
X50733000Y-58890075D01*
X50701758Y-59047142D01*
X50640470Y-59195102D01*
X50551498Y-59328258D01*
X50438258Y-59441498D01*
X50305102Y-59530470D01*
X50157142Y-59591758D01*
X50000075Y-59623000D01*
X49839925Y-59623000D01*
X49682858Y-59591758D01*
X49534898Y-59530470D01*
X49401742Y-59441498D01*
X49288502Y-59328258D01*
X49199530Y-59195102D01*
X49138242Y-59047142D01*
X49107000Y-58890075D01*
X49107000Y-58729925D01*
X49138242Y-58572858D01*
X49199530Y-58424898D01*
X49288502Y-58291742D01*
X49401742Y-58178502D01*
X49534898Y-58089530D01*
X49682858Y-58028242D01*
X49839925Y-57997000D01*
X50000075Y-57997000D01*
X50157142Y-58028242D01*
X50157142Y-58028242D01*
G37*
G36*
X35317142Y-58028242D02*
X35465102Y-58089530D01*
X35598258Y-58178502D01*
X35711498Y-58291742D01*
X35800470Y-58424898D01*
X35861758Y-58572858D01*
X35893000Y-58729925D01*
X35893000Y-58890075D01*
X35861758Y-59047142D01*
X35800470Y-59195102D01*
X35711498Y-59328258D01*
X35598258Y-59441498D01*
X35465102Y-59530470D01*
X35317142Y-59591758D01*
X35160075Y-59623000D01*
X34999925Y-59623000D01*
X34842858Y-59591758D01*
X34694898Y-59530470D01*
X34561742Y-59441498D01*
X34448502Y-59328258D01*
X34359530Y-59195102D01*
X34298242Y-59047142D01*
X34267000Y-58890075D01*
X34267000Y-58729925D01*
X34298242Y-58572858D01*
X34359530Y-58424898D01*
X34448502Y-58291742D01*
X34561742Y-58178502D01*
X34694898Y-58089530D01*
X34842858Y-58028242D01*
X34999925Y-57997000D01*
X35160075Y-57997000D01*
X35317142Y-58028242D01*
X35317142Y-58028242D01*
G37*
G36*
X25157142Y-58028242D02*
X25305102Y-58089530D01*
X25438258Y-58178502D01*
X25551498Y-58291742D01*
X25640470Y-58424898D01*
X25701758Y-58572858D01*
X25733000Y-58729925D01*
X25733000Y-58890075D01*
X25701758Y-59047142D01*
X25640470Y-59195102D01*
X25551498Y-59328258D01*
X25438258Y-59441498D01*
X25305102Y-59530470D01*
X25157142Y-59591758D01*
X25000075Y-59623000D01*
X24839925Y-59623000D01*
X24682858Y-59591758D01*
X24534898Y-59530470D01*
X24401742Y-59441498D01*
X24288502Y-59328258D01*
X24199530Y-59195102D01*
X24138242Y-59047142D01*
X24107000Y-58890075D01*
X24107000Y-58729925D01*
X24138242Y-58572858D01*
X24199530Y-58424898D01*
X24288502Y-58291742D01*
X24401742Y-58178502D01*
X24534898Y-58089530D01*
X24682858Y-58028242D01*
X24839925Y-57997000D01*
X25000075Y-57997000D01*
X25157142Y-58028242D01*
X25157142Y-58028242D01*
G37*
G36*
X60317142Y-58028242D02*
X60465102Y-58089530D01*
X60598258Y-58178502D01*
X60711498Y-58291742D01*
X60800470Y-58424898D01*
X60861758Y-58572858D01*
X60893000Y-58729925D01*
X60893000Y-58890075D01*
X60861758Y-59047142D01*
X60800470Y-59195102D01*
X60711498Y-59328258D01*
X60598258Y-59441498D01*
X60465102Y-59530470D01*
X60317142Y-59591758D01*
X60160075Y-59623000D01*
X59999925Y-59623000D01*
X59842858Y-59591758D01*
X59694898Y-59530470D01*
X59561742Y-59441498D01*
X59448502Y-59328258D01*
X59359530Y-59195102D01*
X59298242Y-59047142D01*
X59267000Y-58890075D01*
X59267000Y-58729925D01*
X59298242Y-58572858D01*
X59359530Y-58424898D01*
X59448502Y-58291742D01*
X59561742Y-58178502D01*
X59694898Y-58089530D01*
X59842858Y-58028242D01*
X59999925Y-57997000D01*
X60160075Y-57997000D01*
X60317142Y-58028242D01*
X60317142Y-58028242D01*
G37*
G36*
X200157142Y-58028242D02*
X200305102Y-58089530D01*
X200438258Y-58178502D01*
X200551498Y-58291742D01*
X200640470Y-58424898D01*
X200701758Y-58572858D01*
X200733000Y-58729925D01*
X200733000Y-58890075D01*
X200701758Y-59047142D01*
X200640470Y-59195102D01*
X200551498Y-59328258D01*
X200438258Y-59441498D01*
X200305102Y-59530470D01*
X200157142Y-59591758D01*
X200000075Y-59623000D01*
X199839925Y-59623000D01*
X199682858Y-59591758D01*
X199534898Y-59530470D01*
X199401742Y-59441498D01*
X199288502Y-59328258D01*
X199199530Y-59195102D01*
X199138242Y-59047142D01*
X199107000Y-58890075D01*
X199107000Y-58729925D01*
X199138242Y-58572858D01*
X199199530Y-58424898D01*
X199288502Y-58291742D01*
X199401742Y-58178502D01*
X199534898Y-58089530D01*
X199682858Y-58028242D01*
X199839925Y-57997000D01*
X200000075Y-57997000D01*
X200157142Y-58028242D01*
X200157142Y-58028242D01*
G37*
G36*
X210317142Y-58028242D02*
X210465102Y-58089530D01*
X210598258Y-58178502D01*
X210711498Y-58291742D01*
X210800470Y-58424898D01*
X210861758Y-58572858D01*
X210893000Y-58729925D01*
X210893000Y-58890075D01*
X210861758Y-59047142D01*
X210800470Y-59195102D01*
X210711498Y-59328258D01*
X210598258Y-59441498D01*
X210465102Y-59530470D01*
X210317142Y-59591758D01*
X210160075Y-59623000D01*
X209999925Y-59623000D01*
X209842858Y-59591758D01*
X209694898Y-59530470D01*
X209561742Y-59441498D01*
X209448502Y-59328258D01*
X209359530Y-59195102D01*
X209298242Y-59047142D01*
X209267000Y-58890075D01*
X209267000Y-58729925D01*
X209298242Y-58572858D01*
X209359530Y-58424898D01*
X209448502Y-58291742D01*
X209561742Y-58178502D01*
X209694898Y-58089530D01*
X209842858Y-58028242D01*
X209999925Y-57997000D01*
X210160075Y-57997000D01*
X210317142Y-58028242D01*
X210317142Y-58028242D01*
G37*
G36*
X175157142Y-58028242D02*
X175305102Y-58089530D01*
X175438258Y-58178502D01*
X175551498Y-58291742D01*
X175640470Y-58424898D01*
X175701758Y-58572858D01*
X175733000Y-58729925D01*
X175733000Y-58890075D01*
X175701758Y-59047142D01*
X175640470Y-59195102D01*
X175551498Y-59328258D01*
X175438258Y-59441498D01*
X175305102Y-59530470D01*
X175157142Y-59591758D01*
X175000075Y-59623000D01*
X174839925Y-59623000D01*
X174682858Y-59591758D01*
X174534898Y-59530470D01*
X174401742Y-59441498D01*
X174288502Y-59328258D01*
X174199530Y-59195102D01*
X174138242Y-59047142D01*
X174107000Y-58890075D01*
X174107000Y-58729925D01*
X174138242Y-58572858D01*
X174199530Y-58424898D01*
X174288502Y-58291742D01*
X174401742Y-58178502D01*
X174534898Y-58089530D01*
X174682858Y-58028242D01*
X174839925Y-57997000D01*
X175000075Y-57997000D01*
X175157142Y-58028242D01*
X175157142Y-58028242D01*
G37*
G36*
X185317142Y-58028242D02*
X185465102Y-58089530D01*
X185598258Y-58178502D01*
X185711498Y-58291742D01*
X185800470Y-58424898D01*
X185861758Y-58572858D01*
X185893000Y-58729925D01*
X185893000Y-58890075D01*
X185861758Y-59047142D01*
X185800470Y-59195102D01*
X185711498Y-59328258D01*
X185598258Y-59441498D01*
X185465102Y-59530470D01*
X185317142Y-59591758D01*
X185160075Y-59623000D01*
X184999925Y-59623000D01*
X184842858Y-59591758D01*
X184694898Y-59530470D01*
X184561742Y-59441498D01*
X184448502Y-59328258D01*
X184359530Y-59195102D01*
X184298242Y-59047142D01*
X184267000Y-58890075D01*
X184267000Y-58729925D01*
X184298242Y-58572858D01*
X184359530Y-58424898D01*
X184448502Y-58291742D01*
X184561742Y-58178502D01*
X184694898Y-58089530D01*
X184842858Y-58028242D01*
X184999925Y-57997000D01*
X185160075Y-57997000D01*
X185317142Y-58028242D01*
X185317142Y-58028242D01*
G37*
G36*
X160317142Y-58028242D02*
X160465102Y-58089530D01*
X160598258Y-58178502D01*
X160711498Y-58291742D01*
X160800470Y-58424898D01*
X160861758Y-58572858D01*
X160893000Y-58729925D01*
X160893000Y-58890075D01*
X160861758Y-59047142D01*
X160800470Y-59195102D01*
X160711498Y-59328258D01*
X160598258Y-59441498D01*
X160465102Y-59530470D01*
X160317142Y-59591758D01*
X160160075Y-59623000D01*
X159999925Y-59623000D01*
X159842858Y-59591758D01*
X159694898Y-59530470D01*
X159561742Y-59441498D01*
X159448502Y-59328258D01*
X159359530Y-59195102D01*
X159298242Y-59047142D01*
X159267000Y-58890075D01*
X159267000Y-58729925D01*
X159298242Y-58572858D01*
X159359530Y-58424898D01*
X159448502Y-58291742D01*
X159561742Y-58178502D01*
X159694898Y-58089530D01*
X159842858Y-58028242D01*
X159999925Y-57997000D01*
X160160075Y-57997000D01*
X160317142Y-58028242D01*
X160317142Y-58028242D01*
G37*
G36*
X125157142Y-58028242D02*
X125305102Y-58089530D01*
X125438258Y-58178502D01*
X125551498Y-58291742D01*
X125640470Y-58424898D01*
X125701758Y-58572858D01*
X125733000Y-58729925D01*
X125733000Y-58890075D01*
X125701758Y-59047142D01*
X125640470Y-59195102D01*
X125551498Y-59328258D01*
X125438258Y-59441498D01*
X125305102Y-59530470D01*
X125157142Y-59591758D01*
X125000075Y-59623000D01*
X124839925Y-59623000D01*
X124682858Y-59591758D01*
X124534898Y-59530470D01*
X124401742Y-59441498D01*
X124288502Y-59328258D01*
X124199530Y-59195102D01*
X124138242Y-59047142D01*
X124107000Y-58890075D01*
X124107000Y-58729925D01*
X124138242Y-58572858D01*
X124199530Y-58424898D01*
X124288502Y-58291742D01*
X124401742Y-58178502D01*
X124534898Y-58089530D01*
X124682858Y-58028242D01*
X124839925Y-57997000D01*
X125000075Y-57997000D01*
X125157142Y-58028242D01*
X125157142Y-58028242D01*
G37*
G36*
X135317142Y-58028242D02*
X135465102Y-58089530D01*
X135598258Y-58178502D01*
X135711498Y-58291742D01*
X135800470Y-58424898D01*
X135861758Y-58572858D01*
X135893000Y-58729925D01*
X135893000Y-58890075D01*
X135861758Y-59047142D01*
X135800470Y-59195102D01*
X135711498Y-59328258D01*
X135598258Y-59441498D01*
X135465102Y-59530470D01*
X135317142Y-59591758D01*
X135160075Y-59623000D01*
X134999925Y-59623000D01*
X134842858Y-59591758D01*
X134694898Y-59530470D01*
X134561742Y-59441498D01*
X134448502Y-59328258D01*
X134359530Y-59195102D01*
X134298242Y-59047142D01*
X134267000Y-58890075D01*
X134267000Y-58729925D01*
X134298242Y-58572858D01*
X134359530Y-58424898D01*
X134448502Y-58291742D01*
X134561742Y-58178502D01*
X134694898Y-58089530D01*
X134842858Y-58028242D01*
X134999925Y-57997000D01*
X135160075Y-57997000D01*
X135317142Y-58028242D01*
X135317142Y-58028242D01*
G37*
G36*
X100157142Y-58028242D02*
X100305102Y-58089530D01*
X100438258Y-58178502D01*
X100551498Y-58291742D01*
X100640470Y-58424898D01*
X100701758Y-58572858D01*
X100733000Y-58729925D01*
X100733000Y-58890075D01*
X100701758Y-59047142D01*
X100640470Y-59195102D01*
X100551498Y-59328258D01*
X100438258Y-59441498D01*
X100305102Y-59530470D01*
X100157142Y-59591758D01*
X100000075Y-59623000D01*
X99839925Y-59623000D01*
X99682858Y-59591758D01*
X99534898Y-59530470D01*
X99401742Y-59441498D01*
X99288502Y-59328258D01*
X99199530Y-59195102D01*
X99138242Y-59047142D01*
X99107000Y-58890075D01*
X99107000Y-58729925D01*
X99138242Y-58572858D01*
X99199530Y-58424898D01*
X99288502Y-58291742D01*
X99401742Y-58178502D01*
X99534898Y-58089530D01*
X99682858Y-58028242D01*
X99839925Y-57997000D01*
X100000075Y-57997000D01*
X100157142Y-58028242D01*
X100157142Y-58028242D01*
G37*
G36*
X110317142Y-58028242D02*
X110465102Y-58089530D01*
X110598258Y-58178502D01*
X110711498Y-58291742D01*
X110800470Y-58424898D01*
X110861758Y-58572858D01*
X110893000Y-58729925D01*
X110893000Y-58890075D01*
X110861758Y-59047142D01*
X110800470Y-59195102D01*
X110711498Y-59328258D01*
X110598258Y-59441498D01*
X110465102Y-59530470D01*
X110317142Y-59591758D01*
X110160075Y-59623000D01*
X109999925Y-59623000D01*
X109842858Y-59591758D01*
X109694898Y-59530470D01*
X109561742Y-59441498D01*
X109448502Y-59328258D01*
X109359530Y-59195102D01*
X109298242Y-59047142D01*
X109267000Y-58890075D01*
X109267000Y-58729925D01*
X109298242Y-58572858D01*
X109359530Y-58424898D01*
X109448502Y-58291742D01*
X109561742Y-58178502D01*
X109694898Y-58089530D01*
X109842858Y-58028242D01*
X109999925Y-57997000D01*
X110160075Y-57997000D01*
X110317142Y-58028242D01*
X110317142Y-58028242D01*
G37*
G36*
X75157142Y-58028242D02*
X75305102Y-58089530D01*
X75438258Y-58178502D01*
X75551498Y-58291742D01*
X75640470Y-58424898D01*
X75701758Y-58572858D01*
X75733000Y-58729925D01*
X75733000Y-58890075D01*
X75701758Y-59047142D01*
X75640470Y-59195102D01*
X75551498Y-59328258D01*
X75438258Y-59441498D01*
X75305102Y-59530470D01*
X75157142Y-59591758D01*
X75000075Y-59623000D01*
X74839925Y-59623000D01*
X74682858Y-59591758D01*
X74534898Y-59530470D01*
X74401742Y-59441498D01*
X74288502Y-59328258D01*
X74199530Y-59195102D01*
X74138242Y-59047142D01*
X74107000Y-58890075D01*
X74107000Y-58729925D01*
X74138242Y-58572858D01*
X74199530Y-58424898D01*
X74288502Y-58291742D01*
X74401742Y-58178502D01*
X74534898Y-58089530D01*
X74682858Y-58028242D01*
X74839925Y-57997000D01*
X75000075Y-57997000D01*
X75157142Y-58028242D01*
X75157142Y-58028242D01*
G37*
G36*
X85317142Y-58028242D02*
X85465102Y-58089530D01*
X85598258Y-58178502D01*
X85711498Y-58291742D01*
X85800470Y-58424898D01*
X85861758Y-58572858D01*
X85893000Y-58729925D01*
X85893000Y-58890075D01*
X85861758Y-59047142D01*
X85800470Y-59195102D01*
X85711498Y-59328258D01*
X85598258Y-59441498D01*
X85465102Y-59530470D01*
X85317142Y-59591758D01*
X85160075Y-59623000D01*
X84999925Y-59623000D01*
X84842858Y-59591758D01*
X84694898Y-59530470D01*
X84561742Y-59441498D01*
X84448502Y-59328258D01*
X84359530Y-59195102D01*
X84298242Y-59047142D01*
X84267000Y-58890075D01*
X84267000Y-58729925D01*
X84298242Y-58572858D01*
X84359530Y-58424898D01*
X84448502Y-58291742D01*
X84561742Y-58178502D01*
X84694898Y-58089530D01*
X84842858Y-58028242D01*
X84999925Y-57997000D01*
X85160075Y-57997000D01*
X85317142Y-58028242D01*
X85317142Y-58028242D01*
G37*
G36*
X150157142Y-58028242D02*
X150305102Y-58089530D01*
X150438258Y-58178502D01*
X150551498Y-58291742D01*
X150640470Y-58424898D01*
X150701758Y-58572858D01*
X150733000Y-58729925D01*
X150733000Y-58890075D01*
X150701758Y-59047142D01*
X150640470Y-59195102D01*
X150551498Y-59328258D01*
X150438258Y-59441498D01*
X150305102Y-59530470D01*
X150157142Y-59591758D01*
X150000075Y-59623000D01*
X149839925Y-59623000D01*
X149682858Y-59591758D01*
X149534898Y-59530470D01*
X149401742Y-59441498D01*
X149288502Y-59328258D01*
X149199530Y-59195102D01*
X149138242Y-59047142D01*
X149107000Y-58890075D01*
X149107000Y-58729925D01*
X149138242Y-58572858D01*
X149199530Y-58424898D01*
X149288502Y-58291742D01*
X149401742Y-58178502D01*
X149534898Y-58089530D01*
X149682858Y-58028242D01*
X149839925Y-57997000D01*
X150000075Y-57997000D01*
X150157142Y-58028242D01*
X150157142Y-58028242D01*
G37*
G36*
X35317142Y-33028242D02*
X35465102Y-33089530D01*
X35598258Y-33178502D01*
X35711498Y-33291742D01*
X35800470Y-33424898D01*
X35861758Y-33572858D01*
X35893000Y-33729925D01*
X35893000Y-33890075D01*
X35861758Y-34047142D01*
X35800470Y-34195102D01*
X35711498Y-34328258D01*
X35598258Y-34441498D01*
X35465102Y-34530470D01*
X35317142Y-34591758D01*
X35160075Y-34623000D01*
X34999925Y-34623000D01*
X34842858Y-34591758D01*
X34694898Y-34530470D01*
X34561742Y-34441498D01*
X34448502Y-34328258D01*
X34359530Y-34195102D01*
X34298242Y-34047142D01*
X34267000Y-33890075D01*
X34267000Y-33729925D01*
X34298242Y-33572858D01*
X34359530Y-33424898D01*
X34448502Y-33291742D01*
X34561742Y-33178502D01*
X34694898Y-33089530D01*
X34842858Y-33028242D01*
X34999925Y-32997000D01*
X35160075Y-32997000D01*
X35317142Y-33028242D01*
X35317142Y-33028242D01*
G37*
G36*
X60317142Y-33028242D02*
X60465102Y-33089530D01*
X60598258Y-33178502D01*
X60711498Y-33291742D01*
X60800470Y-33424898D01*
X60861758Y-33572858D01*
X60893000Y-33729925D01*
X60893000Y-33890075D01*
X60861758Y-34047142D01*
X60800470Y-34195102D01*
X60711498Y-34328258D01*
X60598258Y-34441498D01*
X60465102Y-34530470D01*
X60317142Y-34591758D01*
X60160075Y-34623000D01*
X59999925Y-34623000D01*
X59842858Y-34591758D01*
X59694898Y-34530470D01*
X59561742Y-34441498D01*
X59448502Y-34328258D01*
X59359530Y-34195102D01*
X59298242Y-34047142D01*
X59267000Y-33890075D01*
X59267000Y-33729925D01*
X59298242Y-33572858D01*
X59359530Y-33424898D01*
X59448502Y-33291742D01*
X59561742Y-33178502D01*
X59694898Y-33089530D01*
X59842858Y-33028242D01*
X59999925Y-32997000D01*
X60160075Y-32997000D01*
X60317142Y-33028242D01*
X60317142Y-33028242D01*
G37*
G36*
X50157142Y-33028242D02*
X50305102Y-33089530D01*
X50438258Y-33178502D01*
X50551498Y-33291742D01*
X50640470Y-33424898D01*
X50701758Y-33572858D01*
X50733000Y-33729925D01*
X50733000Y-33890075D01*
X50701758Y-34047142D01*
X50640470Y-34195102D01*
X50551498Y-34328258D01*
X50438258Y-34441498D01*
X50305102Y-34530470D01*
X50157142Y-34591758D01*
X50000075Y-34623000D01*
X49839925Y-34623000D01*
X49682858Y-34591758D01*
X49534898Y-34530470D01*
X49401742Y-34441498D01*
X49288502Y-34328258D01*
X49199530Y-34195102D01*
X49138242Y-34047142D01*
X49107000Y-33890075D01*
X49107000Y-33729925D01*
X49138242Y-33572858D01*
X49199530Y-33424898D01*
X49288502Y-33291742D01*
X49401742Y-33178502D01*
X49534898Y-33089530D01*
X49682858Y-33028242D01*
X49839925Y-32997000D01*
X50000075Y-32997000D01*
X50157142Y-33028242D01*
X50157142Y-33028242D01*
G37*
G36*
X85317142Y-33028242D02*
X85465102Y-33089530D01*
X85598258Y-33178502D01*
X85711498Y-33291742D01*
X85800470Y-33424898D01*
X85861758Y-33572858D01*
X85893000Y-33729925D01*
X85893000Y-33890075D01*
X85861758Y-34047142D01*
X85800470Y-34195102D01*
X85711498Y-34328258D01*
X85598258Y-34441498D01*
X85465102Y-34530470D01*
X85317142Y-34591758D01*
X85160075Y-34623000D01*
X84999925Y-34623000D01*
X84842858Y-34591758D01*
X84694898Y-34530470D01*
X84561742Y-34441498D01*
X84448502Y-34328258D01*
X84359530Y-34195102D01*
X84298242Y-34047142D01*
X84267000Y-33890075D01*
X84267000Y-33729925D01*
X84298242Y-33572858D01*
X84359530Y-33424898D01*
X84448502Y-33291742D01*
X84561742Y-33178502D01*
X84694898Y-33089530D01*
X84842858Y-33028242D01*
X84999925Y-32997000D01*
X85160075Y-32997000D01*
X85317142Y-33028242D01*
X85317142Y-33028242D01*
G37*
G36*
X75157142Y-33028242D02*
X75305102Y-33089530D01*
X75438258Y-33178502D01*
X75551498Y-33291742D01*
X75640470Y-33424898D01*
X75701758Y-33572858D01*
X75733000Y-33729925D01*
X75733000Y-33890075D01*
X75701758Y-34047142D01*
X75640470Y-34195102D01*
X75551498Y-34328258D01*
X75438258Y-34441498D01*
X75305102Y-34530470D01*
X75157142Y-34591758D01*
X75000075Y-34623000D01*
X74839925Y-34623000D01*
X74682858Y-34591758D01*
X74534898Y-34530470D01*
X74401742Y-34441498D01*
X74288502Y-34328258D01*
X74199530Y-34195102D01*
X74138242Y-34047142D01*
X74107000Y-33890075D01*
X74107000Y-33729925D01*
X74138242Y-33572858D01*
X74199530Y-33424898D01*
X74288502Y-33291742D01*
X74401742Y-33178502D01*
X74534898Y-33089530D01*
X74682858Y-33028242D01*
X74839925Y-32997000D01*
X75000075Y-32997000D01*
X75157142Y-33028242D01*
X75157142Y-33028242D01*
G37*
G36*
X110317142Y-33028242D02*
X110465102Y-33089530D01*
X110598258Y-33178502D01*
X110711498Y-33291742D01*
X110800470Y-33424898D01*
X110861758Y-33572858D01*
X110893000Y-33729925D01*
X110893000Y-33890075D01*
X110861758Y-34047142D01*
X110800470Y-34195102D01*
X110711498Y-34328258D01*
X110598258Y-34441498D01*
X110465102Y-34530470D01*
X110317142Y-34591758D01*
X110160075Y-34623000D01*
X109999925Y-34623000D01*
X109842858Y-34591758D01*
X109694898Y-34530470D01*
X109561742Y-34441498D01*
X109448502Y-34328258D01*
X109359530Y-34195102D01*
X109298242Y-34047142D01*
X109267000Y-33890075D01*
X109267000Y-33729925D01*
X109298242Y-33572858D01*
X109359530Y-33424898D01*
X109448502Y-33291742D01*
X109561742Y-33178502D01*
X109694898Y-33089530D01*
X109842858Y-33028242D01*
X109999925Y-32997000D01*
X110160075Y-32997000D01*
X110317142Y-33028242D01*
X110317142Y-33028242D01*
G37*
G36*
X100157142Y-33028242D02*
X100305102Y-33089530D01*
X100438258Y-33178502D01*
X100551498Y-33291742D01*
X100640470Y-33424898D01*
X100701758Y-33572858D01*
X100733000Y-33729925D01*
X100733000Y-33890075D01*
X100701758Y-34047142D01*
X100640470Y-34195102D01*
X100551498Y-34328258D01*
X100438258Y-34441498D01*
X100305102Y-34530470D01*
X100157142Y-34591758D01*
X100000075Y-34623000D01*
X99839925Y-34623000D01*
X99682858Y-34591758D01*
X99534898Y-34530470D01*
X99401742Y-34441498D01*
X99288502Y-34328258D01*
X99199530Y-34195102D01*
X99138242Y-34047142D01*
X99107000Y-33890075D01*
X99107000Y-33729925D01*
X99138242Y-33572858D01*
X99199530Y-33424898D01*
X99288502Y-33291742D01*
X99401742Y-33178502D01*
X99534898Y-33089530D01*
X99682858Y-33028242D01*
X99839925Y-32997000D01*
X100000075Y-32997000D01*
X100157142Y-33028242D01*
X100157142Y-33028242D01*
G37*
G36*
X135317142Y-33028242D02*
X135465102Y-33089530D01*
X135598258Y-33178502D01*
X135711498Y-33291742D01*
X135800470Y-33424898D01*
X135861758Y-33572858D01*
X135893000Y-33729925D01*
X135893000Y-33890075D01*
X135861758Y-34047142D01*
X135800470Y-34195102D01*
X135711498Y-34328258D01*
X135598258Y-34441498D01*
X135465102Y-34530470D01*
X135317142Y-34591758D01*
X135160075Y-34623000D01*
X134999925Y-34623000D01*
X134842858Y-34591758D01*
X134694898Y-34530470D01*
X134561742Y-34441498D01*
X134448502Y-34328258D01*
X134359530Y-34195102D01*
X134298242Y-34047142D01*
X134267000Y-33890075D01*
X134267000Y-33729925D01*
X134298242Y-33572858D01*
X134359530Y-33424898D01*
X134448502Y-33291742D01*
X134561742Y-33178502D01*
X134694898Y-33089530D01*
X134842858Y-33028242D01*
X134999925Y-32997000D01*
X135160075Y-32997000D01*
X135317142Y-33028242D01*
X135317142Y-33028242D01*
G37*
G36*
X125157142Y-33028242D02*
X125305102Y-33089530D01*
X125438258Y-33178502D01*
X125551498Y-33291742D01*
X125640470Y-33424898D01*
X125701758Y-33572858D01*
X125733000Y-33729925D01*
X125733000Y-33890075D01*
X125701758Y-34047142D01*
X125640470Y-34195102D01*
X125551498Y-34328258D01*
X125438258Y-34441498D01*
X125305102Y-34530470D01*
X125157142Y-34591758D01*
X125000075Y-34623000D01*
X124839925Y-34623000D01*
X124682858Y-34591758D01*
X124534898Y-34530470D01*
X124401742Y-34441498D01*
X124288502Y-34328258D01*
X124199530Y-34195102D01*
X124138242Y-34047142D01*
X124107000Y-33890075D01*
X124107000Y-33729925D01*
X124138242Y-33572858D01*
X124199530Y-33424898D01*
X124288502Y-33291742D01*
X124401742Y-33178502D01*
X124534898Y-33089530D01*
X124682858Y-33028242D01*
X124839925Y-32997000D01*
X125000075Y-32997000D01*
X125157142Y-33028242D01*
X125157142Y-33028242D01*
G37*
G36*
X200157142Y-33028242D02*
X200305102Y-33089530D01*
X200438258Y-33178502D01*
X200551498Y-33291742D01*
X200640470Y-33424898D01*
X200701758Y-33572858D01*
X200733000Y-33729925D01*
X200733000Y-33890075D01*
X200701758Y-34047142D01*
X200640470Y-34195102D01*
X200551498Y-34328258D01*
X200438258Y-34441498D01*
X200305102Y-34530470D01*
X200157142Y-34591758D01*
X200000075Y-34623000D01*
X199839925Y-34623000D01*
X199682858Y-34591758D01*
X199534898Y-34530470D01*
X199401742Y-34441498D01*
X199288502Y-34328258D01*
X199199530Y-34195102D01*
X199138242Y-34047142D01*
X199107000Y-33890075D01*
X199107000Y-33729925D01*
X199138242Y-33572858D01*
X199199530Y-33424898D01*
X199288502Y-33291742D01*
X199401742Y-33178502D01*
X199534898Y-33089530D01*
X199682858Y-33028242D01*
X199839925Y-32997000D01*
X200000075Y-32997000D01*
X200157142Y-33028242D01*
X200157142Y-33028242D01*
G37*
G36*
X210317142Y-33028242D02*
X210465102Y-33089530D01*
X210598258Y-33178502D01*
X210711498Y-33291742D01*
X210800470Y-33424898D01*
X210861758Y-33572858D01*
X210893000Y-33729925D01*
X210893000Y-33890075D01*
X210861758Y-34047142D01*
X210800470Y-34195102D01*
X210711498Y-34328258D01*
X210598258Y-34441498D01*
X210465102Y-34530470D01*
X210317142Y-34591758D01*
X210160075Y-34623000D01*
X209999925Y-34623000D01*
X209842858Y-34591758D01*
X209694898Y-34530470D01*
X209561742Y-34441498D01*
X209448502Y-34328258D01*
X209359530Y-34195102D01*
X209298242Y-34047142D01*
X209267000Y-33890075D01*
X209267000Y-33729925D01*
X209298242Y-33572858D01*
X209359530Y-33424898D01*
X209448502Y-33291742D01*
X209561742Y-33178502D01*
X209694898Y-33089530D01*
X209842858Y-33028242D01*
X209999925Y-32997000D01*
X210160075Y-32997000D01*
X210317142Y-33028242D01*
X210317142Y-33028242D01*
G37*
G36*
X175157142Y-33028242D02*
X175305102Y-33089530D01*
X175438258Y-33178502D01*
X175551498Y-33291742D01*
X175640470Y-33424898D01*
X175701758Y-33572858D01*
X175733000Y-33729925D01*
X175733000Y-33890075D01*
X175701758Y-34047142D01*
X175640470Y-34195102D01*
X175551498Y-34328258D01*
X175438258Y-34441498D01*
X175305102Y-34530470D01*
X175157142Y-34591758D01*
X175000075Y-34623000D01*
X174839925Y-34623000D01*
X174682858Y-34591758D01*
X174534898Y-34530470D01*
X174401742Y-34441498D01*
X174288502Y-34328258D01*
X174199530Y-34195102D01*
X174138242Y-34047142D01*
X174107000Y-33890075D01*
X174107000Y-33729925D01*
X174138242Y-33572858D01*
X174199530Y-33424898D01*
X174288502Y-33291742D01*
X174401742Y-33178502D01*
X174534898Y-33089530D01*
X174682858Y-33028242D01*
X174839925Y-32997000D01*
X175000075Y-32997000D01*
X175157142Y-33028242D01*
X175157142Y-33028242D01*
G37*
G36*
X185317142Y-33028242D02*
X185465102Y-33089530D01*
X185598258Y-33178502D01*
X185711498Y-33291742D01*
X185800470Y-33424898D01*
X185861758Y-33572858D01*
X185893000Y-33729925D01*
X185893000Y-33890075D01*
X185861758Y-34047142D01*
X185800470Y-34195102D01*
X185711498Y-34328258D01*
X185598258Y-34441498D01*
X185465102Y-34530470D01*
X185317142Y-34591758D01*
X185160075Y-34623000D01*
X184999925Y-34623000D01*
X184842858Y-34591758D01*
X184694898Y-34530470D01*
X184561742Y-34441498D01*
X184448502Y-34328258D01*
X184359530Y-34195102D01*
X184298242Y-34047142D01*
X184267000Y-33890075D01*
X184267000Y-33729925D01*
X184298242Y-33572858D01*
X184359530Y-33424898D01*
X184448502Y-33291742D01*
X184561742Y-33178502D01*
X184694898Y-33089530D01*
X184842858Y-33028242D01*
X184999925Y-32997000D01*
X185160075Y-32997000D01*
X185317142Y-33028242D01*
X185317142Y-33028242D01*
G37*
G36*
X150157142Y-33028242D02*
X150305102Y-33089530D01*
X150438258Y-33178502D01*
X150551498Y-33291742D01*
X150640470Y-33424898D01*
X150701758Y-33572858D01*
X150733000Y-33729925D01*
X150733000Y-33890075D01*
X150701758Y-34047142D01*
X150640470Y-34195102D01*
X150551498Y-34328258D01*
X150438258Y-34441498D01*
X150305102Y-34530470D01*
X150157142Y-34591758D01*
X150000075Y-34623000D01*
X149839925Y-34623000D01*
X149682858Y-34591758D01*
X149534898Y-34530470D01*
X149401742Y-34441498D01*
X149288502Y-34328258D01*
X149199530Y-34195102D01*
X149138242Y-34047142D01*
X149107000Y-33890075D01*
X149107000Y-33729925D01*
X149138242Y-33572858D01*
X149199530Y-33424898D01*
X149288502Y-33291742D01*
X149401742Y-33178502D01*
X149534898Y-33089530D01*
X149682858Y-33028242D01*
X149839925Y-32997000D01*
X150000075Y-32997000D01*
X150157142Y-33028242D01*
X150157142Y-33028242D01*
G37*
G36*
X160317142Y-33028242D02*
X160465102Y-33089530D01*
X160598258Y-33178502D01*
X160711498Y-33291742D01*
X160800470Y-33424898D01*
X160861758Y-33572858D01*
X160893000Y-33729925D01*
X160893000Y-33890075D01*
X160861758Y-34047142D01*
X160800470Y-34195102D01*
X160711498Y-34328258D01*
X160598258Y-34441498D01*
X160465102Y-34530470D01*
X160317142Y-34591758D01*
X160160075Y-34623000D01*
X159999925Y-34623000D01*
X159842858Y-34591758D01*
X159694898Y-34530470D01*
X159561742Y-34441498D01*
X159448502Y-34328258D01*
X159359530Y-34195102D01*
X159298242Y-34047142D01*
X159267000Y-33890075D01*
X159267000Y-33729925D01*
X159298242Y-33572858D01*
X159359530Y-33424898D01*
X159448502Y-33291742D01*
X159561742Y-33178502D01*
X159694898Y-33089530D01*
X159842858Y-33028242D01*
X159999925Y-32997000D01*
X160160075Y-32997000D01*
X160317142Y-33028242D01*
X160317142Y-33028242D01*
G37*
G36*
X25157142Y-33028242D02*
X25305102Y-33089530D01*
X25438258Y-33178502D01*
X25551498Y-33291742D01*
X25640470Y-33424898D01*
X25701758Y-33572858D01*
X25733000Y-33729925D01*
X25733000Y-33890075D01*
X25701758Y-34047142D01*
X25640470Y-34195102D01*
X25551498Y-34328258D01*
X25438258Y-34441498D01*
X25305102Y-34530470D01*
X25157142Y-34591758D01*
X25000075Y-34623000D01*
X24839925Y-34623000D01*
X24682858Y-34591758D01*
X24534898Y-34530470D01*
X24401742Y-34441498D01*
X24288502Y-34328258D01*
X24199530Y-34195102D01*
X24138242Y-34047142D01*
X24107000Y-33890075D01*
X24107000Y-33729925D01*
X24138242Y-33572858D01*
X24199530Y-33424898D01*
X24288502Y-33291742D01*
X24401742Y-33178502D01*
X24534898Y-33089530D01*
X24682858Y-33028242D01*
X24839925Y-32997000D01*
X25000075Y-32997000D01*
X25157142Y-33028242D01*
X25157142Y-33028242D01*
G37*
M02*
