G04 #@! TF.GenerationSoftware,KiCad,Pcbnew,5.0.2-bee76a0~70~ubuntu14.04.1*
G04 #@! TF.CreationDate,2020-01-26T01:40:04+01:00*
G04 #@! TF.ProjectId,wordclock_pcb,776f7264-636c-46f6-936b-5f7063622e6b,rev?*
G04 #@! TF.SameCoordinates,Original*
G04 #@! TF.FileFunction,Profile,NP*
%FSLAX46Y46*%
G04 Gerber Fmt 4.6, Leading zero omitted, Abs format (unit mm)*
G04 Created by KiCad (PCBNEW 5.0.2-bee76a0~70~ubuntu14.04.1) date Sun 26 Jan 2020 01:40:04 AM CET*
%MOMM*%
%LPD*%
G01*
G04 APERTURE LIST*
%ADD10C,0.150000*%
%ADD11C,0.200000*%
G04 APERTURE END LIST*
D10*
X122500000Y-120500000D02*
G75*
G03X122500000Y-120500000I-2000000J0D01*
G01*
X215000000Y-21500000D02*
G75*
G03X215000000Y-21500000I-2000000J0D01*
G01*
X23500000Y-21500000D02*
G75*
G03X23500000Y-21500000I-2000000J0D01*
G01*
X23500000Y-214500000D02*
G75*
G03X23500000Y-214500000I-2000000J0D01*
G01*
D11*
X214500000Y-214000000D02*
G75*
G03X214500000Y-214000000I-2000000J0D01*
G01*
D10*
X18000000Y-217500000D02*
X18000000Y-18000000D01*
X217000000Y-217500000D02*
X18000000Y-217500000D01*
X217000000Y-18000000D02*
X217000000Y-217500000D01*
X18000000Y-18000000D02*
X217000000Y-18000000D01*
X209472136Y-80000000D02*
G75*
G03X209472136Y-80000000I-4472136J0D01*
G01*
X209472136Y-105000000D02*
G75*
G03X209472136Y-105000000I-4472136J0D01*
G01*
X34472136Y-130000000D02*
G75*
G03X34472136Y-130000000I-4472136J0D01*
G01*
X59472136Y-130000000D02*
G75*
G03X59472136Y-130000000I-4472136J0D01*
G01*
X84472136Y-130000000D02*
G75*
G03X84472136Y-130000000I-4472136J0D01*
G01*
X109472136Y-130000000D02*
G75*
G03X109472136Y-130000000I-4472136J0D01*
G01*
X134472136Y-130000000D02*
G75*
G03X134472136Y-130000000I-4472136J0D01*
G01*
X134472136Y-105000000D02*
G75*
G03X134472136Y-105000000I-4472136J0D01*
G01*
X109472136Y-105000000D02*
G75*
G03X109472136Y-105000000I-4472136J0D01*
G01*
X84472136Y-105000000D02*
G75*
G03X84472136Y-105000000I-4472136J0D01*
G01*
X59472136Y-105000000D02*
G75*
G03X59472136Y-105000000I-4472136J0D01*
G01*
X34472136Y-105000000D02*
G75*
G03X34472136Y-105000000I-4472136J0D01*
G01*
X34472136Y-80000000D02*
G75*
G03X34472136Y-80000000I-4472136J0D01*
G01*
X34472136Y-55000000D02*
G75*
G03X34472136Y-55000000I-4472136J0D01*
G01*
X34472136Y-205000000D02*
G75*
G03X34472136Y-205000000I-4472136J0D01*
G01*
X59472136Y-205000000D02*
G75*
G03X59472136Y-205000000I-4472136J0D01*
G01*
X84472136Y-205000000D02*
G75*
G03X84472136Y-205000000I-4472136J0D01*
G01*
X109472136Y-205000000D02*
G75*
G03X109472136Y-205000000I-4472136J0D01*
G01*
X134472136Y-205000000D02*
G75*
G03X134472136Y-205000000I-4472136J0D01*
G01*
X159472136Y-205000000D02*
G75*
G03X159472136Y-205000000I-4472136J0D01*
G01*
X184472136Y-205000000D02*
G75*
G03X184472136Y-205000000I-4472136J0D01*
G01*
X209472136Y-205000000D02*
G75*
G03X209472136Y-205000000I-4472136J0D01*
G01*
X209472136Y-180000000D02*
G75*
G03X209472136Y-180000000I-4472136J0D01*
G01*
X184472136Y-180000000D02*
G75*
G03X184472136Y-180000000I-4472136J0D01*
G01*
X159472136Y-180000000D02*
G75*
G03X159472136Y-180000000I-4472136J0D01*
G01*
X134472136Y-180000000D02*
G75*
G03X134472136Y-180000000I-4472136J0D01*
G01*
X109472136Y-180000000D02*
G75*
G03X109472136Y-180000000I-4472136J0D01*
G01*
X84472136Y-180000000D02*
G75*
G03X84472136Y-180000000I-4472136J0D01*
G01*
X59472136Y-180000000D02*
G75*
G03X59472136Y-180000000I-4472136J0D01*
G01*
X34472136Y-180000000D02*
G75*
G03X34472136Y-180000000I-4472136J0D01*
G01*
X34472136Y-155000000D02*
G75*
G03X34472136Y-155000000I-4472136J0D01*
G01*
X59472136Y-155000000D02*
G75*
G03X59472136Y-155000000I-4472136J0D01*
G01*
X84472136Y-155000000D02*
G75*
G03X84472136Y-155000000I-4472136J0D01*
G01*
X109472136Y-155000000D02*
G75*
G03X109472136Y-155000000I-4472136J0D01*
G01*
X134472136Y-155000000D02*
G75*
G03X134472136Y-155000000I-4472136J0D01*
G01*
X159472136Y-155000000D02*
G75*
G03X159472136Y-155000000I-4472136J0D01*
G01*
X184472136Y-155000000D02*
G75*
G03X184472136Y-155000000I-4472136J0D01*
G01*
X209472136Y-155000000D02*
G75*
G03X209472136Y-155000000I-4472136J0D01*
G01*
X209472136Y-130000000D02*
G75*
G03X209472136Y-130000000I-4472136J0D01*
G01*
X184472136Y-130000000D02*
G75*
G03X184472136Y-130000000I-4472136J0D01*
G01*
X159472136Y-130000000D02*
G75*
G03X159472136Y-130000000I-4472136J0D01*
G01*
X159472136Y-105000000D02*
G75*
G03X159472136Y-105000000I-4472136J0D01*
G01*
X184472136Y-105000000D02*
G75*
G03X184472136Y-105000000I-4472136J0D01*
G01*
X184472136Y-80000000D02*
G75*
G03X184472136Y-80000000I-4472136J0D01*
G01*
X159472136Y-80000000D02*
G75*
G03X159472136Y-80000000I-4472136J0D01*
G01*
X134472136Y-80000000D02*
G75*
G03X134472136Y-80000000I-4472136J0D01*
G01*
X109472136Y-80000000D02*
G75*
G03X109472136Y-80000000I-4472136J0D01*
G01*
X84472136Y-80000000D02*
G75*
G03X84472136Y-80000000I-4472136J0D01*
G01*
X59472136Y-80000000D02*
G75*
G03X59472136Y-80000000I-4472136J0D01*
G01*
X59472136Y-55000000D02*
G75*
G03X59472136Y-55000000I-4472136J0D01*
G01*
X84472136Y-55000000D02*
G75*
G03X84472136Y-55000000I-4472136J0D01*
G01*
X109472136Y-55000000D02*
G75*
G03X109472136Y-55000000I-4472136J0D01*
G01*
X134472136Y-55000000D02*
G75*
G03X134472136Y-55000000I-4472136J0D01*
G01*
X159472136Y-55000000D02*
G75*
G03X159472136Y-55000000I-4472136J0D01*
G01*
X184472136Y-55000000D02*
G75*
G03X184472136Y-55000000I-4472136J0D01*
G01*
X209472136Y-55000000D02*
G75*
G03X209472136Y-55000000I-4472136J0D01*
G01*
X209472136Y-30000000D02*
G75*
G03X209472136Y-30000000I-4472136J0D01*
G01*
X184472136Y-30000000D02*
G75*
G03X184472136Y-30000000I-4472136J0D01*
G01*
X159472136Y-30000000D02*
G75*
G03X159472136Y-30000000I-4472136J0D01*
G01*
X134472136Y-30000000D02*
G75*
G03X134472136Y-30000000I-4472136J0D01*
G01*
X109472136Y-30000000D02*
G75*
G03X109472136Y-30000000I-4472136J0D01*
G01*
X84472136Y-30000000D02*
G75*
G03X84472136Y-30000000I-4472136J0D01*
G01*
X59472136Y-30000000D02*
G75*
G03X59472136Y-30000000I-4472136J0D01*
G01*
X34472136Y-30000000D02*
G75*
G03X34472136Y-30000000I-4472136J0D01*
G01*
M02*
