G04 #@! TF.GenerationSoftware,KiCad,Pcbnew,5.0.2-bee76a0~70~ubuntu14.04.1*
G04 #@! TF.CreationDate,2020-01-26T01:40:04+01:00*
G04 #@! TF.ProjectId,wordclock_pcb,776f7264-636c-46f6-936b-5f7063622e6b,rev?*
G04 #@! TF.SameCoordinates,Original*
G04 #@! TF.FileFunction,Copper,L1,Top*
G04 #@! TF.FilePolarity,Positive*
%FSLAX46Y46*%
G04 Gerber Fmt 4.6, Leading zero omitted, Abs format (unit mm)*
G04 Created by KiCad (PCBNEW 5.0.2-bee76a0~70~ubuntu14.04.1) date Sun 26 Jan 2020 01:40:04 AM CET*
%MOMM*%
%LPD*%
G01*
G04 APERTURE LIST*
G04 #@! TA.AperFunction,ComponentPad*
%ADD10C,1.524000*%
G04 #@! TD*
G04 #@! TA.AperFunction,ComponentPad*
%ADD11O,1.998980X1.998980*%
G04 #@! TD*
G04 #@! TA.AperFunction,ComponentPad*
%ADD12R,1.998980X1.998980*%
G04 #@! TD*
G04 #@! TA.AperFunction,ComponentPad*
%ADD13R,1.600000X1.600000*%
G04 #@! TD*
G04 #@! TA.AperFunction,ComponentPad*
%ADD14C,1.600000*%
G04 #@! TD*
G04 #@! TA.AperFunction,ComponentPad*
%ADD15O,1.600000X1.600000*%
G04 #@! TD*
G04 #@! TA.AperFunction,ComponentPad*
%ADD16O,1.320800X2.641600*%
G04 #@! TD*
G04 #@! TA.AperFunction,ViaPad*
%ADD17C,1.600000*%
G04 #@! TD*
G04 #@! TA.AperFunction,Conductor*
%ADD18C,0.800000*%
G04 #@! TD*
G04 APERTURE END LIST*
D10*
G04 #@! TO.P,D1,1*
G04 #@! TO.N,/LED0*
X35080000Y-33810000D03*
G04 #@! TO.P,D1,2*
G04 #@! TO.N,/LEDA*
X24920000Y-33810000D03*
G04 #@! TD*
G04 #@! TO.P,D2,1*
G04 #@! TO.N,/LED1*
X60080000Y-33810000D03*
G04 #@! TO.P,D2,2*
G04 #@! TO.N,/LEDA*
X49920000Y-33810000D03*
G04 #@! TD*
G04 #@! TO.P,D3,1*
G04 #@! TO.N,/LED2*
X85080000Y-33810000D03*
G04 #@! TO.P,D3,2*
G04 #@! TO.N,/LEDA*
X74920000Y-33810000D03*
G04 #@! TD*
G04 #@! TO.P,D4,1*
G04 #@! TO.N,/LED3*
X110080000Y-33810000D03*
G04 #@! TO.P,D4,2*
G04 #@! TO.N,/LEDA*
X99920000Y-33810000D03*
G04 #@! TD*
G04 #@! TO.P,D5,1*
G04 #@! TO.N,/LED4*
X135080000Y-33810000D03*
G04 #@! TO.P,D5,2*
G04 #@! TO.N,/LEDA*
X124920000Y-33810000D03*
G04 #@! TD*
G04 #@! TO.P,D6,1*
G04 #@! TO.N,/LED5*
X160080000Y-33810000D03*
G04 #@! TO.P,D6,2*
G04 #@! TO.N,/LEDA*
X149920000Y-33810000D03*
G04 #@! TD*
G04 #@! TO.P,D7,1*
G04 #@! TO.N,/LED6*
X185080000Y-33810000D03*
G04 #@! TO.P,D7,2*
G04 #@! TO.N,/LEDA*
X174920000Y-33810000D03*
G04 #@! TD*
G04 #@! TO.P,D8,1*
G04 #@! TO.N,/LED7*
X210080000Y-33810000D03*
G04 #@! TO.P,D8,2*
G04 #@! TO.N,/LEDA*
X199920000Y-33810000D03*
G04 #@! TD*
G04 #@! TO.P,D9,1*
G04 #@! TO.N,/LED0*
X35080000Y-58810000D03*
G04 #@! TO.P,D9,2*
G04 #@! TO.N,/LEDB*
X24920000Y-58810000D03*
G04 #@! TD*
G04 #@! TO.P,D10,1*
G04 #@! TO.N,/LED1*
X60080000Y-58810000D03*
G04 #@! TO.P,D10,2*
G04 #@! TO.N,/LEDB*
X49920000Y-58810000D03*
G04 #@! TD*
G04 #@! TO.P,D11,1*
G04 #@! TO.N,/LED2*
X85080000Y-58810000D03*
G04 #@! TO.P,D11,2*
G04 #@! TO.N,/LEDB*
X74920000Y-58810000D03*
G04 #@! TD*
G04 #@! TO.P,D12,1*
G04 #@! TO.N,/LED3*
X110080000Y-58810000D03*
G04 #@! TO.P,D12,2*
G04 #@! TO.N,/LEDB*
X99920000Y-58810000D03*
G04 #@! TD*
G04 #@! TO.P,D13,1*
G04 #@! TO.N,/LED4*
X135080000Y-58810000D03*
G04 #@! TO.P,D13,2*
G04 #@! TO.N,/LEDB*
X124920000Y-58810000D03*
G04 #@! TD*
G04 #@! TO.P,D14,1*
G04 #@! TO.N,/LED5*
X160080000Y-58810000D03*
G04 #@! TO.P,D14,2*
G04 #@! TO.N,/LEDB*
X149920000Y-58810000D03*
G04 #@! TD*
G04 #@! TO.P,D15,1*
G04 #@! TO.N,/LED6*
X185080000Y-58810000D03*
G04 #@! TO.P,D15,2*
G04 #@! TO.N,/LEDB*
X174920000Y-58810000D03*
G04 #@! TD*
G04 #@! TO.P,D16,1*
G04 #@! TO.N,/LED7*
X210080000Y-58810000D03*
G04 #@! TO.P,D16,2*
G04 #@! TO.N,/LEDB*
X199920000Y-58810000D03*
G04 #@! TD*
G04 #@! TO.P,D17,1*
G04 #@! TO.N,/LED0*
X35080000Y-83810000D03*
G04 #@! TO.P,D17,2*
G04 #@! TO.N,/LEDC*
X24920000Y-83810000D03*
G04 #@! TD*
G04 #@! TO.P,D18,1*
G04 #@! TO.N,/LED1*
X60080000Y-83810000D03*
G04 #@! TO.P,D18,2*
G04 #@! TO.N,/LEDC*
X49920000Y-83810000D03*
G04 #@! TD*
G04 #@! TO.P,D19,1*
G04 #@! TO.N,/LED2*
X85080000Y-83810000D03*
G04 #@! TO.P,D19,2*
G04 #@! TO.N,/LEDC*
X74920000Y-83810000D03*
G04 #@! TD*
G04 #@! TO.P,D20,1*
G04 #@! TO.N,/LED3*
X110080000Y-83810000D03*
G04 #@! TO.P,D20,2*
G04 #@! TO.N,/LEDC*
X99920000Y-83810000D03*
G04 #@! TD*
G04 #@! TO.P,D21,1*
G04 #@! TO.N,/LED4*
X135080000Y-83810000D03*
G04 #@! TO.P,D21,2*
G04 #@! TO.N,/LEDC*
X124920000Y-83810000D03*
G04 #@! TD*
G04 #@! TO.P,D22,1*
G04 #@! TO.N,/LED5*
X160080000Y-83810000D03*
G04 #@! TO.P,D22,2*
G04 #@! TO.N,/LEDC*
X149920000Y-83810000D03*
G04 #@! TD*
G04 #@! TO.P,D23,1*
G04 #@! TO.N,/LED6*
X185080000Y-83810000D03*
G04 #@! TO.P,D23,2*
G04 #@! TO.N,/LEDC*
X174920000Y-83810000D03*
G04 #@! TD*
G04 #@! TO.P,D24,1*
G04 #@! TO.N,/LED7*
X210080000Y-83810000D03*
G04 #@! TO.P,D24,2*
G04 #@! TO.N,/LEDC*
X199920000Y-83810000D03*
G04 #@! TD*
G04 #@! TO.P,D25,1*
G04 #@! TO.N,/LED0*
X35080000Y-108810000D03*
G04 #@! TO.P,D25,2*
G04 #@! TO.N,/LEDD*
X24920000Y-108810000D03*
G04 #@! TD*
G04 #@! TO.P,D26,1*
G04 #@! TO.N,/LED1*
X60080000Y-108810000D03*
G04 #@! TO.P,D26,2*
G04 #@! TO.N,/LEDD*
X49920000Y-108810000D03*
G04 #@! TD*
G04 #@! TO.P,D27,1*
G04 #@! TO.N,/LED2*
X85080000Y-108810000D03*
G04 #@! TO.P,D27,2*
G04 #@! TO.N,/LEDD*
X74920000Y-108810000D03*
G04 #@! TD*
G04 #@! TO.P,D28,1*
G04 #@! TO.N,/LED3*
X110080000Y-108810000D03*
G04 #@! TO.P,D28,2*
G04 #@! TO.N,/LEDD*
X99920000Y-108810000D03*
G04 #@! TD*
G04 #@! TO.P,D29,1*
G04 #@! TO.N,/LED4*
X135080000Y-108810000D03*
G04 #@! TO.P,D29,2*
G04 #@! TO.N,/LEDD*
X124920000Y-108810000D03*
G04 #@! TD*
G04 #@! TO.P,D30,1*
G04 #@! TO.N,/LED5*
X160080000Y-108810000D03*
G04 #@! TO.P,D30,2*
G04 #@! TO.N,/LEDD*
X149920000Y-108810000D03*
G04 #@! TD*
G04 #@! TO.P,D31,1*
G04 #@! TO.N,/LED6*
X185080000Y-108810000D03*
G04 #@! TO.P,D31,2*
G04 #@! TO.N,/LEDD*
X174920000Y-108810000D03*
G04 #@! TD*
G04 #@! TO.P,D32,1*
G04 #@! TO.N,/LED7*
X210080000Y-108810000D03*
G04 #@! TO.P,D32,2*
G04 #@! TO.N,/LEDD*
X199920000Y-108810000D03*
G04 #@! TD*
G04 #@! TO.P,D33,1*
G04 #@! TO.N,/LED0*
X35080000Y-133810000D03*
G04 #@! TO.P,D33,2*
G04 #@! TO.N,/LEDE*
X24920000Y-133810000D03*
G04 #@! TD*
G04 #@! TO.P,D34,1*
G04 #@! TO.N,/LED1*
X60080000Y-133810000D03*
G04 #@! TO.P,D34,2*
G04 #@! TO.N,/LEDE*
X49920000Y-133810000D03*
G04 #@! TD*
G04 #@! TO.P,D35,1*
G04 #@! TO.N,/LED2*
X85080000Y-133810000D03*
G04 #@! TO.P,D35,2*
G04 #@! TO.N,/LEDE*
X74920000Y-133810000D03*
G04 #@! TD*
G04 #@! TO.P,D36,1*
G04 #@! TO.N,/LED3*
X110080000Y-133810000D03*
G04 #@! TO.P,D36,2*
G04 #@! TO.N,/LEDE*
X99920000Y-133810000D03*
G04 #@! TD*
G04 #@! TO.P,D37,1*
G04 #@! TO.N,/LED4*
X135080000Y-133810000D03*
G04 #@! TO.P,D37,2*
G04 #@! TO.N,/LEDE*
X124920000Y-133810000D03*
G04 #@! TD*
G04 #@! TO.P,D38,1*
G04 #@! TO.N,/LED5*
X160080000Y-133810000D03*
G04 #@! TO.P,D38,2*
G04 #@! TO.N,/LEDE*
X149920000Y-133810000D03*
G04 #@! TD*
G04 #@! TO.P,D39,1*
G04 #@! TO.N,/LED6*
X185080000Y-133810000D03*
G04 #@! TO.P,D39,2*
G04 #@! TO.N,/LEDE*
X174920000Y-133810000D03*
G04 #@! TD*
G04 #@! TO.P,D40,1*
G04 #@! TO.N,/LED7*
X210080000Y-133810000D03*
G04 #@! TO.P,D40,2*
G04 #@! TO.N,/LEDE*
X199920000Y-133810000D03*
G04 #@! TD*
G04 #@! TO.P,D41,1*
G04 #@! TO.N,/LED0*
X35080000Y-158810000D03*
G04 #@! TO.P,D41,2*
G04 #@! TO.N,/LEDF*
X24920000Y-158810000D03*
G04 #@! TD*
G04 #@! TO.P,D42,1*
G04 #@! TO.N,/LED1*
X60080000Y-158810000D03*
G04 #@! TO.P,D42,2*
G04 #@! TO.N,/LEDF*
X49920000Y-158810000D03*
G04 #@! TD*
G04 #@! TO.P,D43,1*
G04 #@! TO.N,/LED2*
X85080000Y-158810000D03*
G04 #@! TO.P,D43,2*
G04 #@! TO.N,/LEDF*
X74920000Y-158810000D03*
G04 #@! TD*
G04 #@! TO.P,D44,1*
G04 #@! TO.N,/LED3*
X110080000Y-158810000D03*
G04 #@! TO.P,D44,2*
G04 #@! TO.N,/LEDF*
X99920000Y-158810000D03*
G04 #@! TD*
G04 #@! TO.P,D45,1*
G04 #@! TO.N,/LED4*
X135080000Y-158810000D03*
G04 #@! TO.P,D45,2*
G04 #@! TO.N,/LEDF*
X124920000Y-158810000D03*
G04 #@! TD*
G04 #@! TO.P,D46,1*
G04 #@! TO.N,/LED5*
X160080000Y-158810000D03*
G04 #@! TO.P,D46,2*
G04 #@! TO.N,/LEDF*
X149920000Y-158810000D03*
G04 #@! TD*
G04 #@! TO.P,D47,1*
G04 #@! TO.N,/LED6*
X185080000Y-158810000D03*
G04 #@! TO.P,D47,2*
G04 #@! TO.N,/LEDF*
X174920000Y-158810000D03*
G04 #@! TD*
G04 #@! TO.P,D48,1*
G04 #@! TO.N,/LED7*
X210080000Y-158810000D03*
G04 #@! TO.P,D48,2*
G04 #@! TO.N,/LEDF*
X199920000Y-158810000D03*
G04 #@! TD*
G04 #@! TO.P,D49,1*
G04 #@! TO.N,/LED0*
X35080000Y-183810000D03*
G04 #@! TO.P,D49,2*
G04 #@! TO.N,/LEDG*
X24920000Y-183810000D03*
G04 #@! TD*
G04 #@! TO.P,D50,1*
G04 #@! TO.N,/LED1*
X60080000Y-183810000D03*
G04 #@! TO.P,D50,2*
G04 #@! TO.N,/LEDG*
X49920000Y-183810000D03*
G04 #@! TD*
G04 #@! TO.P,D51,1*
G04 #@! TO.N,/LED2*
X85080000Y-183810000D03*
G04 #@! TO.P,D51,2*
G04 #@! TO.N,/LEDG*
X74920000Y-183810000D03*
G04 #@! TD*
G04 #@! TO.P,D52,1*
G04 #@! TO.N,/LED3*
X110080000Y-183810000D03*
G04 #@! TO.P,D52,2*
G04 #@! TO.N,/LEDG*
X99920000Y-183810000D03*
G04 #@! TD*
G04 #@! TO.P,D53,1*
G04 #@! TO.N,/LED4*
X135080000Y-183810000D03*
G04 #@! TO.P,D53,2*
G04 #@! TO.N,/LEDG*
X124920000Y-183810000D03*
G04 #@! TD*
G04 #@! TO.P,D54,1*
G04 #@! TO.N,/LED5*
X160080000Y-183810000D03*
G04 #@! TO.P,D54,2*
G04 #@! TO.N,/LEDG*
X149920000Y-183810000D03*
G04 #@! TD*
G04 #@! TO.P,D55,1*
G04 #@! TO.N,/LED6*
X185080000Y-183810000D03*
G04 #@! TO.P,D55,2*
G04 #@! TO.N,/LEDG*
X174920000Y-183810000D03*
G04 #@! TD*
G04 #@! TO.P,D56,1*
G04 #@! TO.N,/LED7*
X210080000Y-183810000D03*
G04 #@! TO.P,D56,2*
G04 #@! TO.N,/LEDG*
X199920000Y-183810000D03*
G04 #@! TD*
G04 #@! TO.P,D57,1*
G04 #@! TO.N,/LED0*
X35080000Y-208810000D03*
G04 #@! TO.P,D57,2*
G04 #@! TO.N,/LEDDP*
X24920000Y-208810000D03*
G04 #@! TD*
G04 #@! TO.P,D58,1*
G04 #@! TO.N,/LED1*
X60080000Y-208810000D03*
G04 #@! TO.P,D58,2*
G04 #@! TO.N,/LEDDP*
X49920000Y-208810000D03*
G04 #@! TD*
G04 #@! TO.P,D59,1*
G04 #@! TO.N,/LED2*
X85080000Y-208810000D03*
G04 #@! TO.P,D59,2*
G04 #@! TO.N,/LEDDP*
X74920000Y-208810000D03*
G04 #@! TD*
G04 #@! TO.P,D60,1*
G04 #@! TO.N,/LED3*
X110080000Y-208810000D03*
G04 #@! TO.P,D60,2*
G04 #@! TO.N,/LEDDP*
X99920000Y-208810000D03*
G04 #@! TD*
G04 #@! TO.P,D61,1*
G04 #@! TO.N,/LED4*
X135080000Y-208810000D03*
G04 #@! TO.P,D61,2*
G04 #@! TO.N,/LEDDP*
X124920000Y-208810000D03*
G04 #@! TD*
G04 #@! TO.P,D62,1*
G04 #@! TO.N,/LED5*
X160080000Y-208810000D03*
G04 #@! TO.P,D62,2*
G04 #@! TO.N,/LEDDP*
X149920000Y-208810000D03*
G04 #@! TD*
G04 #@! TO.P,D63,1*
G04 #@! TO.N,/LED6*
X185080000Y-208810000D03*
G04 #@! TO.P,D63,2*
G04 #@! TO.N,/LEDDP*
X174920000Y-208810000D03*
G04 #@! TD*
G04 #@! TO.P,D64,1*
G04 #@! TO.N,/LED7*
X210080000Y-208810000D03*
G04 #@! TO.P,D64,2*
G04 #@! TO.N,/LEDDP*
X199920000Y-208810000D03*
G04 #@! TD*
D11*
G04 #@! TO.P,J2,4*
G04 #@! TO.N,/CLK*
X214000000Y-142380000D03*
D12*
G04 #@! TO.P,J2,1*
G04 #@! TO.N,/DIN*
X214000000Y-150000000D03*
D11*
G04 #@! TO.P,J2,2*
G04 #@! TO.N,/DOUT*
X214000000Y-147460000D03*
G04 #@! TO.P,J2,3*
G04 #@! TO.N,/CS*
X214000000Y-144920000D03*
G04 #@! TO.P,J2,5*
G04 #@! TO.N,VDD*
X214000000Y-139840000D03*
G04 #@! TO.P,J2,6*
G04 #@! TO.N,Earth*
X214000000Y-137300000D03*
G04 #@! TD*
G04 #@! TO.P,J1,4*
G04 #@! TO.N,/CLK*
X128880000Y-213500000D03*
D12*
G04 #@! TO.P,J1,1*
G04 #@! TO.N,/DIN*
X136500000Y-213500000D03*
D11*
G04 #@! TO.P,J1,2*
G04 #@! TO.N,/DOUT*
X133960000Y-213500000D03*
G04 #@! TO.P,J1,3*
G04 #@! TO.N,/CS*
X131420000Y-213500000D03*
G04 #@! TO.P,J1,5*
G04 #@! TO.N,VDD*
X126340000Y-213500000D03*
G04 #@! TO.P,J1,6*
G04 #@! TO.N,Earth*
X123800000Y-213500000D03*
G04 #@! TD*
D13*
G04 #@! TO.P,C2,1*
G04 #@! TO.N,VDD*
X204000000Y-140000000D03*
D14*
G04 #@! TO.P,C2,2*
G04 #@! TO.N,Earth*
X204000000Y-137500000D03*
G04 #@! TD*
G04 #@! TO.P,C1,1*
G04 #@! TO.N,VDD*
X197000000Y-149000000D03*
D15*
G04 #@! TO.P,C1,2*
G04 #@! TO.N,Earth*
X197000000Y-139000000D03*
G04 #@! TD*
D14*
G04 #@! TO.P,R1,1*
G04 #@! TO.N,VDD*
X193000000Y-148000000D03*
D15*
G04 #@! TO.P,R1,2*
G04 #@! TO.N,Net-(R1-Pad2)*
X193000000Y-137840000D03*
G04 #@! TD*
D16*
G04 #@! TO.P,U1,15*
G04 #@! TO.N,/LEDF*
X184890000Y-163190000D03*
G04 #@! TO.P,U1,14*
G04 #@! TO.N,/LEDA*
X187430000Y-163190000D03*
G04 #@! TO.P,U1,13*
G04 #@! TO.N,/CLK*
X189970000Y-163190000D03*
G04 #@! TO.P,U1,12*
G04 #@! TO.N,/CS*
X189970000Y-170810000D03*
G04 #@! TO.P,U1,11*
G04 #@! TO.N,/LED1*
X187430000Y-170810000D03*
G04 #@! TO.P,U1,10*
G04 #@! TO.N,/LED5*
X184890000Y-170810000D03*
G04 #@! TO.P,U1,24*
G04 #@! TO.N,/DOUT*
X162030000Y-163190000D03*
G04 #@! TO.P,U1,23*
G04 #@! TO.N,/LEDD*
X164570000Y-163190000D03*
G04 #@! TO.P,U1,22*
G04 #@! TO.N,/LEDDP*
X167110000Y-163190000D03*
G04 #@! TO.P,U1,21*
G04 #@! TO.N,/LEDE*
X169650000Y-163190000D03*
G04 #@! TO.P,U1,20*
G04 #@! TO.N,/LEDC*
X172190000Y-163190000D03*
G04 #@! TO.P,U1,19*
G04 #@! TO.N,VDD*
X174730000Y-163190000D03*
G04 #@! TO.P,U1,18*
G04 #@! TO.N,Net-(R1-Pad2)*
X177270000Y-163190000D03*
G04 #@! TO.P,U1,17*
G04 #@! TO.N,/LEDG*
X179810000Y-163190000D03*
G04 #@! TO.P,U1,16*
G04 #@! TO.N,/LEDB*
X182350000Y-163190000D03*
G04 #@! TO.P,U1,9*
G04 #@! TO.N,Earth*
X182350000Y-170810000D03*
G04 #@! TO.P,U1,5*
G04 #@! TO.N,/LED6*
X172190000Y-170810000D03*
G04 #@! TO.P,U1,6*
G04 #@! TO.N,/LED2*
X174730000Y-170810000D03*
G04 #@! TO.P,U1,4*
G04 #@! TO.N,Earth*
X169650000Y-170810000D03*
G04 #@! TO.P,U1,3*
G04 #@! TO.N,/LED4*
X167110000Y-170810000D03*
G04 #@! TO.P,U1,8*
G04 #@! TO.N,/LED7*
X179810000Y-170810000D03*
G04 #@! TO.P,U1,7*
G04 #@! TO.N,/LED3*
X177270000Y-170810000D03*
G04 #@! TO.P,U1,2*
G04 #@! TO.N,/LED0*
X164570000Y-170810000D03*
G04 #@! TO.P,U1,1*
G04 #@! TO.N,/DIN*
X162030000Y-170810000D03*
G04 #@! TD*
D17*
G04 #@! TO.N,Earth*
X207000000Y-149000014D03*
X172713723Y-174930810D03*
X169000000Y-183000000D03*
X163000000Y-192699990D03*
G04 #@! TO.N,VDD*
X212500000Y-174500000D03*
X212500000Y-174500000D03*
X206000000Y-172500000D03*
X197000000Y-166000000D03*
X192873938Y-166368571D03*
X201977207Y-168977207D03*
G04 #@! TO.N,/LED0*
X40000000Y-163000000D03*
X139000000Y-172200013D03*
X149000000Y-171200021D03*
G04 #@! TO.N,/LEDA*
X187430000Y-163190000D03*
X190000000Y-157000000D03*
G04 #@! TO.N,/LED1*
X63000000Y-161730000D03*
X159000000Y-163710810D03*
X191000000Y-189000000D03*
X65000000Y-188000000D03*
X192000000Y-180000000D03*
G04 #@! TO.N,/LED2*
X88000000Y-191000000D03*
X168000000Y-181000000D03*
X166000000Y-190500000D03*
G04 #@! TO.N,/LED3*
X117000000Y-168000000D03*
X117000000Y-168000000D03*
X139000000Y-170000000D03*
G04 #@! TO.N,/LED4*
X151000000Y-174300010D03*
G04 #@! TO.N,/LED5*
X158512757Y-167487243D03*
X153500000Y-170499998D03*
G04 #@! TO.N,/LEDB*
X186130810Y-160869190D03*
X188000000Y-150999996D03*
X188400010Y-62400010D03*
G04 #@! TO.N,/LEDC*
X170000000Y-107000000D03*
X166000000Y-144000000D03*
X170000000Y-150000000D03*
G04 #@! TO.N,/LEDD*
X169000000Y-133000000D03*
X166000000Y-154000000D03*
G04 #@! TO.N,/LEDE*
X173000000Y-141000000D03*
X168199990Y-156000000D03*
G04 #@! TO.N,/LEDG*
X198500000Y-164000000D03*
G04 #@! TO.N,/LEDDP*
X147000000Y-182000000D03*
X147000000Y-191699990D03*
X125251691Y-191699990D03*
G04 #@! TO.N,/CLK*
X192000000Y-158000010D03*
X192674476Y-152197014D03*
X186422207Y-179922207D03*
X189500000Y-183872001D03*
X187500205Y-191500000D03*
X128880000Y-213500000D03*
X194999992Y-169500000D03*
G04 #@! TO.N,/DIN*
X138000000Y-176000000D03*
X140000000Y-183999994D03*
G04 #@! TO.N,/DOUT*
X163000000Y-142000000D03*
X202799993Y-148345593D03*
X195199990Y-143000000D03*
X150068593Y-161206993D03*
X144000000Y-166000000D03*
X144000000Y-183000000D03*
X141500000Y-199500000D03*
G04 #@! TO.N,/CS*
X194252184Y-158808892D03*
X194464984Y-153475345D03*
X168500000Y-194000000D03*
X194164002Y-188500000D03*
X196200000Y-175500000D03*
G04 #@! TO.N,Net-(R1-Pad2)*
X184000000Y-139000000D03*
G04 #@! TD*
D18*
G04 #@! TO.N,Earth*
X207000000Y-147868644D02*
X207000000Y-149000014D01*
X204868644Y-147868644D02*
X207000000Y-147868644D01*
X197000000Y-140000000D02*
X204868644Y-147868644D01*
X197000000Y-139000000D02*
X197000000Y-140000000D01*
X169650000Y-171470400D02*
X172713723Y-174534123D01*
X172713723Y-174534123D02*
X172713723Y-174930810D01*
X169650000Y-170810000D02*
X169650000Y-171470400D01*
X169000000Y-183000000D02*
X169000000Y-190131370D01*
X166431380Y-192699990D02*
X164131370Y-192699990D01*
X169000000Y-190131370D02*
X166431380Y-192699990D01*
X164131370Y-192699990D02*
X163000000Y-192699990D01*
G04 #@! TO.N,VDD*
X212500000Y-174500000D02*
X212500000Y-174500000D01*
X212500000Y-174500000D02*
X212500000Y-174500000D01*
X196200001Y-163635995D02*
X196200001Y-165200001D01*
X197000000Y-149000000D02*
X197000000Y-162835996D01*
X197000000Y-162835996D02*
X196200001Y-163635995D01*
X196200001Y-165200001D02*
X197000000Y-166000000D01*
X191711151Y-166399988D02*
X191742568Y-166368571D01*
X177279588Y-166399988D02*
X191711151Y-166399988D01*
X174730000Y-163190000D02*
X174730000Y-163850400D01*
X191742568Y-166368571D02*
X192873938Y-166368571D01*
X174730000Y-163850400D02*
X177279588Y-166399988D01*
X205500000Y-172500000D02*
X201977207Y-168977207D01*
X206000000Y-172500000D02*
X205500000Y-172500000D01*
X212500000Y-175000000D02*
X212500000Y-174500000D01*
X213500000Y-176000000D02*
X212500000Y-175000000D01*
X213500000Y-207997762D02*
X213500000Y-176000000D01*
X138515131Y-216299501D02*
X138814632Y-216000000D01*
X138814632Y-216000000D02*
X205497762Y-216000000D01*
X132389102Y-216000000D02*
X132688604Y-216299502D01*
X127426508Y-216000000D02*
X132389102Y-216000000D01*
X126340000Y-214913492D02*
X127426508Y-216000000D01*
X126340000Y-213500000D02*
X126340000Y-214913492D01*
X205497762Y-216000000D02*
X213500000Y-207997762D01*
X132688604Y-216299502D02*
X138515131Y-216299501D01*
G04 #@! TO.N,/LED0*
X35841999Y-58048001D02*
X35080000Y-58810000D01*
X37000000Y-56890000D02*
X35841999Y-58048001D01*
X37000000Y-35730000D02*
X37000000Y-56890000D01*
X35080000Y-33810000D02*
X37000000Y-35730000D01*
X35841999Y-83048001D02*
X35080000Y-83810000D01*
X35841999Y-60649629D02*
X35841999Y-83048001D01*
X35080000Y-59887630D02*
X35841999Y-60649629D01*
X35080000Y-58810000D02*
X35080000Y-59887630D01*
X36000000Y-107890000D02*
X35841999Y-108048001D01*
X35841999Y-108048001D02*
X35080000Y-108810000D01*
X36000000Y-84730000D02*
X36000000Y-107890000D01*
X35080000Y-83810000D02*
X36000000Y-84730000D01*
X35841999Y-133048001D02*
X35080000Y-133810000D01*
X35841999Y-109571999D02*
X35841999Y-133048001D01*
X35080000Y-108810000D02*
X35841999Y-109571999D01*
X35841999Y-158048001D02*
X35080000Y-158810000D01*
X35841999Y-134571999D02*
X35841999Y-158048001D01*
X35080000Y-133810000D02*
X35841999Y-134571999D01*
X35841999Y-183048001D02*
X35080000Y-183810000D01*
X37000000Y-181890000D02*
X35841999Y-183048001D01*
X35080000Y-158810000D02*
X37000000Y-160730000D01*
X35841999Y-208048001D02*
X35080000Y-208810000D01*
X36000000Y-207890000D02*
X35841999Y-208048001D01*
X36000000Y-184730000D02*
X36000000Y-207890000D01*
X35080000Y-183810000D02*
X36000000Y-184730000D01*
X39000000Y-162000000D02*
X37000000Y-162000000D01*
X40000000Y-163000000D02*
X39000000Y-162000000D01*
X37000000Y-162000000D02*
X37000000Y-181890000D01*
X37000000Y-160730000D02*
X37000000Y-162000000D01*
X139000000Y-172200013D02*
X148000008Y-172200013D01*
X148200001Y-172000020D02*
X149000000Y-171200021D01*
X148000008Y-172200013D02*
X148200001Y-172000020D01*
G04 #@! TO.N,/LEDA*
X190874474Y-154769442D02*
X190000000Y-155643916D01*
X199920000Y-33810000D02*
X190874474Y-42855526D01*
X190000000Y-155868630D02*
X190000000Y-157000000D01*
X190000000Y-155643916D02*
X190000000Y-155868630D01*
X190874474Y-42855526D02*
X190874474Y-154769442D01*
G04 #@! TO.N,/LED1*
X60841999Y-184571999D02*
X60080000Y-183810000D01*
X62000000Y-185730000D02*
X60841999Y-184571999D01*
X60080000Y-208810000D02*
X62000000Y-206890000D01*
X60841999Y-159571999D02*
X60080000Y-158810000D01*
X63000000Y-161730000D02*
X60841999Y-159571999D01*
X63000000Y-180890000D02*
X63000000Y-161730000D01*
X60080000Y-183810000D02*
X63000000Y-180890000D01*
X60841999Y-134571999D02*
X60080000Y-133810000D01*
X63000000Y-136730000D02*
X60841999Y-134571999D01*
X63000000Y-155890000D02*
X63000000Y-136730000D01*
X60080000Y-158810000D02*
X63000000Y-155890000D01*
X61000000Y-109730000D02*
X60841999Y-109571999D01*
X61000000Y-132890000D02*
X61000000Y-109730000D01*
X60841999Y-109571999D02*
X60080000Y-108810000D01*
X60080000Y-133810000D02*
X61000000Y-132890000D01*
X60841999Y-84571999D02*
X60080000Y-83810000D01*
X61000000Y-84730000D02*
X60841999Y-84571999D01*
X61000000Y-107890000D02*
X61000000Y-84730000D01*
X60080000Y-108810000D02*
X61000000Y-107890000D01*
X60841999Y-59571999D02*
X60080000Y-58810000D01*
X60841999Y-83048001D02*
X60841999Y-59571999D01*
X60080000Y-83810000D02*
X60841999Y-83048001D01*
X60841999Y-34571999D02*
X60080000Y-33810000D01*
X60841999Y-58048001D02*
X60841999Y-34571999D01*
X60080000Y-58810000D02*
X60841999Y-58048001D01*
X159000000Y-163710810D02*
X162178370Y-166889180D01*
X65000000Y-188000000D02*
X62000000Y-188000000D01*
X62000000Y-188000000D02*
X62000000Y-185730000D01*
X62000000Y-206890000D02*
X62000000Y-188000000D01*
X192000000Y-181131370D02*
X192000000Y-180000000D01*
X192000000Y-188000000D02*
X192000000Y-181131370D01*
X191000000Y-189000000D02*
X192000000Y-188000000D01*
G04 #@! TO.N,/LED2*
X85841999Y-58048001D02*
X85080000Y-58810000D01*
X86000000Y-57890000D02*
X85841999Y-58048001D01*
X86000000Y-34730000D02*
X86000000Y-57890000D01*
X85080000Y-33810000D02*
X86000000Y-34730000D01*
X85841999Y-83048001D02*
X85080000Y-83810000D01*
X85841999Y-59571999D02*
X85841999Y-83048001D01*
X85080000Y-58810000D02*
X85841999Y-59571999D01*
X85841999Y-108048001D02*
X85080000Y-108810000D01*
X85841999Y-84571999D02*
X85841999Y-108048001D01*
X85080000Y-83810000D02*
X85841999Y-84571999D01*
X85841999Y-133048001D02*
X85080000Y-133810000D01*
X85841999Y-110649629D02*
X85841999Y-133048001D01*
X85080000Y-109887630D02*
X85841999Y-110649629D01*
X85080000Y-108810000D02*
X85080000Y-109887630D01*
X86000000Y-157890000D02*
X85841999Y-158048001D01*
X86000000Y-134730000D02*
X86000000Y-157890000D01*
X85841999Y-158048001D02*
X85080000Y-158810000D01*
X85080000Y-133810000D02*
X86000000Y-134730000D01*
X85841999Y-183048001D02*
X85080000Y-183810000D01*
X85841999Y-160649629D02*
X85841999Y-183048001D01*
X85080000Y-159887630D02*
X85841999Y-160649629D01*
X85080000Y-158810000D02*
X85080000Y-159887630D01*
X85841999Y-208048001D02*
X85080000Y-208810000D01*
X85841999Y-203147171D02*
X85841999Y-208048001D01*
X85080000Y-202385172D02*
X85841999Y-203147171D01*
X88000000Y-191000000D02*
X85080000Y-191000000D01*
X85080000Y-191000000D02*
X85080000Y-202385172D01*
X85080000Y-183810000D02*
X85080000Y-191000000D01*
X166000000Y-183000000D02*
X166000000Y-189368630D01*
X168000000Y-181000000D02*
X166000000Y-183000000D01*
X166000000Y-189368630D02*
X166000000Y-190500000D01*
G04 #@! TO.N,/LED3*
X110841999Y-184571999D02*
X110080000Y-183810000D01*
X110841999Y-208048001D02*
X110841999Y-184571999D01*
X110080000Y-208810000D02*
X110841999Y-208048001D01*
X110841999Y-159571999D02*
X110080000Y-158810000D01*
X111000000Y-159730000D02*
X110841999Y-159571999D01*
X111000000Y-182890000D02*
X111000000Y-159730000D01*
X110080000Y-183810000D02*
X111000000Y-182890000D01*
X110841999Y-134571999D02*
X110080000Y-133810000D01*
X112000000Y-135730000D02*
X110841999Y-134571999D01*
X112000000Y-156890000D02*
X112000000Y-135730000D01*
X110080000Y-158810000D02*
X112000000Y-156890000D01*
X110841999Y-109571999D02*
X110080000Y-108810000D01*
X110841999Y-133048001D02*
X110841999Y-109571999D01*
X110080000Y-133810000D02*
X110841999Y-133048001D01*
X110841999Y-84571999D02*
X110080000Y-83810000D01*
X111000000Y-107890000D02*
X111000000Y-84730000D01*
X111000000Y-84730000D02*
X110841999Y-84571999D01*
X110080000Y-108810000D02*
X111000000Y-107890000D01*
X110841999Y-59571999D02*
X110080000Y-58810000D01*
X111000000Y-59730000D02*
X110841999Y-59571999D01*
X111000000Y-82890000D02*
X111000000Y-59730000D01*
X110080000Y-83810000D02*
X111000000Y-82890000D01*
X110080000Y-34887630D02*
X110080000Y-33810000D01*
X110699428Y-35507058D02*
X110080000Y-34887630D01*
X110699428Y-57112942D02*
X110699428Y-35507058D01*
X110080000Y-57732370D02*
X110699428Y-57112942D01*
X110080000Y-58810000D02*
X110080000Y-57732370D01*
X117000000Y-165730000D02*
X110080000Y-158810000D01*
X117000000Y-168000000D02*
X117000000Y-165730000D01*
X174220265Y-175915884D02*
X174210639Y-176182056D01*
X175558775Y-174577374D02*
X174220265Y-175915884D01*
X174210639Y-176182056D02*
X171392695Y-179000000D01*
X177270000Y-170810000D02*
X177270000Y-171470400D01*
X165500000Y-179000000D02*
X154999988Y-168499988D01*
X175558775Y-173181625D02*
X175558775Y-174577374D01*
X151780008Y-168499988D02*
X150879985Y-169400011D01*
X154999988Y-168499988D02*
X151780008Y-168499988D01*
X177270000Y-171470400D02*
X175558775Y-173181625D01*
X140131370Y-170000000D02*
X139000000Y-170000000D01*
X140731359Y-169400011D02*
X140131370Y-170000000D01*
X150879985Y-169400011D02*
X140731359Y-169400011D01*
X171392695Y-179000000D02*
X165500000Y-179000000D01*
G04 #@! TO.N,/LED4*
X135841999Y-58048001D02*
X135080000Y-58810000D01*
X135080000Y-34887630D02*
X135841999Y-35649629D01*
X135841999Y-35649629D02*
X135841999Y-58048001D01*
X135080000Y-33810000D02*
X135080000Y-34887630D01*
X135841999Y-83048001D02*
X135080000Y-83810000D01*
X136000000Y-82890000D02*
X135841999Y-83048001D01*
X136000000Y-59730000D02*
X136000000Y-82890000D01*
X135080000Y-58810000D02*
X136000000Y-59730000D01*
X135841999Y-108048001D02*
X135080000Y-108810000D01*
X135841999Y-85649629D02*
X135841999Y-108048001D01*
X135080000Y-84887630D02*
X135841999Y-85649629D01*
X135080000Y-83810000D02*
X135080000Y-84887630D01*
X135841999Y-133048001D02*
X135080000Y-133810000D01*
X135080000Y-109887630D02*
X135841999Y-110649629D01*
X135841999Y-110649629D02*
X135841999Y-133048001D01*
X135080000Y-108810000D02*
X135080000Y-109887630D01*
X135841999Y-158048001D02*
X135080000Y-158810000D01*
X136000000Y-157890000D02*
X135841999Y-158048001D01*
X136000000Y-134730000D02*
X136000000Y-157890000D01*
X135080000Y-133810000D02*
X136000000Y-134730000D01*
X135841999Y-183048001D02*
X135080000Y-183810000D01*
X137000000Y-181890000D02*
X135841999Y-183048001D01*
X135841999Y-208048001D02*
X135080000Y-208810000D01*
X135841999Y-185649629D02*
X135841999Y-208048001D01*
X135080000Y-184887630D02*
X135841999Y-185649629D01*
X135080000Y-183810000D02*
X135080000Y-184887630D01*
X137000000Y-180000000D02*
X137000000Y-181890000D01*
X135080000Y-173723918D02*
X136000000Y-174643918D01*
X136000000Y-174643918D02*
X136000000Y-179000000D01*
X135080000Y-158810000D02*
X135080000Y-173723918D01*
X136000000Y-179000000D02*
X137000000Y-180000000D01*
X145300010Y-180000000D02*
X150200001Y-175100009D01*
X137000000Y-180000000D02*
X145300010Y-180000000D01*
X150200001Y-175100009D02*
X151000000Y-174300010D01*
G04 #@! TO.N,/LED5*
X161000000Y-184730000D02*
X160841999Y-184571999D01*
X161000000Y-207890000D02*
X161000000Y-184730000D01*
X160841999Y-184571999D02*
X160080000Y-183810000D01*
X160080000Y-208810000D02*
X161000000Y-207890000D01*
X160080000Y-158810000D02*
X160080000Y-159887630D01*
X160841999Y-109571999D02*
X160841999Y-133048001D01*
X160841999Y-133048001D02*
X160080000Y-133810000D01*
X160080000Y-108810000D02*
X160841999Y-109571999D01*
X160841999Y-108048001D02*
X160080000Y-108810000D01*
X161000000Y-107890000D02*
X160841999Y-108048001D01*
X161000000Y-84730000D02*
X161000000Y-107890000D01*
X160080000Y-83810000D02*
X161000000Y-84730000D01*
X160841999Y-83048001D02*
X160080000Y-83810000D01*
X160841999Y-60649629D02*
X160841999Y-83048001D01*
X160080000Y-59887630D02*
X160841999Y-60649629D01*
X160080000Y-58810000D02*
X160080000Y-59887630D01*
X160841999Y-58048001D02*
X160080000Y-58810000D01*
X161000000Y-57890000D02*
X160841999Y-58048001D01*
X161000000Y-34730000D02*
X161000000Y-57890000D01*
X160080000Y-33810000D02*
X161000000Y-34730000D01*
X160841999Y-158048001D02*
X160080000Y-158810000D01*
X160841999Y-135649629D02*
X160841999Y-158048001D01*
X160080000Y-134887630D02*
X160841999Y-135649629D01*
X160080000Y-133810000D02*
X160080000Y-134887630D01*
X157712758Y-166687244D02*
X158512757Y-167487243D01*
X160080000Y-158810000D02*
X156000000Y-162890000D01*
X156000000Y-162890000D02*
X156000000Y-164974486D01*
X156000000Y-164974486D02*
X157712758Y-166687244D01*
X160080000Y-183810000D02*
X160841999Y-183048001D01*
X160841999Y-183048001D02*
X160841999Y-177710629D01*
X153500000Y-170500000D02*
X153500000Y-170499998D01*
X153631370Y-170500000D02*
X153131370Y-170500000D01*
X153131370Y-170500000D02*
X153500000Y-170500000D01*
X160710631Y-177710629D02*
X153500000Y-170499998D01*
X160841999Y-177710629D02*
X160710631Y-177710629D01*
G04 #@! TO.N,/LED6*
X185841999Y-58048001D02*
X185080000Y-58810000D01*
X186000000Y-57890000D02*
X185841999Y-58048001D01*
X186000000Y-34730000D02*
X186000000Y-57890000D01*
X185080000Y-33810000D02*
X186000000Y-34730000D01*
X185841999Y-60649629D02*
X185841999Y-83048001D01*
X185841999Y-83048001D02*
X185080000Y-83810000D01*
X185080000Y-59887630D02*
X185841999Y-60649629D01*
X185080000Y-58810000D02*
X185080000Y-59887630D01*
X185841999Y-108048001D02*
X185080000Y-108810000D01*
X187000000Y-106890000D02*
X185841999Y-108048001D01*
X187000000Y-85730000D02*
X187000000Y-106890000D01*
X185080000Y-83810000D02*
X187000000Y-85730000D01*
X185841999Y-133048001D02*
X185080000Y-133810000D01*
X186000000Y-132890000D02*
X185841999Y-133048001D01*
X186000000Y-109730000D02*
X186000000Y-132890000D01*
X185080000Y-108810000D02*
X186000000Y-109730000D01*
X185080000Y-184887630D02*
X185700205Y-185507835D01*
X185700205Y-185507835D02*
X185700205Y-207299795D01*
X185080000Y-183810000D02*
X185080000Y-184887630D01*
X185841999Y-208048001D02*
X185080000Y-208810000D01*
X185841999Y-207441589D02*
X185841999Y-208048001D01*
X185700205Y-207299795D02*
X185841999Y-207441589D01*
X185841999Y-134571999D02*
X185841999Y-158048001D01*
X185841999Y-158048001D02*
X185080000Y-158810000D01*
X185080000Y-133810000D02*
X185841999Y-134571999D01*
X185080000Y-158810000D02*
X189053892Y-158810000D01*
X189053892Y-158810000D02*
X194746236Y-164502344D01*
X194746236Y-164502344D02*
X194746236Y-167488957D01*
X194746236Y-167488957D02*
X194615662Y-167619531D01*
X172190000Y-170149600D02*
X172190000Y-170810000D01*
X174139602Y-168199998D02*
X172190000Y-170149600D01*
X194746236Y-167488957D02*
X194668629Y-167488957D01*
X193585277Y-168199998D02*
X174139602Y-168199998D01*
X185841999Y-183048001D02*
X185080000Y-183810000D01*
X197300002Y-171589998D02*
X185841999Y-183048001D01*
X196363994Y-167699990D02*
X197300002Y-168635998D01*
X194085285Y-167699990D02*
X196363994Y-167699990D01*
X197300002Y-168635998D02*
X197300002Y-171589998D01*
X193585277Y-168199998D02*
X194085285Y-167699990D01*
G04 #@! TO.N,/LED7*
X210841999Y-184571999D02*
X210080000Y-183810000D01*
X211000000Y-184730000D02*
X210841999Y-184571999D01*
X211000000Y-207890000D02*
X211000000Y-184730000D01*
X210080000Y-208810000D02*
X211000000Y-207890000D01*
X210841999Y-134571999D02*
X210080000Y-133810000D01*
X210841999Y-158048001D02*
X210841999Y-134571999D01*
X210080000Y-158810000D02*
X210841999Y-158048001D01*
X210841999Y-109571999D02*
X210080000Y-108810000D01*
X211000000Y-109730000D02*
X210841999Y-109571999D01*
X211000000Y-132890000D02*
X211000000Y-109730000D01*
X210080000Y-133810000D02*
X211000000Y-132890000D01*
X210841999Y-84571999D02*
X210080000Y-83810000D01*
X212000000Y-85730000D02*
X210841999Y-84571999D01*
X212000000Y-106890000D02*
X212000000Y-85730000D01*
X210080000Y-108810000D02*
X212000000Y-106890000D01*
X210841999Y-59571999D02*
X210080000Y-58810000D01*
X211000000Y-59730000D02*
X210841999Y-59571999D01*
X211000000Y-82890000D02*
X211000000Y-59730000D01*
X210080000Y-83810000D02*
X211000000Y-82890000D01*
X210841999Y-34571999D02*
X210080000Y-33810000D01*
X212000000Y-35730000D02*
X210841999Y-34571999D01*
X212000000Y-56890000D02*
X212000000Y-35730000D01*
X210080000Y-58810000D02*
X212000000Y-56890000D01*
X175594222Y-176661616D02*
X175598403Y-176546005D01*
X175194770Y-177208153D02*
X175594222Y-176661616D01*
X210080000Y-208810000D02*
X205890000Y-213000000D01*
X205890000Y-213000000D02*
X174000000Y-213000000D01*
X178349600Y-172930800D02*
X179810000Y-171470400D01*
X174000000Y-213000000D02*
X171000000Y-210000000D01*
X175598403Y-176546005D02*
X178349600Y-173794808D01*
X171000000Y-181402923D02*
X175194770Y-177208153D01*
X171000000Y-210000000D02*
X171000000Y-181402923D01*
X179810000Y-171470400D02*
X179810000Y-170810000D01*
X178349600Y-173794808D02*
X178349600Y-172930800D01*
X210841999Y-159571999D02*
X210080000Y-158810000D01*
X211000000Y-159730000D02*
X210841999Y-159571999D01*
X211000000Y-182890000D02*
X211000000Y-159730000D01*
X210080000Y-183810000D02*
X211000000Y-182890000D01*
G04 #@! TO.N,/LEDB*
X184010410Y-160869190D02*
X186130810Y-160869190D01*
X182350000Y-162529600D02*
X184010410Y-160869190D01*
X182350000Y-163190000D02*
X182350000Y-162529600D01*
X188400010Y-107469903D02*
X188400010Y-62400010D01*
X188000000Y-107869913D02*
X188400010Y-107469903D01*
X188000000Y-150999996D02*
X188000000Y-107869913D01*
G04 #@! TO.N,/LEDC*
X166000000Y-111000000D02*
X166000000Y-142868630D01*
X166000000Y-142868630D02*
X166000000Y-144000000D01*
X170000000Y-107000000D02*
X166000000Y-111000000D01*
X170000000Y-160869190D02*
X170000000Y-150000000D01*
X170337764Y-160869190D02*
X170000000Y-160869190D01*
X171310410Y-161841836D02*
X170337764Y-160869190D01*
X171310410Y-162310410D02*
X171310410Y-161841836D01*
X172190000Y-163190000D02*
X171310410Y-162310410D01*
G04 #@! TO.N,/LEDD*
X166000000Y-152868630D02*
X166000000Y-154000000D01*
X166000000Y-146664004D02*
X166000000Y-152868630D01*
X169000000Y-143664004D02*
X166000000Y-146664004D01*
X169000000Y-133000000D02*
X169000000Y-143664004D01*
G04 #@! TO.N,/LEDE*
X168199990Y-154868630D02*
X168199990Y-156000000D01*
X173000000Y-141000000D02*
X173000000Y-142131370D01*
X173000000Y-142131370D02*
X168199990Y-146931380D01*
X168199990Y-146931380D02*
X168199990Y-154868630D01*
G04 #@! TO.N,/LEDG*
X199920000Y-183810000D02*
X198800002Y-182690002D01*
X198800002Y-182690002D02*
X198800002Y-164300002D01*
X198800002Y-164300002D02*
X198500000Y-164000000D01*
G04 #@! TO.N,/LEDDP*
X149920000Y-208810000D02*
X147000000Y-205890000D01*
X147000000Y-205890000D02*
X147000000Y-192831360D01*
X124920000Y-208810000D02*
X124158001Y-208048001D01*
X124451692Y-192499989D02*
X125251691Y-191699990D01*
X124158001Y-192793680D02*
X124451692Y-192499989D01*
X147000000Y-182000000D02*
X147000000Y-191699990D01*
X124158001Y-208048001D02*
X124158001Y-192793680D01*
X147000000Y-192831360D02*
X147000000Y-191699990D01*
G04 #@! TO.N,/CLK*
X192000000Y-156868640D02*
X192600022Y-156268618D01*
X192000000Y-158000010D02*
X192000000Y-156868640D01*
X192600022Y-156268618D02*
X192600022Y-152271468D01*
X192600022Y-152271468D02*
X192674476Y-152197014D01*
X187500205Y-185871796D02*
X187500205Y-191500000D01*
X189500000Y-183872001D02*
X187500205Y-185871796D01*
X194999992Y-171344422D02*
X194999992Y-170631370D01*
X194999992Y-170631370D02*
X194999992Y-169500000D01*
X186422207Y-179922207D02*
X194999992Y-171344422D01*
G04 #@! TO.N,/DIN*
X142000000Y-196335996D02*
X142000000Y-185999994D01*
X140799999Y-184799993D02*
X140000000Y-183999994D01*
X137000000Y-214000000D02*
X139699998Y-211300002D01*
X139699998Y-211300002D02*
X139699998Y-198635998D01*
X142000000Y-185999994D02*
X140799999Y-184799993D01*
X139699998Y-198635998D02*
X142000000Y-196335996D01*
X137335998Y-168000000D02*
X137199986Y-168136012D01*
X137199986Y-168136012D02*
X137199986Y-175199986D01*
X162030000Y-170810000D02*
X159289914Y-170810000D01*
X137200001Y-175200001D02*
X138000000Y-176000000D01*
X155879901Y-167399987D02*
X151324357Y-167399987D01*
X137199986Y-175199986D02*
X137200001Y-175200001D01*
X151324357Y-167399987D02*
X150724344Y-168000000D01*
X159289914Y-170810000D02*
X155879901Y-167399987D01*
X150724344Y-168000000D02*
X137335998Y-168000000D01*
G04 #@! TO.N,/DOUT*
X162030000Y-158839913D02*
X163000000Y-157869913D01*
X162030000Y-163190000D02*
X162030000Y-158839913D01*
X163000000Y-157869913D02*
X163000000Y-142000000D01*
X202799993Y-148345593D02*
X197454400Y-143000000D01*
X196331360Y-143000000D02*
X195199990Y-143000000D01*
X197454400Y-143000000D02*
X196331360Y-143000000D01*
X147793007Y-161206993D02*
X144400010Y-164599990D01*
X150068593Y-161206993D02*
X147793007Y-161206993D01*
X144400010Y-164599990D02*
X144000000Y-165000000D01*
X144000000Y-165000000D02*
X144000000Y-166000000D01*
X144000000Y-197000000D02*
X142299999Y-198700001D01*
X144000000Y-183000000D02*
X144000000Y-197000000D01*
X142299999Y-198700001D02*
X141500000Y-199500000D01*
G04 #@! TO.N,/CS*
X194252184Y-158808892D02*
X194252184Y-153688145D01*
X194252184Y-153688145D02*
X194464984Y-153475345D01*
X194164002Y-177535998D02*
X196200000Y-175500000D01*
X194164002Y-188500000D02*
X194164002Y-177535998D01*
X168500000Y-195131370D02*
X168500000Y-194000000D01*
X156597773Y-214899989D02*
X168500000Y-202997762D01*
X138199491Y-214899989D02*
X156597773Y-214899989D01*
X137899989Y-215199491D02*
X138199491Y-214899989D01*
X132444241Y-214499489D02*
X133144243Y-215199491D01*
X133144243Y-215199491D02*
X137899989Y-215199491D01*
X132419489Y-214499489D02*
X132444241Y-214499489D01*
X168500000Y-202997762D02*
X168500000Y-195131370D01*
X131420000Y-213500000D02*
X132419489Y-214499489D01*
G04 #@! TO.N,Net-(R1-Pad2)*
X173157999Y-159655761D02*
X173157999Y-149842001D01*
X174371428Y-160869190D02*
X173157999Y-159655761D01*
X175417764Y-160869190D02*
X174371428Y-160869190D01*
X177270000Y-162721426D02*
X175417764Y-160869190D01*
X177270000Y-163190000D02*
X177270000Y-162721426D01*
X173157999Y-149842001D02*
X184000000Y-139000000D01*
G04 #@! TD*
M02*
