M48
;DRILL file {KiCad 5.0.2-bee76a0~70~ubuntu14.04.1} date Sun 26 Jan 2020 01:40:07 AM CET
;FORMAT={-:-/ absolute / inch / decimal}
FMAT,2
INCH,TZ
T1C0.0300
T2C0.0315
T3C0.0320
T4C0.0394
T5C0.0432
%
G90
G05
T1
X1.9654Y-7.2366
X2.3654Y-7.2366
X4.9181Y-8.2209
X5.3181Y-8.2209
X2.9496Y-4.2839
X3.3496Y-4.2839
X3.9339Y-4.2839
X4.3339Y-4.2839
X6.8866Y-6.2524
X7.2866Y-6.2524
X0.9811Y-3.2996
X1.3811Y-3.2996
X4.9181Y-1.3311
X5.3181Y-1.3311
X5.9024Y-6.2524
X6.3024Y-6.2524
X0.9811Y-8.2209
X1.3811Y-8.2209
X3.9339Y-8.2209
X4.3339Y-8.2209
X4.9181Y-4.2839
X5.3181Y-4.2839
X6.8866Y-7.2366
X7.2866Y-7.2366
X2.9496Y-3.2996
X3.3496Y-3.2996
X6.8866Y-3.2996
X7.2866Y-3.2996
X0.9811Y-4.2839
X1.3811Y-4.2839
X6.8866Y-5.2681
X7.2866Y-5.2681
X0.9811Y-1.3311
X1.3811Y-1.3311
X0.9811Y-7.2366
X1.3811Y-7.2366
X7.8709Y-8.2209
X8.2709Y-8.2209
X2.9496Y-2.3154
X3.3496Y-2.3154
X7.8709Y-3.2996
X8.2709Y-3.2996
X6.8866Y-1.3311
X7.2866Y-1.3311
X3.9339Y-6.2524
X4.3339Y-6.2524
X4.9181Y-6.2524
X5.3181Y-6.2524
X1.9654Y-5.2681
X2.3654Y-5.2681
X7.8709Y-5.2681
X8.2709Y-5.2681
X5.9024Y-2.3154
X6.3024Y-2.3154
X1.9654Y-6.2524
X2.3654Y-6.2524
X3.9339Y-5.2681
X4.3339Y-5.2681
X1.9654Y-1.3311
X2.3654Y-1.3311
X2.9496Y-7.2366
X3.3496Y-7.2366
X1.9654Y-3.2996
X2.3654Y-3.2996
X7.8709Y-2.3154
X8.2709Y-2.3154
X6.8866Y-2.3154
X7.2866Y-2.3154
X1.9654Y-2.3154
X2.3654Y-2.3154
X3.9339Y-2.3154
X4.3339Y-2.3154
X6.8866Y-4.2839
X7.2866Y-4.2839
X7.8709Y-4.2839
X8.2709Y-4.2839
X4.9181Y-3.2996
X5.3181Y-3.2996
X2.9496Y-6.2524
X3.3496Y-6.2524
X0.9811Y-5.2681
X1.3811Y-5.2681
X4.9181Y-5.2681
X5.3181Y-5.2681
X7.8709Y-7.2366
X8.2709Y-7.2366
X3.9339Y-7.2366
X4.3339Y-7.2366
X2.9496Y-8.2209
X3.3496Y-8.2209
X7.8709Y-1.3311
X8.2709Y-1.3311
X2.9496Y-5.2681
X3.3496Y-5.2681
X4.9181Y-7.2366
X5.3181Y-7.2366
X4.9181Y-2.3154
X5.3181Y-2.3154
X6.8866Y-8.2209
X7.2866Y-8.2209
X0.9811Y-2.3154
X1.3811Y-2.3154
X2.9496Y-1.3311
X3.3496Y-1.3311
X7.8709Y-6.2524
X8.2709Y-6.2524
X5.9024Y-8.2209
X6.3024Y-8.2209
X5.9024Y-7.2366
X6.3024Y-7.2366
X1.9654Y-4.2839
X2.3654Y-4.2839
X5.9024Y-4.2839
X6.3024Y-4.2839
X3.9339Y-1.3311
X4.3339Y-1.3311
X0.9811Y-6.2524
X1.3811Y-6.2524
X5.9024Y-5.2681
X6.3024Y-5.2681
X5.9024Y-3.2996
X6.3024Y-3.2996
X1.9654Y-8.2209
X2.3654Y-8.2209
X3.9339Y-3.2996
X4.3339Y-3.2996
X5.9024Y-1.3311
X6.3024Y-1.3311
T2
X7.5984Y-5.4268
X7.5984Y-5.8268
X7.7559Y-5.4724
X7.7559Y-5.8661
X8.0315Y-5.4134
X8.0315Y-5.5118
T3
X6.3791Y-6.4248
X6.3791Y-6.7248
X6.4791Y-6.4248
X6.4791Y-6.7248
X6.5791Y-6.4248
X6.5791Y-6.7248
X6.6791Y-6.4248
X6.6791Y-6.7248
X6.7791Y-6.4248
X6.7791Y-6.7248
X6.8791Y-6.4248
X6.8791Y-6.7248
X6.9791Y-6.4248
X6.9791Y-6.7248
X7.0791Y-6.4248
X7.0791Y-6.7248
X7.1791Y-6.4248
X7.1791Y-6.7248
X7.2791Y-6.4248
X7.2791Y-6.7248
X7.3791Y-6.4248
X7.3791Y-6.7248
X7.4791Y-6.4248
X7.4791Y-6.7248
T4
X1.5748Y-6.4173
X2.4803Y-6.3673
X2.5591Y-7.4016
X3.4646Y-7.5197
X4.6063Y-6.6142
X4.6063Y-6.6142
X4.9312Y-7.5472
X5.074Y-8.4055
X5.4331Y-6.9291
X5.4724Y-6.6929
X5.4724Y-6.7795
X5.5118Y-7.2441
X5.5709Y-7.8543
X5.6693Y-6.5354
X5.6693Y-7.2047
X5.7874Y-7.1654
X5.7874Y-7.5472
X5.8661Y-6.7402
X5.9082Y-6.3467
X5.9449Y-6.8622
X6.0433Y-6.7126
X6.2407Y-6.594
X6.2598Y-6.4453
X6.4173Y-5.5906
X6.4173Y-7.5866
X6.5354Y-5.6693
X6.5354Y-6.063
X6.5354Y-7.5
X6.6142Y-7.126
X6.622Y-6.1417
X6.6339Y-7.6378
X6.6535Y-5.2362
X6.6535Y-7.2047
X6.6929Y-4.2126
X6.6929Y-5.9055
X6.7998Y-6.887
X6.811Y-5.5512
X7.2441Y-5.4724
X7.328Y-6.3334
X7.3395Y-7.0836
X7.3791Y-6.4248
X7.3819Y-7.5394
X7.4016Y-5.9449
X7.4173Y-2.4567
X7.4606Y-7.2391
X7.4803Y-6.1811
X7.5197Y-7.4409
X7.5591Y-6.2205
X7.5591Y-7.0866
X7.5856Y-5.992
X7.5935Y-6.5499
X7.6443Y-7.4213
X7.6477Y-6.2523
X7.6561Y-6.0423
X7.6772Y-6.6732
X7.685Y-5.6299
X7.7244Y-6.9094
X7.7559Y-6.5354
X7.815Y-6.4567
X7.9519Y-6.6526
X7.9843Y-5.8404
X8.1102Y-6.7913
X8.1496Y-5.8661
X8.3661Y-6.8701
X8.3661Y-6.8701
T5
X4.874Y-8.4055
X4.974Y-8.4055
X5.074Y-8.4055
X5.174Y-8.4055
X5.274Y-8.4055
X5.374Y-8.4055
X8.4252Y-5.4055
X8.4252Y-5.5055
X8.4252Y-5.6055
X8.4252Y-5.7055
X8.4252Y-5.8055
X8.4252Y-5.9055
T0
M30
